<svg width="127" height="333" viewBox="0 0 127 333" fill="none" xmlns="http://www.w3.org/2000/svg">
<path fill-rule="evenodd" clip-rule="evenodd" d="M338.203 -205.285C344.189 -205.035 350.417 -203.885 357.371 -201.959C363.302 -200.366 369.328 -198.029 375.428 -195.029C385.719 -189.956 395.418 -182.826 403.515 -174.309C410.952 -166.321 417.128 -157.224 421.753 -147.328C424.003 -142.417 425.87 -137.39 427.286 -132.492C427.606 -131.683 427.825 -130.865 428.023 -130.129C428.921 -126.777 429.441 -124.061 429.692 -121.574C430.276 -115.52 429.597 -109.527 428.952 -104.958C427.984 -98.1051 426.429 -91.119 424.199 -84.3272C421.716 -76.929 418.926 -70.6755 415.511 -65.2057C413.376 -61.9333 411.45 -59.4309 409.437 -57.2556C407.083 -54.8009 404.699 -52.8454 402.184 -51.3804C400.937 -50.6071 399.444 -49.9802 397.849 -49.3449C396.616 -48.9071 395.056 -48.5255 393.294 -48.127C390.414 -47.6347 387.055 -47.7711 383.846 -48.5054C381.966 -48.9331 380.267 -49.4595 378.525 -50.1495C376.76 -50.9212 374.952 -51.8565 373.122 -52.8735C371.001 -54.2006 369.061 -55.6265 367.615 -56.7594C365.508 -58.422 363.502 -60.0932 361.881 -61.8802C358 -65.9023 354.654 -70.6382 351.567 -76.7334C348.924 -81.9462 346.846 -87.3736 344.813 -92.6375L344.536 -93.2831C343.355 -96.5283 342.028 -99.9285 340.644 -103.157C338.051 -108.959 334.761 -115.037 330.228 -122.265C325.986 -129.183 321.076 -135.878 315.848 -142.212L315.994 -142.057C314.598 -143.779 313.435 -145.019 312.373 -146.268C311.21 -147.508 310.069 -148.667 308.906 -149.907L308.368 -150.363C305.751 -153.154 302.887 -156.091 300.284 -159.217C297.637 -162.506 295.687 -165.52 294.448 -168.593C294.172 -169.239 293.974 -169.975 293.799 -170.629C293.558 -171.528 293.295 -172.509 293.257 -173.426C293.22 -174.342 293.182 -175.259 293.245 -176.184C293.018 -177.419 292.893 -178.662 292.825 -180.078C292.749 -181.911 293.08 -183.778 293.729 -186.006C294.227 -187.636 295.131 -189.301 296.455 -191.335C297.526 -192.762 298.902 -194.215 300.844 -195.883C302.388 -197.099 304.156 -198.251 306.149 -199.337C308.244 -200.433 310.564 -201.463 313.052 -202.257C315.8 -203.24 318.738 -203.904 320.906 -204.337C326.136 -205.36 331.766 -205.665 338.203 -205.285ZM157.693 -184.049C173.906 -182.064 190.107 -178.573 205.912 -173.461C221.019 -168.624 235.956 -162.101 250.148 -154.094C263.868 -146.298 277.076 -136.537 289.539 -125.292C304.096 -112.048 316.209 -97.8476 325.261 -83.0558C329.27 -76.6199 332.801 -69.6422 336.109 -61.559C337.989 -56.8675 339.587 -52.0687 340.814 -47.4897C341.318 -45.609 341.975 -43.1559 342.604 -40.0317C345.495 -26.1446 345.818 -11.3736 343.813 4.01072C342.067 18.0356 338.037 32.8372 331.513 49.1856C329.267 55.1426 326.318 61.5767 324.344 65.8388L324.207 66.1011L324.149 66.2732L324.092 66.4452L323.874 66.7979L323.542 67.4946L321.568 71.7567C318.468 78.7887 315.447 85.7303 312.868 92.3841C308.599 103.193 305.049 114.359 302.209 125.466L302.173 125.72C298.918 139.537 296.845 153.505 296.194 167.355C295.866 174.656 295.988 182.087 296.387 190.163L296.634 194.573L296.699 194.819C296.941 199.982 297.166 204.311 297.289 208.648C298.214 231.478 297.516 255.615 287.396 277.532C282.474 288.228 275.125 297.623 265.837 305.591C256.085 313.766 243.762 320.485 229.107 325.475C223.124 327.565 216.524 329.289 209.126 330.745C202.474 331.888 195.713 332.622 188.9 332.775C175.093 333.181 161.565 331.138 149.52 326.88C137.003 322.412 125.817 315.156 117.093 305.855C112.586 301.049 108.739 295.603 105.237 289.124C101.459 282 98.4277 274.563 96.1351 266.394C95.8583 265.749 95.683 265.094 95.4858 264.358C93.7987 258.062 92.5458 251.061 91.6174 242.945C90.8066 235.656 90.3363 228.087 90.2264 219.151C90.1384 210.296 90.3253 200.916 90.5321 194.712L90.5023 194.213L90.4943 193.796L90.5879 193.37L90.6237 193.116L90.4922 192.626L90.6356 191.61L90.6415 190.857C90.7468 184.662 90.9457 178.04 90.9056 171.689C90.985 163.071 90.5724 155.331 89.885 148.115C88.616 136.015 86.2575 123.337 82.7739 110.336C82.3137 108.619 81.8536 106.902 81.292 105.193C77.3642 91.3093 72.108 77.119 65.2825 61.7226L66.0672 62.3256C58.1582 45.5987 49.9963 29.4782 40.7093 13.0341C38.5185 9.12105 36.3495 5.28981 34.1587 1.3768L32.6451 -1.17168L31.8883 -2.44592L31.8444 -2.60946C30.3965 -4.91264 29.0063 -7.38786 27.5723 -10.0266C23.8241 -16.6517 20.2709 -23.7111 16.9787 -30.9596C12.0034 -42.1637 8.21913 -52.7987 5.61186 -62.5292C0.200123 -82.7261 -0.645018 -101.383 3.00476 -117.992C3.63794 -121.055 4.46033 -123.799 5.38428 -126.552C6.12106 -128.453 7.09682 -130.625 8.43502 -132.995C10.6196 -136.856 13.537 -140.696 17.4262 -144.784C20.8953 -148.503 24.9598 -151.937 29.2932 -155.143L29.351 -155.315L29.5103 -155.495C31.205 -157.31 33.4653 -159.338 36.552 -161.771C40.8416 -165.14 46.0533 -168.169 52.9916 -171.342C58.5378 -173.898 64.7592 -176.258 71.4745 -178.326C77.3414 -180.072 83.8835 -181.624 91.5866 -183.106C98.0132 -184.313 104.426 -185.185 110.745 -185.632C118.058 -186.245 125.793 -186.057 132.468 -185.948C140.856 -185.648 149.332 -185.021 157.693 -184.049ZM441.562 -9.45098C440.429 -10.192 439.353 -11.1051 438.401 -11.945C437.304 -12.9399 436.41 -13.9518 435.617 -14.9722C434.075 -16.8495 432.693 -18.9074 431.506 -21.3996C430.341 -23.8101 429.459 -26.3279 428.612 -29.0996L428.459 -29.6719C427.144 -34.5781 426.576 -39.7976 426.72 -45.0768C426.827 -50.1021 427.596 -54.5976 428.924 -58.5548C429.081 -59.9057 429.159 -61.1663 429.338 -62.4354C430.013 -66.505 431.618 -69.8166 434.254 -72.3786C436.268 -74.5539 439.327 -76.3152 443.184 -77.8091C445.526 -78.7579 448.159 -79.3966 450.8 -79.618C453.237 -79.8223 455.639 -79.7729 458.049 -79.306C459.254 -79.0726 460.582 -78.766 461.729 -78.3605C462.854 -78.0368 463.9 -77.6228 465.316 -76.9891C467.327 -76.0708 469.223 -74.8085 471.308 -73.2276C473.023 -71.8664 474.68 -70.3332 476.2 -68.5377C477.944 -66.6774 479.428 -64.6281 480.709 -62.5617C481.866 -60.5685 483.089 -58.3301 484.095 -55.739C484.947 -53.7204 485.72 -51.6114 486.311 -49.4037C486.969 -46.9506 487.445 -44.3987 487.718 -41.8298C488.471 -34.3685 487.822 -23.6126 480.312 -15.2077C477.126 -11.5964 472.683 -8.79936 467.629 -7.12155C466.396 -6.68379 465.04 -6.31928 463.459 -6.0195C461.595 -5.61242 459.788 -5.37739 458.265 -5.24967C455.094 -5.06748 451.894 -5.38443 448.889 -6.13576C446.435 -6.76612 443.828 -7.96887 441.562 -9.45098Z" fill="#0099BB" fill-opacity="0.3"/>
</svg>
