<svg width="712" height="612" viewBox="0 0 712 612" fill="none" xmlns="http://www.w3.org/2000/svg">
<circle cx="618.118" cy="51.1176" r="4.11765" fill="#FF595E"/>
<circle cx="651.058" cy="51.1176" r="4.11765" fill="#FF595E"/>
<circle cx="683.998" cy="51.1176" r="4.11765" fill="#FF595E"/>
<circle cx="683.998" cy="84.0587" r="4.11765" fill="#FF595E"/>
<circle cx="651.058" cy="84.0587" r="4.11765" fill="#FF595E"/>
<circle cx="618.118" cy="84.0587" r="4.11765" fill="#FF595E"/>
<circle cx="618.118" cy="117.001" r="4.11765" fill="#FF595E"/>
<circle cx="618.118" cy="149.941" r="4.11765" fill="#FF595E"/>
<circle cx="618.118" cy="182.882" r="4.11765" fill="#FF595E"/>
<circle cx="651.058" cy="182.882" r="4.11765" fill="#FF595E"/>
<circle cx="683.998" cy="182.882" r="4.11765" fill="#FF595E"/>
<circle cx="683.998" cy="149.941" r="4.11765" fill="#FF595E"/>
<circle cx="683.998" cy="117.001" r="4.11765" fill="#FF595E"/>
<circle cx="651.058" cy="117.001" r="4.11765" fill="#FF595E"/>
<circle cx="651.058" cy="149.941" r="4.11765" fill="#FF595E"/>
<path fill-rule="evenodd" clip-rule="evenodd" d="M124.624 124.001C127.598 117.241 131.813 110.584 137.327 103.419C141.968 97.2884 147.59 91.3613 154.079 85.6287C165.043 75.9635 178.335 67.842 192.666 62.1409C206.036 56.9751 220.243 53.7217 234.769 52.5836C241.959 52.0699 249.123 52.0458 255.925 52.4833C257.087 52.4562 258.215 52.5491 259.23 52.6327C263.854 53.0137 267.508 53.5605 270.754 54.3195C278.644 56.1984 285.896 59.4995 291.368 62.1623C299.576 66.1566 307.69 70.8805 315.26 76.2969C323.483 82.2585 330.126 88.09 335.503 94.3089C338.68 98.1344 340.979 101.396 342.827 104.621C344.875 108.353 346.282 111.91 347.011 115.411C347.433 117.166 347.56 119.143 347.652 121.239C347.656 122.837 347.445 124.786 347.165 126.975C346.507 130.485 344.843 134.28 342.493 137.65C341.119 139.626 339.702 141.353 338.058 143.061C336.302 144.759 334.32 146.439 332.226 148.11C329.611 149.984 326.953 151.608 324.883 152.789C321.852 154.506 318.855 156.102 315.883 157.209C309.09 159.967 301.636 161.811 292.583 162.786C284.839 163.622 277.076 163.72 269.539 163.836L268.602 163.882C263.987 163.871 259.113 163.96 254.429 164.189C245.965 164.721 236.843 165.935 225.72 168.091C215.118 170.044 204.5 172.856 194.195 176.185L194.455 176.084C191.665 176.96 189.585 177.771 187.54 178.463C185.461 179.275 183.494 180.096 181.414 180.908L180.6 181.332C175.921 183.159 170.948 185.207 165.852 186.876C160.531 188.527 155.867 189.494 151.443 189.621C150.507 189.667 149.492 189.583 148.589 189.509C147.349 189.407 145.995 189.295 144.823 188.953C143.651 188.611 142.479 188.268 141.342 187.806C139.684 187.547 138.061 187.167 136.247 186.649C133.903 185.964 131.697 184.799 129.177 183.117C127.343 181.86 125.647 180.123 123.671 177.748C122.348 175.918 121.127 173.729 119.887 170.8C119.04 168.518 118.373 166.006 117.889 163.262C117.439 160.399 117.17 157.304 117.274 154.118C117.255 150.552 117.722 146.904 118.14 144.235C119.172 137.807 121.287 131.222 124.624 124.001ZM71.2424 339.943C80.9429 322.186 92.5362 305.076 105.998 289.104C118.802 273.814 133.655 259.431 150.048 246.527C165.965 234.075 184.133 223.037 203.84 213.478C226.995 202.359 250.271 194.446 272.934 190.291C282.826 188.403 293.188 187.29 304.845 186.899C311.593 186.718 318.351 186.906 324.667 187.426C327.261 187.64 330.644 187.919 334.862 188.512C353.648 191.043 372.409 196.89 390.909 205.664C407.81 213.57 424.676 224.422 442.385 238.784C448.896 243.868 455.696 249.958 460.192 254.015L460.461 254.283L460.652 254.422L460.844 254.56L461.192 254.958L461.922 255.632L466.418 259.689C473.904 266.205 481.312 272.591 488.554 278.349C500.281 287.794 512.778 296.566 525.517 304.497L525.821 304.645C541.79 314.195 558.475 322.451 575.642 329.027C584.699 332.476 594.118 335.465 604.475 338.407L610.143 339.98L610.481 340.008C617.096 341.905 622.652 343.468 628.173 345.152C657.359 353.701 687.471 364.661 710.601 385.492C721.897 395.639 730.475 408.021 736.395 422.026C742.368 436.65 745.364 453.61 745.148 472.517C745.126 480.257 744.368 488.551 742.919 497.649C741.406 505.758 739.329 513.82 736.497 521.697C730.877 537.702 722.295 552.356 711.582 564.376C700.392 576.849 686.28 586.624 670.684 592.712C662.626 595.858 654.053 597.978 644.333 599.266C633.676 600.6 622.956 600.946 611.643 600.137C610.706 600.182 609.804 600.108 608.789 600.024C600.104 599.309 590.723 597.798 580.082 595.447C570.535 593.309 560.787 590.662 549.474 587.027C538.275 583.4 526.536 579.238 518.808 576.389L518.166 576.214L517.636 576.047L517.141 575.761L516.837 575.613L516.16 575.557L514.944 574.965L513.998 574.641C506.236 571.913 497.978 568.898 489.956 566.27C479.13 562.552 469.19 559.767 459.79 557.518C443.976 553.88 426.95 551.248 409.017 549.771C406.648 549.575 404.28 549.38 401.877 549.305C382.634 547.966 362.415 548.02 339.979 549.367L341.087 548.721C316.494 550.75 292.552 553.324 267.702 557.053C261.798 557.918 256.006 558.792 250.101 559.658L246.217 560.321L244.275 560.652L244.049 560.634C240.503 561.325 236.766 561.877 232.804 562.411C222.79 563.921 212.314 565.024 201.717 565.748C185.386 566.738 170.302 566.601 156.88 565.495C129.021 563.2 105.131 556.316 85.818 545.139C82.2387 543.124 79.145 541.026 76.0856 538.807C74.0166 537.162 71.7124 535.129 69.32 532.597C65.4226 528.467 61.8786 523.505 58.4526 517.324C55.306 511.78 52.7823 505.674 50.6657 499.355L50.4745 499.216L50.3177 498.958C48.7835 496.251 47.2301 492.804 45.5347 488.241C43.1925 481.903 41.6892 474.652 40.7701 465.36C40.0123 457.924 39.799 449.796 40.1743 441.224C40.5787 433.761 41.5276 425.606 43.0802 416.149C44.4116 408.27 46.1597 400.55 48.4031 393.115C50.8774 384.471 54.5482 375.68 57.6498 368.07C61.7524 358.577 66.3062 349.121 71.2424 339.943ZM417.343 87.9025C415.905 88.8901 414.277 89.7391 412.796 90.4772C411.055 91.3169 409.382 91.9165 407.744 92.3959C404.694 93.3735 401.486 94.0923 397.818 94.4046C394.262 94.7261 390.697 94.6781 386.828 94.4822L386.039 94.4172C379.271 93.8596 372.441 92.3137 365.85 89.9274C359.564 87.6891 354.239 84.9154 349.842 81.7267C348.209 80.9777 346.654 80.3581 345.134 79.6184C340.305 77.1314 336.843 73.8969 334.785 69.7948C332.937 66.5704 332.076 62.3211 331.905 57.2687C331.749 54.1836 332.113 50.8956 333.007 47.7741C333.832 44.8927 334.96 42.1592 336.619 39.5923C337.448 38.3088 338.424 36.9146 339.444 35.7698C340.352 34.6157 341.338 33.5909 342.766 32.2339C344.816 30.3137 347.249 28.6708 350.167 26.945C352.644 25.5515 355.312 24.2967 358.25 23.3098C361.369 22.0922 364.611 21.2533 367.784 20.6545C370.81 20.1664 374.174 19.7063 377.887 19.6435C380.809 19.5156 383.811 19.5171 386.856 19.768C390.24 20.0468 393.667 20.575 397.026 21.3433C406.765 23.6203 420.033 28.8917 427.292 41.0414C430.429 46.2154 431.982 52.4877 431.852 58.9902C431.857 60.5881 431.714 62.2968 431.39 64.2363C431.075 66.5453 430.57 68.7156 430.054 70.5165C428.876 74.229 427.056 77.7657 424.774 80.8957C422.89 83.444 420.217 85.9273 417.343 87.9025Z" fill="#0099BB" fill-opacity="0.3"/>
</svg>
