<svg width="571" height="453" viewBox="0 0 571 453" fill="none" xmlns="http://www.w3.org/2000/svg">
<path fill-rule="evenodd" clip-rule="evenodd" d="M523.895 100.891C521.961 95.2754 519.02 89.6594 515.068 83.5507C511.749 78.3288 507.626 73.2054 502.792 68.1806C494.623 59.7072 484.475 52.3177 473.327 46.8002C462.916 41.7754 451.7 38.2284 440.085 36.3564C434.333 35.4696 428.567 34.977 423.062 34.8785C422.129 34.7799 421.214 34.7799 420.392 34.7799C416.643 34.7799 413.666 34.977 411.001 35.3711C404.522 36.3564 398.461 38.524 393.875 40.2975C386.997 42.9577 380.144 46.2091 373.683 50.0516C366.659 54.2883 360.916 58.5249 356.165 63.1557C353.348 66.013 351.276 68.4761 349.569 70.9393C347.667 73.7966 346.293 76.5554 345.468 79.3141C345.01 80.6935 344.773 82.2699 344.556 83.9449C344.444 85.2257 344.482 86.8022 344.559 88.5756C344.851 91.4329 345.932 94.5858 347.595 97.443C348.566 99.118 349.59 100.596 350.797 102.074C352.095 103.552 353.576 105.03 355.149 106.508C357.126 108.182 359.155 109.66 360.741 110.744C363.065 112.321 365.368 113.799 367.686 114.882C372.966 117.543 378.842 119.513 386.063 120.892C392.239 122.075 398.481 122.666 404.541 123.257L405.291 123.356C409.007 123.651 412.924 124.045 416.679 124.538C423.456 125.523 430.716 127.1 439.523 129.563C447.925 131.829 456.281 134.785 464.349 138.135L464.147 138.036C466.334 138.923 467.952 139.711 469.552 140.401C471.171 141.189 472.698 141.977 474.317 142.765L474.943 143.16C478.585 144.933 482.45 146.904 486.438 148.578C490.609 150.253 494.298 151.337 497.85 151.731C498.601 151.83 499.423 151.83 500.155 151.83C501.16 151.83 502.257 151.83 503.224 151.633C504.191 151.436 505.157 151.239 506.104 150.943C507.456 150.845 508.788 150.648 510.284 150.352C512.217 149.958 514.072 149.17 516.215 147.987C517.777 147.101 519.26 145.82 521.012 144.046C522.201 142.667 523.332 140.992 524.529 138.726C525.367 136.952 526.074 134.982 526.65 132.814C527.207 130.548 527.633 128.085 527.766 125.523C528.023 122.666 527.895 119.71 527.74 117.543C527.346 112.321 526.091 106.902 523.895 100.891ZM552.197 277.55C545.595 262.673 537.425 248.189 527.674 234.494C518.406 221.39 507.427 208.877 495.108 197.448C483.141 186.413 469.267 176.363 454.053 167.397C436.169 156.953 417.97 149.071 400.011 144.243C392.176 142.076 383.911 140.499 374.554 139.415C369.135 138.824 363.682 138.529 358.563 138.529C356.46 138.529 353.718 138.529 350.283 138.726C334.989 139.514 319.49 142.962 304.003 148.776C289.861 153.997 275.547 161.584 260.317 171.929C254.731 175.575 248.843 180.009 244.949 182.964L244.714 183.161L244.55 183.26L244.387 183.358L244.08 183.654L243.446 184.147L239.552 187.103C233.083 191.832 226.686 196.463 220.466 200.601C210.385 207.399 199.729 213.606 188.937 219.124L188.682 219.222C175.179 225.824 161.187 231.341 146.922 235.479C139.398 237.647 131.612 239.42 123.076 241.095L118.407 241.982L118.132 241.982C112.679 243.066 108.101 243.953 103.542 244.938C79.468 249.864 54.485 256.663 34.4512 271.836C24.6695 279.225 16.9236 288.585 11.2072 299.423C5.40553 310.754 1.8419 324.153 0.732039 339.327C0.223984 345.534 0.270569 352.234 0.819373 359.623C1.48639 366.224 2.61051 372.826 4.35505 379.329C7.79174 392.531 13.7041 404.847 21.5117 415.192C29.6717 425.932 40.367 434.701 52.5078 440.612C58.7805 443.667 65.5372 445.933 73.2738 447.608C81.7613 449.381 90.367 450.366 99.5285 450.465C100.279 450.563 101.011 450.563 101.834 450.563C108.873 450.563 116.527 449.972 125.252 448.79C133.082 447.706 141.109 446.228 150.461 444.061C159.723 441.893 169.455 439.331 175.869 437.558L176.398 437.459L176.835 437.361L177.253 437.164L177.508 437.065L178.057 437.065L179.076 436.671L179.859 436.474C186.293 434.799 193.144 432.927 199.78 431.351C208.748 429.085 216.938 427.508 224.657 426.326C237.634 424.454 251.518 423.469 266.053 423.469C267.973 423.469 269.893 423.469 271.832 423.567C287.413 423.764 303.684 425.143 321.653 427.705L320.804 427.114C340.463 430.365 359.561 434.011 379.31 438.642C384.004 439.725 388.607 440.809 393.301 441.893L396.382 442.681L397.923 443.075L398.106 443.075C400.913 443.864 403.884 444.553 407.037 445.243C414.996 447.115 423.353 448.691 431.834 449.972C444.912 451.844 457.064 452.731 467.943 452.731C490.524 452.731 510.221 448.79 526.527 441.105C529.545 439.725 532.178 438.248 534.791 436.671C536.568 435.489 538.561 434.011 540.659 432.139C544.076 429.085 547.266 425.34 550.444 420.611C553.353 416.375 555.799 411.645 557.932 406.719L558.096 406.62L558.24 406.423C559.658 404.354 561.143 401.694 562.818 398.147C565.133 393.221 566.836 387.506 568.207 380.117C569.322 374.205 570.046 367.702 570.326 360.805C570.507 354.795 570.297 348.194 569.69 340.509C569.154 334.105 568.271 327.799 566.97 321.69C565.565 314.596 563.208 307.305 561.228 301C558.57 293.117 555.547 285.235 552.197 277.55ZM290.723 52.6133C291.813 53.5001 293.066 54.2883 294.208 54.978C295.553 55.7662 296.859 56.3573 298.144 56.85C300.534 57.8352 303.067 58.6235 305.998 59.1161C308.838 59.6087 311.711 59.8058 314.839 59.9043L315.479 59.9043C320.964 59.9043 326.568 59.1161 332.035 57.6382C337.247 56.2588 341.721 54.3868 345.478 52.1207C346.843 51.6281 348.136 51.2339 349.41 50.7413C353.467 49.0664 356.473 46.7017 358.408 43.5488C360.114 41.0857 361.097 37.7358 361.577 33.6962C361.912 31.233 361.842 28.5728 361.335 26.0111C360.867 23.6464 360.144 21.3803 358.984 19.2127C358.403 18.1289 357.712 16.9466 356.969 15.9613C356.316 14.976 355.592 14.0893 354.536 12.907C353.015 11.232 351.169 9.75413 348.937 8.1777C347.038 6.89685 344.975 5.71452 342.677 4.72925C340.249 3.54693 337.697 2.66019 335.183 1.9705C332.781 1.37934 330.104 0.788181 327.12 0.4926C324.776 0.19702 322.36 -3.38452e-05 319.892 -3.36328e-05C317.149 -3.33969e-05 314.354 0.197021 311.598 0.591128C303.604 1.77345 292.566 5.12337 285.897 14.3849C283.021 18.326 281.345 23.2523 281.008 28.4742C280.896 29.7551 280.894 31.1345 281.024 32.7109C281.12 34.5829 281.38 36.3564 281.672 37.8343C282.368 40.8886 283.594 43.8444 285.217 46.5047C286.561 48.6723 288.544 50.8398 290.723 52.6133Z" fill="#A562D9" fill-opacity="0.3"/>
</svg>
