<svg width="529" height="59" viewBox="0 0 529 59" fill="none" xmlns="http://www.w3.org/2000/svg">
<path fill-rule="evenodd" clip-rule="evenodd" d="M69.7184 393.093C72.0587 398.608 75.3257 404.033 79.574 409.866C83.1512 414.858 87.4589 419.677 92.4129 424.332C100.782 432.18 110.867 438.752 121.689 443.336C131.782 447.488 142.47 450.07 153.36 450.918C158.749 451.297 164.111 451.276 169.194 450.879C170.064 450.895 170.907 450.812 171.665 450.738C175.119 450.4 177.844 449.931 180.26 449.291C186.133 447.708 191.504 444.965 195.554 442.754C201.629 439.438 207.622 435.525 213.195 431.048C219.247 426.121 224.12 421.31 228.039 416.189C230.351 413.04 232.016 410.357 233.345 407.707C234.814 404.64 235.807 401.721 236.293 398.851C236.579 397.412 236.64 395.794 236.674 394.077C236.65 392.769 236.459 391.175 236.212 389.385C235.66 386.516 234.35 383.419 232.534 380.674C231.473 379.065 230.382 377.66 229.124 376.271C227.781 374.891 226.269 373.527 224.673 372.171C222.685 370.653 220.668 369.338 219.099 368.383C216.801 366.996 214.531 365.706 212.288 364.817C207.158 362.598 201.548 361.132 194.756 360.386C188.947 359.746 183.136 359.71 177.493 359.658L176.791 359.626C173.338 359.662 169.688 359.616 166.18 359.456C159.836 359.069 152.989 358.127 144.628 356.426C136.66 354.888 128.666 352.648 120.898 349.982L121.095 350.063C118.991 349.362 117.421 348.709 115.879 348.155C114.309 347.502 112.823 346.842 111.253 346.189L110.637 345.846C107.104 344.378 103.347 342.73 99.5057 341.393C95.4953 340.072 91.9885 339.307 88.676 339.228C87.9743 339.196 87.216 339.271 86.542 339.337C85.6152 339.427 84.6042 339.526 83.733 339.813C82.8618 340.1 81.9905 340.387 81.147 340.772C79.911 340.994 78.7028 341.314 77.3538 341.748C75.6113 342.322 73.9798 343.288 72.1224 344.68C70.7714 345.719 69.5315 347.151 68.0933 349.106C67.1339 350.611 66.2577 352.41 65.3795 354.814C64.7838 356.687 64.3279 358.747 64.0118 360.996C63.7234 363.342 63.5747 365.876 63.7066 368.484C63.7532 371.402 64.1646 374.386 64.5224 376.568C65.4037 381.824 67.0987 387.201 69.7184 393.093ZM26.1052 216.648C33.6661 231.127 42.6325 245.065 52.9776 258.061C62.8192 270.503 74.1793 282.19 86.6663 292.659C98.7895 302.76 112.573 311.691 127.483 319.402C145.001 328.37 162.555 334.714 179.585 337.985C187.02 339.474 194.794 340.325 203.524 340.579C208.577 340.689 213.631 340.496 218.349 340.034C220.287 339.844 222.814 339.597 225.96 339.087C239.977 336.908 253.917 332.015 267.613 324.727C280.128 318.16 292.566 309.181 305.575 297.324C310.362 293.126 315.347 288.102 318.643 284.755L318.84 284.535L318.981 284.42L319.122 284.305L319.375 283.978L319.91 283.422L323.206 280.075C328.698 274.7 334.134 269.43 339.455 264.676C348.072 256.877 357.276 249.626 366.674 243.062L366.899 242.939C378.688 235.031 391.035 228.178 403.77 222.697C410.49 219.822 417.488 217.322 425.189 214.855L429.404 213.535L429.657 213.51C434.575 211.92 438.706 210.608 442.81 209.198C464.507 202.034 486.856 192.89 503.812 175.708C512.094 167.338 518.303 157.154 522.496 145.657C526.718 133.653 528.672 119.754 528.19 104.28C528.042 97.9443 527.334 91.1599 526.095 83.7221C524.825 77.0935 523.134 70.5062 520.881 64.0748C516.404 51.0075 509.733 39.0621 501.511 29.2844C492.925 19.1392 482.199 11.2195 470.423 6.3254C464.339 3.79678 457.888 2.11047 450.592 1.11161C442.594 0.0807157 434.565 -0.140899 426.113 0.586189C425.411 0.554124 424.737 0.620134 423.979 0.694397C417.491 1.32975 410.497 2.61955 402.573 4.60505C395.464 6.40992 388.214 8.63189 379.81 11.6724C371.49 14.7045 362.775 18.1786 357.041 20.5544L356.563 20.702L356.169 20.8414L355.804 21.0788L355.579 21.2016L355.073 21.2511L354.173 21.7424L353.47 22.0128C347.708 24.2906 341.579 26.8058 335.62 29.0021C327.581 32.1076 320.19 34.4441 313.193 36.3388C301.42 39.4069 288.723 41.6583 275.327 42.9703C273.558 43.1436 271.788 43.3169 269.991 43.3921C255.613 44.5986 240.481 44.6696 223.668 43.6958L224.508 44.2182C206.068 42.6981 188.107 40.728 169.447 37.8184C165.014 37.144 160.664 36.4612 156.231 35.7868L153.313 35.2663L151.854 35.006L151.685 35.0225C149.02 34.4772 146.214 34.0465 143.239 33.6323C135.719 32.4538 127.861 31.6108 119.918 31.0785C107.68 30.362 96.3932 30.5603 86.3674 31.5423C65.5576 33.5803 47.7958 39.3515 33.5318 48.6101C30.8874 50.2801 28.6077 52.0153 26.3558 53.8484C24.8353 55.2068 23.1454 56.8842 21.398 58.9703C18.5513 62.3736 15.9832 66.4551 13.5242 71.5338C11.2634 76.0892 9.47831 81.1019 8.00153 86.2861L7.86078 86.4006L7.74778 86.6133C6.64563 88.8378 5.5415 91.6673 4.35015 95.4124C2.70489 100.613 1.70287 106.557 1.17268 114.168C0.731673 120.259 0.709964 126.913 1.13628 133.926C1.56551 140.033 2.41407 146.702 3.73639 154.434C4.86646 160.875 6.30573 167.185 8.11074 173.257C10.1091 180.318 13.0053 187.493 15.4556 193.703C18.687 201.45 22.2553 209.164 26.1052 216.648ZM289.394 420.965C288.302 420.165 287.069 419.479 285.948 418.883C284.63 418.206 283.368 417.725 282.134 417.342C279.835 416.559 277.422 415.989 274.672 415.754C272.006 415.512 269.338 415.571 266.446 415.754L265.856 415.812C260.801 416.307 255.716 417.611 250.824 419.602C246.158 421.47 242.22 423.771 238.983 426.406C237.773 427.028 236.621 427.544 235.496 428.158C231.923 430.222 229.388 432.889 227.917 436.258C226.589 438.908 226.016 442.391 225.975 446.528C225.91 449.054 226.238 451.743 226.96 454.293C227.626 456.646 228.517 458.877 229.802 460.969C230.444 462.015 231.198 463.15 231.981 464.081C232.68 465.021 233.435 465.854 234.527 466.957C236.094 468.516 237.942 469.847 240.156 471.243C242.033 472.37 244.051 473.381 246.266 474.172C248.621 475.151 251.062 475.819 253.447 476.291C255.719 476.673 258.245 477.031 261.024 477.061C263.214 477.149 265.46 477.13 267.734 476.908C270.262 476.66 272.818 476.208 275.319 475.56C282.568 473.641 292.409 469.25 297.635 459.264C299.895 455.011 300.95 449.868 300.743 444.547C300.719 443.239 300.584 441.841 300.308 440.255C300.033 438.367 299.618 436.594 299.202 435.123C298.257 432.091 296.835 429.206 295.074 426.657C293.621 424.582 291.578 422.565 289.394 420.965Z" fill="#0099BB" fill-opacity="0.3"/>
</svg>
