<svg width="571" height="439" viewBox="0 0 571 439" fill="none" xmlns="http://www.w3.org/2000/svg">
<path fill-rule="evenodd" clip-rule="evenodd" d="M523.895 97.7221C521.961 92.2825 519.02 86.8429 515.068 80.9261C511.749 75.8682 507.626 70.9058 502.792 66.0387C494.623 57.8316 484.475 50.6742 473.327 45.3301C462.916 40.463 451.7 37.0275 440.085 35.2143C434.333 34.3554 428.567 33.8782 423.062 33.7828C422.129 33.6874 421.214 33.6874 420.392 33.6874C416.643 33.6874 413.666 33.8782 411.001 34.26C404.522 35.2143 398.461 37.3138 393.875 39.0316C386.997 41.6082 380.144 44.7575 373.683 48.4793C366.659 52.5829 360.916 56.6864 356.165 61.1717C353.348 63.9393 351.276 66.3251 349.569 68.7109C347.667 71.4784 346.293 74.1505 345.468 76.8226C345.01 78.1586 344.773 79.6855 344.556 81.3079C344.444 82.5485 344.482 84.0754 344.559 85.7931C344.85 88.5607 345.932 91.6145 347.595 94.382C348.566 96.0044 349.59 97.4358 350.797 98.8673C352.095 100.299 353.576 101.73 355.149 103.162C357.126 104.784 359.155 106.216 360.741 107.265C363.065 108.792 365.368 110.224 367.686 111.273C372.966 113.85 378.842 115.759 386.063 117.095C392.239 118.24 398.481 118.813 404.541 119.385L405.291 119.481C409.007 119.767 412.924 120.149 416.679 120.626C423.456 121.58 430.716 123.107 439.523 125.493C447.925 127.688 456.281 130.551 464.349 133.795L464.147 133.7C466.334 134.559 467.952 135.322 469.552 135.99C471.171 136.754 472.698 137.517 474.317 138.281L474.943 138.662C478.585 140.38 482.45 142.289 486.438 143.911C490.609 145.533 494.298 146.583 497.85 146.965C498.601 147.06 499.423 147.06 500.155 147.06C501.16 147.06 502.257 147.06 503.224 146.869C504.191 146.679 505.157 146.488 506.104 146.201C507.456 146.106 508.788 145.915 510.284 145.629C512.217 145.247 514.072 144.484 516.215 143.339C517.777 142.48 519.26 141.239 521.012 139.521C522.201 138.185 523.332 136.563 524.529 134.368C525.367 132.65 526.074 130.742 526.65 128.642C527.207 126.447 527.633 124.061 527.766 121.58C528.023 118.813 527.895 115.95 527.74 113.85C527.346 108.792 526.091 103.543 523.895 97.7221ZM552.197 268.831C545.595 254.421 537.425 240.393 527.674 227.128C518.406 214.435 507.427 202.315 495.108 191.245C483.141 180.557 469.267 170.823 454.053 162.139C436.169 152.023 417.97 144.388 400.011 139.712C392.176 137.613 383.911 136.086 374.554 135.036C369.135 134.463 363.682 134.177 358.563 134.177C356.46 134.177 353.718 134.177 350.283 134.368C334.989 135.131 319.49 138.471 304.003 144.102C289.861 149.16 275.547 156.508 260.317 166.528C254.731 170.059 248.843 174.354 244.949 177.217L244.714 177.408L244.55 177.503L244.387 177.599L244.08 177.885L243.446 178.362L239.552 181.225C233.083 185.806 226.686 190.291 220.466 194.299C210.385 200.884 199.729 206.896 188.937 212.24L188.682 212.336C175.179 218.73 161.187 224.074 146.922 228.082C139.398 230.181 131.612 231.899 123.076 233.522L118.407 234.38L118.132 234.38C112.679 235.43 108.101 236.289 103.542 237.243C79.468 242.015 54.485 248.6 34.4512 263.296C24.6695 270.454 16.9236 279.52 11.2072 290.017C5.40553 300.992 1.8419 313.971 0.732038 328.667C0.223983 334.679 0.270568 341.169 0.819373 348.326C1.48639 354.72 2.6105 361.114 4.35505 367.412C7.79174 380.2 13.7041 392.129 21.5117 402.15C29.6717 412.552 40.367 421.045 52.5078 426.771C58.7805 429.729 65.5372 431.924 73.2738 433.547C81.7613 435.264 90.367 436.219 99.5285 436.314C100.279 436.41 101.011 436.41 101.834 436.41C108.873 436.41 116.527 435.837 125.252 434.692C133.082 433.642 141.109 432.211 150.461 430.111C159.723 428.012 169.455 425.53 175.869 423.813L176.398 423.717L176.835 423.622L177.253 423.431L177.508 423.335L178.057 423.335L179.076 422.954L179.859 422.763C186.293 421.14 193.144 419.327 199.78 417.8C208.748 415.605 216.938 414.079 224.657 412.933C237.634 411.12 251.518 410.166 266.053 410.166C267.973 410.166 269.893 410.166 271.832 410.261C287.413 410.452 303.684 411.788 321.653 414.269L320.804 413.697C340.463 416.846 359.561 420.377 379.31 424.862C384.004 425.912 388.607 426.962 393.301 428.012L396.382 428.775L397.923 429.157L398.106 429.157C400.913 429.92 403.884 430.588 407.037 431.256C414.996 433.069 423.353 434.596 431.834 435.837C444.912 437.65 457.064 438.509 467.943 438.509C490.524 438.509 510.221 434.692 526.527 427.248C529.545 425.912 532.178 424.481 534.791 422.954C536.568 421.808 538.561 420.377 540.659 418.564C544.076 415.605 547.266 411.979 550.444 407.398C553.353 403.295 555.799 398.714 557.932 393.942L558.096 393.847L558.24 393.656C559.658 391.652 561.143 389.075 562.818 385.64C565.133 380.868 566.836 375.333 568.207 368.176C569.322 362.45 570.046 356.151 570.326 349.471C570.507 343.65 570.297 337.256 569.69 329.812C569.154 323.609 568.271 317.502 566.97 311.585C565.565 304.714 563.208 297.652 561.228 291.544C558.57 283.91 555.547 276.275 552.197 268.831ZM290.723 50.9605C291.813 51.8194 293.066 52.5829 294.208 53.2509C295.553 54.0144 296.859 54.587 298.144 55.0641C300.534 56.0184 303.067 56.7819 305.998 57.259C308.838 57.7362 311.711 57.9271 314.839 58.0225L315.479 58.0225C320.964 58.0225 326.568 57.259 332.035 55.8276C337.247 54.4915 341.721 52.6783 345.478 50.4834C346.843 50.0062 348.136 49.6245 349.41 49.1473C353.467 47.525 356.473 45.2346 358.408 42.1808C360.114 39.795 361.097 36.5503 361.577 32.6376C361.912 30.2518 361.842 27.6752 361.335 25.194C360.867 22.9036 360.144 20.7087 358.984 18.6092C358.403 17.5594 357.712 16.4142 356.969 15.4599C356.316 14.5056 355.592 13.6467 354.536 12.5015C353.015 10.8792 351.169 9.44771 348.937 7.9208C347.038 6.68019 344.975 5.53501 342.677 4.58069C340.249 3.43551 337.697 2.57662 335.183 1.9086C332.781 1.33601 330.104 0.763421 327.12 0.477126C324.776 0.190831 322.36 -3.2782e-05 319.892 -3.25763e-05C317.149 -3.23477e-05 314.354 0.190831 311.598 0.572559C303.604 1.71774 292.566 4.96242 285.897 13.933C283.021 17.7503 281.345 22.5219 281.008 27.5798C280.896 28.8204 280.894 30.1564 281.024 31.6833C281.12 33.4965 281.38 35.2143 281.672 36.6458C282.368 39.6042 283.594 42.4671 285.217 45.0438C286.561 47.1433 288.544 49.2428 290.723 50.9605Z" fill="#1976D2" fill-opacity="0.3"/>
</svg>
