<svg width="529" height="450" viewBox="0 0 529 450" fill="none" xmlns="http://www.w3.org/2000/svg">
<path fill-rule="evenodd" clip-rule="evenodd" d="M43.3565 102.871C45.148 97.1535 47.8706 91.4358 51.5301 85.2166C54.6038 79.9002 58.4212 74.6841 62.8979 69.5683C70.4617 60.9417 79.8584 53.4184 90.1818 47.8011C99.8223 42.6853 110.208 39.0742 120.963 37.1683C126.29 36.2655 131.628 35.7639 136.726 35.6636C137.59 35.5633 138.437 35.5633 139.199 35.5633C142.67 35.5633 145.427 35.7639 147.894 36.1652C153.893 37.1683 159.506 39.3751 163.752 41.1807C170.122 43.889 176.467 47.1993 182.45 51.1113C188.954 55.4247 194.272 59.738 198.672 64.4525C201.28 67.3615 203.199 69.8692 204.779 72.377C206.541 75.286 207.813 78.0946 208.577 80.9033C209.001 82.3077 209.22 83.9126 209.421 85.6179C209.525 86.9219 209.49 88.5269 209.418 90.3324C209.148 93.2414 208.147 96.4513 206.608 99.3603C205.708 101.066 204.76 102.57 203.642 104.075C202.44 105.579 201.069 107.084 199.613 108.589C197.782 110.294 195.902 111.799 194.434 112.902C192.283 114.507 190.149 116.012 188.004 117.115C183.114 119.823 177.673 121.83 170.987 123.234C165.268 124.438 159.488 125.04 153.877 125.641L153.181 125.742C149.741 126.043 146.113 126.444 142.637 126.945C136.361 127.949 129.639 129.553 121.484 132.061C113.703 134.368 105.966 137.378 98.4949 140.788L98.6822 140.688C96.6573 141.591 95.1584 142.393 93.6775 143.095C92.1785 143.898 90.7642 144.7 89.2652 145.503L88.6851 145.904C85.3124 147.71 81.7343 149.716 78.0411 151.421C74.1786 153.126 70.7631 154.23 67.474 154.631C66.7787 154.731 66.0169 154.731 65.3397 154.731C64.4084 154.731 63.3926 154.731 62.4975 154.531C61.6025 154.33 60.7074 154.129 59.8304 153.828C58.5787 153.728 57.3451 153.528 55.9601 153.227C54.17 152.825 52.4521 152.023 50.4679 150.819C49.022 149.916 47.6485 148.612 46.0266 146.807C44.925 145.402 43.8776 143.697 42.7693 141.39C41.9939 139.584 41.3394 137.578 40.8055 135.371C40.2898 133.064 39.8948 130.557 39.772 127.949C39.5339 125.04 39.6525 122.03 39.7959 119.823C40.1607 114.507 41.3235 108.99 43.3565 102.871ZM17.1493 282.726C23.263 267.58 30.8281 252.834 39.8572 238.891C48.4392 225.55 58.606 212.811 70.0131 201.175C81.0941 189.94 93.9414 179.708 108.029 170.58C124.589 159.947 141.441 151.923 158.071 147.007C165.326 144.801 172.979 143.196 181.643 142.092C186.662 141.49 191.71 141.189 196.451 141.189C198.398 141.189 200.938 141.189 204.118 141.39C218.28 142.193 232.632 145.703 246.973 151.622C260.068 156.938 273.322 164.662 287.425 175.194C292.598 178.906 298.049 183.42 301.655 186.429L301.873 186.63L302.024 186.73L302.176 186.83L302.46 187.131L303.047 187.633L306.653 190.642C312.643 195.457 318.566 200.172 324.326 204.385C333.661 211.306 343.528 217.625 353.522 223.243L353.758 223.343C366.261 230.064 379.217 235.681 392.427 239.894C399.394 242.101 406.603 243.907 414.507 245.612L418.831 246.515L419.085 246.515C424.135 247.618 428.375 248.521 432.596 249.524C454.888 254.539 478.021 261.461 496.572 276.908C505.63 284.432 512.803 293.961 518.096 304.995C523.468 316.531 526.768 330.173 527.796 345.621C528.266 351.94 528.223 358.761 527.715 366.284C527.097 373.005 526.056 379.726 524.441 386.346C521.259 399.788 515.784 412.327 508.554 422.859C500.998 433.793 491.095 442.72 479.852 448.739C474.044 451.849 467.787 454.156 460.623 455.861C452.764 457.667 444.795 458.67 436.312 458.77C435.617 458.87 434.94 458.87 434.178 458.87C427.659 458.87 420.572 458.268 412.493 457.065C405.242 455.961 397.81 454.457 389.149 452.25C380.573 450.043 371.562 447.435 365.623 445.629L365.133 445.529L364.727 445.429L364.34 445.228L364.104 445.128L363.597 445.128L362.653 444.727L361.927 444.526C355.97 442.821 349.626 440.915 343.481 439.31C335.177 437.003 327.593 435.398 320.445 434.194C308.429 432.288 295.573 431.285 282.113 431.285C280.335 431.285 278.558 431.285 276.762 431.385C262.335 431.586 247.268 432.99 230.629 435.598L231.415 434.996C213.211 438.307 195.527 442.018 177.24 446.733C172.893 447.836 168.631 448.94 164.284 450.043L161.431 450.845L160.004 451.247L159.835 451.247C157.235 452.049 154.485 452.751 151.565 453.453C144.195 455.359 136.457 456.964 128.603 458.268C116.493 460.174 105.241 461.077 95.1673 461.077C74.258 461.077 56.0182 457.065 40.9197 449.24C38.1251 447.836 35.6871 446.331 33.2672 444.727C31.6216 443.523 29.7762 442.018 27.8338 440.112C24.669 437.003 21.7153 433.191 18.7729 428.376C16.0788 424.063 13.8137 419.248 11.8386 414.232L11.6874 414.132L11.5542 413.931C10.2404 411.825 8.86577 409.117 7.31505 405.505C5.1707 400.49 3.59409 394.672 2.32454 387.149C1.29198 381.13 0.621767 374.51 0.362429 367.488C0.194433 361.369 0.388838 354.648 0.951191 346.824C1.4481 340.304 2.2655 333.884 3.47005 327.665C4.77059 320.443 6.95374 313.02 8.78701 306.6C11.2479 298.575 14.0474 290.551 17.1493 282.726ZM259.269 53.7194C258.26 54.6222 257.1 55.4247 256.042 56.1268C254.797 56.9293 253.588 57.5312 252.397 58.0327C250.185 59.0358 247.84 59.8383 245.125 60.3398C242.495 60.8414 239.835 61.042 236.938 61.1423L236.346 61.1423C231.267 61.1423 226.078 60.3398 221.016 58.8352C216.19 57.4308 212.046 55.525 208.567 53.2178C207.303 52.7163 206.106 52.3151 204.926 51.8135C201.17 50.1082 198.387 47.7008 196.594 44.4909C195.014 41.9832 194.105 38.5726 193.66 34.4599C193.35 31.9522 193.414 29.2438 193.884 26.6358C194.317 24.2283 194.987 21.9212 196.061 19.7144C196.599 18.611 197.239 17.4073 197.927 16.4042C198.531 15.4011 199.202 14.4983 200.18 13.2946C201.588 11.5893 203.298 10.0847 205.365 8.47972C207.123 7.17569 209.033 5.97198 211.161 4.96888C213.409 3.76517 215.773 2.86238 218.1 2.16021C220.325 1.55835 222.804 0.956495 225.567 0.655566C227.737 0.354637 229.974 0.154018 232.26 0.154018C234.799 0.154019 237.388 0.354638 239.94 0.755877C247.342 1.95959 257.563 5.37012 263.738 14.7992C266.402 18.8116 267.953 23.8271 268.266 29.1435C268.37 30.4475 268.371 31.8519 268.251 33.4568C268.162 35.3627 267.921 37.1683 267.65 38.6729C267.006 41.7825 265.871 44.7918 264.368 47.5002C263.124 49.707 261.287 51.9138 259.269 53.7194Z" fill="#0099BB" fill-opacity="0.3"/>
</svg>
