<svg width="58" height="58" viewBox="0 0 58 58" fill="none" xmlns="http://www.w3.org/2000/svg">
<g clip-path="url(#clip0_3025_15606)">
<g filter="url(#filter0_b_3025_15606)">
<rect x="0.135254" y="0.229056" width="57.094" height="57.094" rx="11.4188" fill="white"/>
<rect x="0.492092" y="0.585894" width="56.3803" height="56.3803" rx="11.062" stroke="white" stroke-width="0.713675"/>
</g>
<path d="M41.6977 7.99999H16.3023C15.586 7.99999 15 8.59062 15 9.31249V48.6875C15 49.4094 15.586 50 16.3023 50H41.6977C42.414 50 43 49.4094 43 48.6875V9.31249C43 8.59062 42.414 7.99999 41.6977 7.99999ZM42.3488 48.6875C42.3488 49.0493 42.0567 49.3437 41.6977 49.3437H16.3023C15.9433 49.3437 15.6512 49.0493 15.6512 48.6875V43.1094H19.2326C19.4122 43.1094 19.5581 42.9623 19.5581 42.7812C19.5581 42.6002 19.4122 42.4531 19.2326 42.4531H15.6512V41.7969H20.5349C20.7145 41.7969 20.8605 41.6498 20.8605 41.4687C20.8605 41.2877 20.7145 41.1406 20.5349 41.1406H15.6512V35.2344H42.3488V41.1406H37.4651C37.2855 41.1406 37.1395 41.2877 37.1395 41.4687C37.1395 41.6498 37.2855 41.7969 37.4651 41.7969H42.3488V42.4531H38.7674C38.5878 42.4531 38.4419 42.6002 38.4419 42.7812C38.4419 42.9623 38.5878 43.1094 38.7674 43.1094H42.3488V48.6875ZM35.5116 11.4867L39.9293 15.5467H35.9113C35.691 15.5467 35.5116 15.3733 35.5116 15.16L35.5116 11.4867ZM35.9113 16.203H40.3954V34.578H39.093V21.5917L33.5867 16.5312H21.5115V11.4863C21.5115 11.3732 21.601 11.2812 21.7109 11.2812H34.8607V15.1601C34.8607 15.7352 35.3322 16.2031 35.9115 16.2031L35.9113 16.203ZM33.5581 17.393L37.9759 21.453H33.9581C33.7375 21.453 33.5581 21.2795 33.5581 21.0663V17.393ZM32.907 17.1873V21.0663C32.907 21.6414 33.3785 22.1092 33.9581 22.1092H38.4419V34.578H37.1395V27.8259L31.6332 22.7655H19.558V17.3924C19.558 17.2793 19.6475 17.1873 19.7574 17.1873L32.907 17.1873ZM31.6047 23.6274L36.0224 27.6873H32.0047C31.784 27.6873 31.6047 27.5139 31.6047 27.3006V23.6274ZM30.9535 23.4217V27.3006C30.9535 27.8757 31.425 28.3436 32.0047 28.3436H36.4884V34.5779H17.6047V23.6264C17.6047 23.5134 17.6942 23.4214 17.8041 23.4214L30.9535 23.4217ZM41.0461 34.5779V15.6854L35.5398 10.625H21.7106C21.2408 10.625 20.86 11.0105 20.86 11.4863V16.5312H19.7571C19.2873 16.5312 18.9065 16.9168 18.9065 17.3925V22.7656H17.8036C17.3338 22.7656 16.953 23.1511 16.953 23.6269V34.5784H15.6506V9.31239C15.6506 8.95057 15.9428 8.65614 16.3018 8.65614H41.6972C42.0562 8.65614 42.3483 8.95057 42.3483 9.31239V34.5784L41.0461 34.5779Z" fill="#A562D9"/>
<path d="M32.7141 40.4548H30.6571V38.382C30.6571 37.6314 30.1623 37.5315 29.5524 37.5315H28.4487C27.837 37.5315 27.3423 37.6314 27.3423 38.382V40.4548H25.1501C24.4798 40.4548 24.4414 40.954 24.4414 41.5681V42.6825C24.4414 43.2968 24.4798 43.7958 25.1501 43.7958H27.3423V46.0042C27.3423 46.6809 27.8367 46.719 28.4469 46.719H29.5522C30.1624 46.719 30.6572 46.6809 30.6572 46.0042V43.7958H32.7139C33.459 43.7958 33.5575 43.2969 33.5575 42.6825V41.5695C33.5578 40.954 33.4592 40.4548 32.7142 40.4548H32.7141ZM32.9065 42.6825C32.9065 42.9781 32.8769 43.0865 32.8609 43.1237C32.8411 43.1298 32.7964 43.1395 32.7141 43.1395H30.0059V46.0041C30.0059 46.0167 30.0056 46.0276 30.0051 46.037C29.8821 46.0627 29.6405 46.0627 29.5522 46.0627H28.4469C28.3585 46.0627 28.1172 46.0627 27.9943 46.0372C27.9937 46.0276 27.9934 46.0167 27.9934 46.0041V43.1395H25.1501C25.1379 43.1395 25.1274 43.1392 25.1181 43.1386C25.0925 43.0147 25.0925 42.7716 25.0925 42.6825V41.5681C25.0925 41.479 25.0925 41.2358 25.1181 41.1119C25.1274 41.1113 25.1379 41.111 25.1501 41.111H27.9934V38.382C27.9934 38.2991 28.003 38.2543 28.0091 38.2341C28.046 38.2177 28.1539 38.1878 28.4486 38.1878H29.5524C29.846 38.1878 29.9536 38.2177 29.9902 38.2341C29.9963 38.254 30.0059 38.2991 30.0059 38.382V41.111H32.7138C32.796 41.111 32.8405 41.1207 32.8603 41.1269C32.8769 41.1641 32.9065 41.2728 32.9065 41.5695L32.9065 42.6825Z" fill="#A562D9"/>
<path d="M20.8621 42.7813C20.8621 43.2187 20.2109 43.2187 20.2109 42.7813C20.2109 42.3439 20.8621 42.3439 20.8621 42.7813Z" fill="#A562D9"/>
<path d="M37.7918 42.7813C37.7918 43.2187 37.1406 43.2187 37.1406 42.7813C37.1406 42.3439 37.7918 42.3439 37.7918 42.7813Z" fill="#A562D9"/>
<path d="M21.5131 30.3125H32.5828C32.7625 30.3125 32.9084 30.1654 32.9084 29.9844C32.9084 29.8033 32.7625 29.6562 32.5828 29.6562H21.5131C21.3334 29.6562 21.1875 29.8033 21.1875 29.9844C21.1875 30.1654 21.3334 30.3125 21.5131 30.3125Z" fill="#A562D9"/>
<path d="M21.5131 32.2812H32.5828C32.7625 32.2812 32.9084 32.1342 32.9084 31.9531C32.9084 31.7721 32.7625 31.625 32.5828 31.625H21.5131C21.3334 31.625 21.1875 31.7721 21.1875 31.9531C21.1875 32.1342 21.3334 32.2812 21.5131 32.2812Z" fill="#A562D9"/>
</g>
<rect x="0.635254" y="0.729056" width="56.094" height="56.094" rx="9.5" stroke="#D6D6D6"/>
<defs>
<filter id="filter0_b_3025_15606" x="-71.2323" y="-71.1385" width="199.829" height="199.829" filterUnits="userSpaceOnUse" color-interpolation-filters="sRGB">
<feFlood flood-opacity="0" result="BackgroundImageFix"/>
<feGaussianBlur in="BackgroundImageFix" stdDeviation="35.6838"/>
<feComposite in2="SourceAlpha" operator="in" result="effect1_backgroundBlur_3025_15606"/>
<feBlend mode="normal" in="SourceGraphic" in2="effect1_backgroundBlur_3025_15606" result="shape"/>
</filter>
<clipPath id="clip0_3025_15606">
<rect x="0.135254" y="0.229056" width="57.094" height="57.094" rx="10" fill="white"/>
</clipPath>
</defs>
</svg>
