<svg width="58" height="58" viewBox="0 0 58 58" fill="none" xmlns="http://www.w3.org/2000/svg">
<g clip-path="url(#clip0_3025_15621)">
<g filter="url(#filter0_b_3025_15621)">
<rect x="0.135254" y="0.458107" width="57.094" height="57.094" rx="11.4188" fill="white"/>
<rect x="0.492092" y="0.814945" width="56.3803" height="56.3803" rx="11.062" stroke="white" stroke-width="0.713675"/>
</g>
<path d="M26.8906 13.1179C26.3984 13.2726 26.0398 13.575 25.7937 14.039C25.6812 14.2429 25.6531 14.4961 25.625 15.614L25.5898 16.9359L25.0273 17.1398C24.718 17.2523 24.2188 17.4633 23.9164 17.6039L23.368 17.857L22.475 16.9781C21.4977 16.0078 21.2586 15.8672 20.6398 15.8672C19.9648 15.8672 19.6977 16.05 18.1578 17.6039C16.85 18.9258 16.7727 19.0172 16.6602 19.4109C16.4211 20.2265 16.6109 20.6414 17.7641 21.8156L18.5938 22.6664L18.2844 23.3273C18.1086 23.6929 17.9117 24.1781 17.8273 24.4101L17.6867 24.832L16.3648 24.8672C15.1836 24.9023 15.0148 24.9234 14.7617 25.057C14.3961 25.2539 14.1359 25.5281 13.9602 25.9219C13.8266 26.2172 13.8125 26.3789 13.8125 28.214C13.8125 30.3586 13.8406 30.5414 14.1992 31.0195C14.4102 31.2937 15.0078 31.6172 15.3031 31.6172H15.5V31.0547C15.5 30.5976 15.4789 30.4922 15.3945 30.4922C15.3312 30.4922 15.2047 30.4148 15.1133 30.3164L14.9375 30.1476V28.2562C14.9375 26.2594 14.9234 26.3508 15.2398 26.0484C15.2469 26.0414 15.9922 26.0133 16.8922 25.9922L18.5375 25.957L18.7625 25.2187C19.0227 24.375 19.3109 23.7 19.7258 22.9687L20.0141 22.4554L18.868 21.3094C17.8133 20.2547 17.7219 20.1422 17.7219 19.9101C17.7219 19.6781 17.8203 19.5586 19.0508 18.3281C20.7875 16.5844 20.5414 16.6054 22.0742 18.1172L23.2133 19.2492L24.0289 18.8203C24.9008 18.3633 25.6953 18.0469 26.3492 17.9062L26.75 17.8148V16.1906C26.757 14.489 26.7641 14.4258 27.0805 14.264C27.2844 14.1515 30.6805 14.1445 30.9195 14.257C31.2219 14.3906 31.25 14.5804 31.25 16.2469V17.8219L31.5102 17.8711C32.0797 17.9765 33.0922 18.3633 33.943 18.8062L34.843 19.2703L35.982 18.1312C37.0227 17.0906 37.1422 16.9922 37.3672 16.9922C37.5922 16.9922 37.7258 17.1047 38.9492 18.3281C40.1797 19.5586 40.2781 19.6781 40.2781 19.9101C40.2781 20.1422 40.1867 20.2547 39.132 21.3094L37.9859 22.4554L38.3023 23.0109C38.6891 23.6789 39.0617 24.5719 39.2937 25.3664L39.4625 25.957L41.0656 25.9922C41.9516 26.0133 42.725 26.0554 42.7883 26.0836C43.0344 26.2031 43.0625 26.4562 43.0625 28.3195V30.1476L42.8867 30.3164C42.7953 30.4148 42.6687 30.4922 42.6055 30.4922C42.5211 30.4922 42.5 30.5976 42.5 31.0547V31.6172H42.6969C42.9852 31.6101 43.4281 31.3851 43.7164 31.0898C44.1523 30.6398 44.1875 30.4359 44.1875 28.214C44.1875 26.3789 44.1734 26.2172 44.0398 25.9219C43.8641 25.5281 43.6039 25.2539 43.2383 25.057C42.9852 24.9234 42.8164 24.9023 41.6352 24.8672L40.3133 24.832L40.1727 24.4101C40.0883 24.1781 39.8914 23.6929 39.7156 23.3273L39.4062 22.6664L40.2359 21.8156C41.3891 20.6414 41.5789 20.2265 41.3398 19.4109C41.2273 19.0172 41.15 18.9258 39.8422 17.6039C38.3023 16.05 38.0352 15.8672 37.3602 15.8672C36.7414 15.8672 36.5023 16.0078 35.525 16.9781L34.625 17.864L34.0133 17.5687C33.6687 17.407 33.1766 17.2031 32.9023 17.1117L32.4102 16.9429L32.375 15.614C32.3398 14.1586 32.2836 13.9547 31.8336 13.5398C31.3625 13.0969 31.3344 13.0898 29.1055 13.0758C27.9875 13.0687 26.9891 13.0898 26.8906 13.1179Z" fill="#A562D9"/>
<path d="M27.9806 20.4445C25.8993 20.7047 23.8181 21.9562 22.6087 23.6719C21.7509 24.8953 21.2728 26.189 21.1532 27.6726L21.104 28.2422H21.6806H22.2501V27.9679C22.2501 27.8203 22.2993 27.4336 22.3556 27.1101C22.7774 24.6703 24.5071 22.6594 26.8556 21.8578C27.5868 21.6117 28.0931 21.5344 29.0001 21.5344C30.4485 21.5344 31.5806 21.8789 32.797 22.6804C34.4001 23.7422 35.5603 25.7179 35.722 27.6867L35.7712 28.2422H36.3337H36.8962L36.847 27.6726C36.4673 23.1445 32.4735 19.882 27.9806 20.4445Z" fill="#A562D9"/>
<path d="M28.3323 26.0765C27.3761 26.2594 26.3847 27.0328 25.9698 27.9258C25.1261 29.7258 26.005 31.8844 27.8612 32.5453C29.4503 33.1148 31.2503 32.3906 31.9956 30.8719C32.6565 29.5429 32.4104 28.0523 31.3628 27.0117C30.519 26.175 29.4784 25.8586 28.3323 26.0765ZM29.9425 27.3562C30.4065 27.5672 30.8003 27.9679 31.0323 28.4531C31.2854 28.9945 31.2925 29.8031 31.0394 30.3164C30.3503 31.7226 28.5573 32.0601 27.4464 30.9773C26.9542 30.4992 26.7854 30.1054 26.7854 29.4023C26.7854 28.9383 26.8206 28.7695 26.9683 28.4531C27.5097 27.307 28.8104 26.8289 29.9425 27.3562Z" fill="#A562D9"/>
<path d="M18.7698 28.3265C17.8136 28.5094 16.8222 29.2828 16.4073 30.1758C15.5636 31.9758 16.4425 34.1344 18.2987 34.7953C19.8878 35.3648 21.6878 34.6406 22.4331 33.1219C23.094 31.7929 22.8479 30.3023 21.8003 29.2617C20.9565 28.425 19.9159 28.1086 18.7698 28.3265ZM20.38 29.6062C20.844 29.8172 21.2378 30.2179 21.4698 30.7031C21.7229 31.2445 21.73 32.0531 21.4769 32.5664C20.7878 33.9726 18.9948 34.3101 17.8839 33.2273C17.3917 32.7492 17.2229 32.3554 17.2229 31.6523C17.2229 31.1883 17.2581 31.0195 17.4058 30.7031C17.9472 29.557 19.2479 29.0789 20.38 29.6062Z" fill="#A562D9"/>
<path d="M37.8948 28.3265C36.9386 28.5094 35.9472 29.2828 35.5323 30.1758C34.6886 31.9758 35.5675 34.1344 37.4237 34.7953C39.0128 35.3648 40.8128 34.6406 41.5581 33.1219C42.219 31.7929 41.9729 30.3023 40.9253 29.2617C40.0815 28.425 39.0409 28.1086 37.8948 28.3265ZM39.505 29.6062C39.969 29.8172 40.3628 30.2179 40.5948 30.7031C40.8479 31.2445 40.855 32.0531 40.6019 32.5664C39.9128 33.9726 38.1198 34.3101 37.0089 33.2273C36.5167 32.7492 36.3479 32.3554 36.3479 31.6523C36.3479 31.1883 36.3831 31.0195 36.5308 30.7031C37.0722 29.557 38.3729 29.0789 39.505 29.6062Z" fill="#A562D9"/>
<path d="M25.9697 33.375C24.7744 33.5578 23.6705 34.1906 22.883 35.1398L22.5174 35.5758L19.733 35.5617C16.7236 35.5476 16.147 35.5969 15.3595 35.9203C13.7002 36.5953 12.5541 37.9804 12.2236 39.689C12.083 40.4273 12.09 43.1625 12.2306 43.7742C12.4838 44.8289 13.2572 45.8273 14.2064 46.3265C15.0994 46.7976 15.1767 46.8047 18.608 46.8047H21.6877V46.2422V45.6797H19.1564H16.6252V42.5859V39.4922H16.0627H15.5002V42.5578V45.6234L15.3103 45.5742C14.6564 45.4195 13.8338 44.7375 13.5455 44.1117C13.2713 43.5351 13.2361 43.1625 13.2642 41.4398C13.2924 39.9 13.3064 39.7804 13.4752 39.3375C13.9744 38.0226 15.0713 37.0664 16.4002 36.7851C16.7588 36.7078 17.483 36.6797 19.4306 36.6797H21.983L21.9408 36.8344C21.6947 37.6711 21.6806 37.9523 21.7017 41.3133C21.7228 44.4492 21.7299 44.6812 21.8634 44.9976C22.1799 45.7711 22.883 46.425 23.6494 46.664C24.008 46.7765 24.2963 46.8047 25.14 46.8047H26.1877V42.3047V37.8047H25.6252H25.0627V41.7422V45.6797H24.5845C23.7619 45.6797 23.1642 45.2648 22.9111 44.5265C22.8197 44.2664 22.8056 43.6898 22.8267 40.8914L22.8478 37.5586L23.0306 37.0875C23.1291 36.8273 23.3189 36.4617 23.4384 36.2648C23.7619 35.7656 24.4861 35.1117 25.0064 34.8586C25.8291 34.4508 26.1947 34.4156 29.2463 34.4437C31.897 34.4648 32.0025 34.4719 32.4455 34.6265C33.0713 34.8515 33.465 35.0906 33.9361 35.5406C34.4213 35.9976 34.7236 36.4547 34.9697 37.0875L35.1525 37.5586L35.1736 40.8844C35.1947 44.6179 35.1947 44.6601 34.7166 45.1523C34.3509 45.525 33.9783 45.6797 33.4158 45.6797H32.9377V41.7422V37.8047H32.3752H31.8127V42.3117V46.8187L32.9939 46.7906C34.4705 46.7554 34.7939 46.65 35.4338 46.0031C35.8908 45.5461 36.1299 45.1242 36.2494 44.5617C36.2986 44.3367 36.3127 43.0289 36.2986 40.8492C36.2775 37.9172 36.2564 37.4461 36.1509 37.1367C36.0877 36.9398 36.0314 36.764 36.0314 36.7289C36.0314 36.7008 37.1775 36.6797 38.5838 36.6797C40.5174 36.6797 41.2416 36.7078 41.6002 36.7851C42.9502 37.0664 44.0963 38.0859 44.5533 39.4078C44.708 39.8508 44.715 39.9773 44.715 41.714V43.5422L44.4478 44.0765C44.0752 44.8359 43.4072 45.4054 42.697 45.5742L42.5002 45.6234V42.5578V39.4922H41.9377H41.3752V42.5859V45.6797H38.8439H36.3127V46.2422V46.8117L39.5681 46.7906C42.8025 46.7695 42.8166 46.7695 43.2384 46.6008C43.822 46.3687 44.5533 45.8765 44.8908 45.4828C45.2845 45.0187 45.6502 44.2875 45.7697 43.732C45.9174 43.0359 45.9103 40.3711 45.7627 39.6469C45.4111 37.9242 44.2931 36.5953 42.6408 35.9203C41.8533 35.5969 41.2767 35.5476 38.2674 35.5617L35.483 35.5758L35.1244 35.1539C34.4845 34.3804 33.8095 33.9234 32.7689 33.5648L32.1291 33.3398L29.2463 33.3328C27.6642 33.3258 26.1877 33.3469 25.9697 33.375Z" fill="#A562D9"/>
<path d="M26.75 46.2422V46.8047H29H31.25V46.2422V45.6797H29H26.75V46.2422Z" fill="#A562D9"/>
</g>
<rect x="0.635254" y="0.958107" width="56.094" height="56.094" rx="9.5" stroke="#D6D6D6"/>
<defs>
<filter id="filter0_b_3025_15621" x="-71.2323" y="-70.9094" width="199.829" height="199.829" filterUnits="userSpaceOnUse" color-interpolation-filters="sRGB">
<feFlood flood-opacity="0" result="BackgroundImageFix"/>
<feGaussianBlur in="BackgroundImageFix" stdDeviation="35.6838"/>
<feComposite in2="SourceAlpha" operator="in" result="effect1_backgroundBlur_3025_15621"/>
<feBlend mode="normal" in="SourceGraphic" in2="effect1_backgroundBlur_3025_15621" result="shape"/>
</filter>
<clipPath id="clip0_3025_15621">
<rect x="0.135254" y="0.458107" width="57.094" height="57.094" rx="10" fill="white"/>
</clipPath>
</defs>
</svg>
