<svg width="58" height="58" viewBox="0 0 58 58" fill="none" xmlns="http://www.w3.org/2000/svg">
<g clip-path="url(#clip0_3025_15593)">
<g filter="url(#filter0_b_3025_15593)">
<rect x="0.135254" width="57.094" height="57.094" rx="11.4188" fill="white"/>
<rect x="0.492092" y="0.356838" width="56.3803" height="56.3803" rx="11.062" stroke="white" stroke-width="0.713675"/>
</g>
<path d="M41.7835 32.9706C38.7133 32.9706 36.215 35.5164 36.215 38.6453C36.215 41.7745 38.7133 44.3203 41.7835 44.3203C44.8536 44.3203 47.352 41.7745 47.352 38.6453C47.352 35.5164 44.8536 32.9706 41.7835 32.9706ZM41.7835 43.5036C39.155 43.5036 37.0169 41.3243 37.0169 38.6456C37.0169 35.9669 39.1553 33.7876 41.7835 33.7876C44.4119 33.7876 46.5503 35.9666 46.5503 38.6453C46.5503 41.3243 44.4119 43.5036 41.7835 43.5036ZM44.5735 38.6453C44.5735 38.871 44.394 39.0536 44.1725 39.0536H41.7834C41.5623 39.0536 41.3825 38.871 41.3825 38.6453V34.9546C41.3825 34.729 41.562 34.5463 41.7834 34.5463C42.0046 34.5463 42.1844 34.729 42.1844 34.9546V38.237H44.1728C44.3939 38.237 44.5735 38.4199 44.5735 38.6453L44.5735 38.6453ZM42.1844 31.3036V18.8073C42.1844 18.0435 41.5741 17.4219 40.8246 17.4219H38.9755V16.3539C38.9755 15.6073 38.3796 15 37.6466 15H37.3094C36.577 15 35.9808 15.6073 35.9808 16.3539V17.4219H32.7179V16.3539C32.7179 15.6073 32.122 15 31.3893 15H31.0518C30.3194 15 29.7233 15.6073 29.7233 16.3539V17.4219H26.4606V16.3539C26.4606 15.6073 25.8647 15 25.1318 15H24.7945C24.0619 15 23.4657 15.6073 23.4657 16.3539V17.4219H20.203V16.3539C20.203 15.6073 19.6071 15 18.8745 15H18.5372C17.8046 15 17.2084 15.6073 17.2084 16.3539V17.4219H15.3597C14.6103 17.4219 14 18.0435 14 18.8073V40.9719C14 41.736 14.6102 42.3574 15.3597 42.3574H35.5575C36.8119 44.5342 39.1324 46 41.7834 46C45.7624 46 49 42.7011 49 38.6461C49 34.7281 45.9778 31.5165 42.1846 31.3037L42.1844 31.3036ZM36.7827 16.3541C36.7827 16.0579 37.0187 15.8168 37.3093 15.8168H37.6466C37.9372 15.8168 38.1735 16.0576 38.1735 16.3541V19.1503C38.1735 19.4465 37.9372 19.6873 37.6466 19.6873H37.3093C37.0187 19.6873 36.7827 19.4465 36.7827 19.1503V16.3541ZM30.5253 16.3541C30.5253 16.0579 30.7614 15.8168 31.052 15.8168H31.3895C31.6801 15.8168 31.9162 16.0576 31.9162 16.3541V19.1503C31.9162 19.4465 31.6801 19.6873 31.3895 19.6873H31.052C30.7613 19.6873 30.5253 19.4465 30.5253 19.1503V16.3541ZM24.2677 16.3541C24.2677 16.0579 24.504 15.8168 24.7946 15.8168H25.1319C25.4225 15.8168 25.6588 16.0576 25.6588 16.3541V19.1503C25.6588 19.4465 25.4225 19.6873 25.1319 19.6873H24.7946C24.504 19.6873 24.2677 19.4465 24.2677 19.1503V16.3541ZM18.0106 16.3541C18.0106 16.0579 18.2469 15.8168 18.5376 15.8168H18.8748C19.1655 15.8168 19.4015 16.0576 19.4015 16.3541V19.1503C19.4015 19.4465 19.1654 19.6873 18.8748 19.6873H18.5376C18.2469 19.6873 18.0106 19.4465 18.0106 19.1503V16.3541ZM15.3595 18.2389H17.2087V19.1505C17.2087 19.8972 17.8046 20.5045 18.5375 20.5045H18.8748C19.6072 20.5045 20.2033 19.8972 20.2033 19.1505V18.2389H23.466V19.1505C23.466 19.8972 24.0619 20.5045 24.7948 20.5045H25.1321C25.8647 20.5045 26.4609 19.8972 26.4609 19.1505V18.2389H29.7236V19.1505C29.7236 19.8972 30.3195 20.5045 31.0521 20.5045H31.3896C32.122 20.5045 32.7182 19.8972 32.7182 19.1505V18.2389H35.9811V19.1505C35.9811 19.8972 36.577 20.5045 37.3097 20.5045H37.6469C38.3796 20.5045 38.9757 19.8972 38.9757 19.1505V18.2389H40.8249C41.1326 18.2389 41.3827 18.4941 41.3827 18.8074V23.412L14.8013 23.4123V18.8077C14.8013 18.4941 15.0514 18.2389 15.3592 18.2389H15.3595ZM35.1486 41.5409H15.3595C15.0518 41.5409 14.8017 41.2857 14.8017 40.9721V24.2291H41.3824L41.3821 31.3035C41.3126 31.3075 41.244 31.3145 41.175 31.3204C41.129 31.3243 41.0827 31.3269 41.0372 31.3316C40.9484 31.3409 40.8604 31.3533 40.7724 31.3659C40.7427 31.3701 40.7123 31.373 40.6828 31.3777C40.5656 31.396 40.4495 31.4174 40.3343 31.4412C40.2982 31.4488 40.2626 31.4584 40.2265 31.4665C40.1479 31.4842 40.069 31.5017 39.9915 31.5219C39.9447 31.5343 39.8983 31.5486 39.8517 31.5618C39.7858 31.5803 39.7199 31.5983 39.6548 31.6188C39.6052 31.6346 39.5564 31.6523 39.5073 31.6689C39.4466 31.6894 39.3854 31.7096 39.3253 31.7318C39.2746 31.7506 39.2249 31.7712 39.175 31.7911C39.1174 31.8139 39.0598 31.8361 39.003 31.8605C38.9525 31.8822 38.9031 31.9055 38.8532 31.928C38.7981 31.953 38.7424 31.9777 38.6881 32.0041C38.6806 32.0078 38.6726 32.0109 38.6652 32.0148V31.8532C38.6652 31.6276 38.4857 31.4449 38.2642 31.4449H35.6179C35.3967 31.4449 35.2169 31.6276 35.2169 31.8532V33.8954C35.2169 34.1211 35.3965 34.3038 35.6179 34.3038H35.9639C35.9617 34.3066 35.9598 34.3097 35.9579 34.3128C35.9237 34.3605 35.89 34.4089 35.857 34.4575C35.8252 34.5039 35.7938 34.5505 35.7632 34.5977C35.7307 34.6475 35.6992 34.698 35.6681 34.7489C35.6386 34.7967 35.6093 34.8447 35.5809 34.8934C35.5509 34.9448 35.5216 34.997 35.493 35.0493C35.4657 35.0985 35.4386 35.1477 35.4124 35.1977C35.3846 35.2511 35.3578 35.3053 35.3311 35.3593C35.3063 35.4096 35.2815 35.4596 35.258 35.5105C35.2324 35.5658 35.2081 35.6221 35.1836 35.678C35.1615 35.7291 35.1389 35.78 35.1179 35.8317C35.0945 35.8887 35.0727 35.9466 35.0509 36.0045C35.0311 36.0565 35.0112 36.1082 34.9925 36.1611C34.9715 36.2203 34.9522 36.2805 34.9329 36.3403C34.9161 36.3923 34.8984 36.4443 34.8827 36.4969C34.8643 36.5584 34.8477 36.6211 34.8306 36.6835C34.8163 36.736 34.8014 36.788 34.7881 36.8408C34.7724 36.9044 34.7586 36.9684 34.7446 37.0328C34.733 37.0853 34.7203 37.1379 34.7098 37.191C34.6966 37.2579 34.6858 37.3253 34.6743 37.3928C34.6654 37.4442 34.6558 37.4951 34.6481 37.5468C34.6376 37.6176 34.6299 37.6893 34.6213 37.7606C34.6155 37.8101 34.6084 37.859 34.6034 37.9087C34.5954 37.9894 34.5904 38.0706 34.5852 38.1518C34.5824 38.1929 34.5783 38.2336 34.5764 38.2752C34.5703 38.3983 34.567 38.5222 34.567 38.647C34.567 39.4114 34.6823 40.1488 34.8957 40.8424C34.9117 40.8946 34.9304 40.9463 34.9475 40.9983C34.9674 41.0579 34.9859 41.1181 35.0071 41.1768C35.0509 41.299 35.0978 41.4207 35.1483 41.5413L35.1486 41.5409ZM37.8639 32.4705C37.4224 32.7619 37.0126 33.1028 36.6418 33.4866H36.0195V32.2614H37.864L37.8639 32.4705ZM41.7834 45.1833C39.2542 45.1833 37.0628 43.6832 36.0191 41.5106C36.0125 41.4968 36.0053 41.4836 35.999 41.4699C35.9662 41.4002 35.9356 41.3293 35.905 41.2585C35.8859 41.2138 35.8669 41.1692 35.8487 41.1239C35.825 41.0652 35.8021 41.0062 35.7801 40.9469C35.7541 40.8766 35.7299 40.8058 35.7064 40.7347C35.6932 40.6948 35.6791 40.6552 35.6667 40.615C35.63 40.4967 35.5964 40.3772 35.5663 40.2567C35.5641 40.2474 35.5622 40.2381 35.56 40.2289C35.5324 40.1156 35.5079 40.0018 35.4864 39.8871C35.4811 39.8588 35.4764 39.8304 35.4715 39.802C35.4547 39.7056 35.4398 39.6086 35.4271 39.5114C35.4227 39.4777 35.4183 39.4437 35.4144 39.4097C35.4034 39.3144 35.3951 39.2189 35.3882 39.1233C35.386 39.0907 35.3827 39.0581 35.3808 39.0252C35.3736 38.899 35.3692 38.7726 35.3692 38.6458C35.3692 36.8572 36.0781 35.2348 37.2241 34.0531C37.2437 34.0328 37.2636 34.0129 37.2834 33.9929C37.48 33.7954 37.689 33.6107 37.9094 33.4402C37.932 33.4227 37.9543 33.405 37.9772 33.3879C38.0481 33.3345 38.12 33.2819 38.1931 33.2314C38.2086 33.2207 38.2246 33.2108 38.24 33.2002C39.2562 32.5111 40.4744 32.1087 41.7836 32.1087C45.3207 32.1087 48.1981 35.0415 48.1981 38.6458C48.1978 42.2508 45.3204 45.1833 41.7834 45.1833L41.7834 45.1833ZM20.0051 26.7475H17.3587C17.1376 26.7475 16.9578 26.9301 16.9578 27.1558V29.198C16.9578 29.4237 17.1373 29.6063 17.3587 29.6063H20.0051C20.2262 29.6063 20.406 29.4237 20.406 29.198V27.1558C20.406 26.9304 20.2262 26.7475 20.0051 26.7475ZM19.6041 28.7897H17.7596V27.5644H19.6041V28.7897ZM26.0917 26.7475H23.4453C23.2242 26.7475 23.0444 26.9301 23.0444 27.1558V29.198C23.0444 29.4237 23.2239 29.6063 23.4453 29.6063H26.0917C26.3128 29.6063 26.4926 29.4237 26.4926 29.198V27.1558C26.4923 26.9304 26.3128 26.7475 26.0917 26.7475ZM25.6907 28.7897H23.8462V27.5644H25.6907V28.7897ZM32.178 26.7475H29.5316C29.3105 26.7475 29.1307 26.9301 29.1307 27.1558V29.198C29.1307 29.4237 29.3102 29.6063 29.5316 29.6063H32.178C32.3991 29.6063 32.5789 29.4237 32.5789 29.198V27.1558C32.5789 26.9304 32.3991 26.7475 32.178 26.7475ZM31.777 28.7897H29.9325V27.5644H31.777V28.7897ZM35.6185 29.6064H38.2649C38.486 29.6064 38.6658 29.4237 38.6658 29.198V27.1558C38.6658 26.9302 38.4863 26.7475 38.2649 26.7475H35.6185C35.3974 26.7475 35.2176 26.9302 35.2176 27.1558V29.198C35.2176 29.4237 35.3974 29.6064 35.6185 29.6064ZM36.0195 27.5644H37.864V28.7897H36.0195V27.5644ZM20.005 31.4443H17.3586C17.1375 31.4443 16.9577 31.6269 16.9577 31.8526V33.8948C16.9577 34.1205 17.1372 34.3031 17.3586 34.3031H20.005C20.2261 34.3031 20.4059 34.1205 20.4059 33.8948V31.8529C20.4059 31.6272 20.2261 31.4443 20.005 31.4443V31.4443ZM19.604 33.4865H17.7595V32.2612H19.604V33.4865ZM26.0916 31.4443H23.4452C23.2241 31.4443 23.0443 31.6269 23.0443 31.8526V33.8948C23.0443 34.1205 23.2238 34.3031 23.4452 34.3031H26.0916C26.3127 34.3031 26.4925 34.1205 26.4925 33.8948L26.4922 31.8529C26.4922 31.6272 26.3127 31.4443 26.0916 31.4443V31.4443ZM25.6906 33.4865H23.8461V32.2612H25.6906V33.4865ZM32.1779 31.4443H29.5315C29.3104 31.4443 29.1306 31.6269 29.1306 31.8526V33.8948C29.1306 34.1205 29.3101 34.3031 29.5315 34.3031H32.1779C32.399 34.3031 32.5788 34.1205 32.5788 33.8948V31.8529C32.5788 31.6272 32.399 31.4443 32.1779 31.4443V31.4443ZM31.7769 33.4865H29.9324V32.2612H31.7769V33.4865ZM20.005 36.1413H17.3587C17.1375 36.1413 16.9577 36.324 16.9577 36.5496V38.5915C16.9577 38.8172 17.1372 38.9999 17.3587 38.9999H20.005C20.2262 38.9999 20.406 38.8172 20.406 38.5915V36.5496C20.406 36.324 20.2262 36.1413 20.005 36.1413ZM19.6041 38.1832H17.7596V36.958H19.6041V38.1832ZM26.0916 36.1413H23.4453C23.2241 36.1413 23.0443 36.324 23.0443 36.5496V38.5915C23.0443 38.8172 23.2238 38.9999 23.4453 38.9999H26.0916C26.3128 38.9999 26.4926 38.8172 26.4926 38.5915V36.5496C26.4923 36.324 26.3128 36.1413 26.0916 36.1413ZM25.6907 38.1832H23.8462V36.958H25.6907V38.1832ZM32.1779 36.1413H29.5316C29.3104 36.1413 29.1307 36.324 29.1307 36.5496V38.5915C29.1307 38.8172 29.3102 38.9999 29.5316 38.9999H32.1779C32.3991 38.9999 32.5789 38.8172 32.5789 38.5915V36.5496C32.5789 36.324 32.3991 36.1413 32.1779 36.1413ZM31.777 38.1832H29.9325V36.958H31.777V38.1832Z" fill="#A562D9"/>
</g>
<rect x="0.635254" y="0.5" width="56.094" height="56.094" rx="9.5" stroke="#D6D6D6"/>
<defs>
<filter id="filter0_b_3025_15593" x="-71.2323" y="-71.3675" width="199.829" height="199.829" filterUnits="userSpaceOnUse" color-interpolation-filters="sRGB">
<feFlood flood-opacity="0" result="BackgroundImageFix"/>
<feGaussianBlur in="BackgroundImageFix" stdDeviation="35.6838"/>
<feComposite in2="SourceAlpha" operator="in" result="effect1_backgroundBlur_3025_15593"/>
<feBlend mode="normal" in="SourceGraphic" in2="effect1_backgroundBlur_3025_15593" result="shape"/>
</filter>
<clipPath id="clip0_3025_15593">
<rect x="0.135254" width="57.094" height="57.094" rx="10" fill="white"/>
</clipPath>
</defs>
</svg>
