<svg width="34" height="33" viewBox="0 0 34 33" fill="none" xmlns="http://www.w3.org/2000/svg">
<g clip-path="url(#clip0_1575_8650)">
<path d="M26.2996 1.59063L9.70725 18.1829C9.07353 18.8132 8.57113 19.563 8.22914 20.3888C7.88714 21.2146 7.71235 22.1 7.71487 22.9938V24.8215C7.71487 25.1824 7.85825 25.5286 8.11347 25.7838C8.3687 26.039 8.71485 26.1824 9.07579 26.1824H10.9035C11.7973 26.1849 12.6827 26.0101 13.5085 25.6681C14.3343 25.3261 15.084 24.8237 15.7143 24.19L32.3066 7.59772C33.102 6.80046 33.5486 5.7203 33.5486 4.59418C33.5486 3.46805 33.102 2.3879 32.3066 1.59063C31.4978 0.817488 30.422 0.386017 29.3031 0.386017C28.1842 0.386017 27.1084 0.817488 26.2996 1.59063ZM30.3823 5.67339L13.79 22.2657C13.0226 23.0284 11.9854 23.4577 10.9035 23.4606H10.4367V22.9938C10.4395 21.9118 10.8689 20.8747 11.6316 20.1073L28.2239 3.51497C28.5146 3.23728 28.9011 3.08233 29.3031 3.08233C29.7051 3.08233 30.0916 3.23728 30.3823 3.51497C30.668 3.80146 30.8285 4.18956 30.8285 4.59418C30.8285 4.99879 30.668 5.38689 30.3823 5.67339Z" fill="black"/>
<path d="M32.2114 12.5447C31.8504 12.5447 31.5043 12.6881 31.2491 12.9433C30.9938 13.1985 30.8505 13.5447 30.8505 13.9056V20.7388H25.4068C24.324 20.7388 23.2855 21.1689 22.5198 21.9346C21.7542 22.7003 21.324 23.7387 21.324 24.8215V30.2652H7.71486C6.63205 30.2652 5.59359 29.8351 4.82792 29.0694C4.06226 28.3037 3.63211 27.2653 3.63211 26.1825V7.12961C3.63211 6.0468 4.06226 5.00834 4.82792 4.24267C5.59359 3.47701 6.63205 3.04686 7.71486 3.04686H20.0203C20.3812 3.04686 20.7274 2.90348 20.9826 2.64826C21.2378 2.39304 21.3812 2.04688 21.3812 1.68594C21.3812 1.32501 21.2378 0.978853 20.9826 0.723631C20.7274 0.468409 20.3812 0.325027 20.0203 0.325027L7.71486 0.325027C5.91084 0.327188 4.18132 1.04479 2.90568 2.32043C1.63004 3.59607 0.912439 5.32559 0.910278 7.12961L0.910278 26.1825C0.912439 27.9865 1.63004 29.716 2.90568 30.9916C4.18132 32.2673 5.91084 32.9849 7.71486 32.987H23.1518C24.0458 32.9896 24.9314 32.8148 25.7574 32.4728C26.5834 32.1308 27.3334 31.6284 27.964 30.9947L31.5786 27.3773C32.2124 26.7471 32.715 25.9974 33.0572 25.1716C33.3994 24.3458 33.5745 23.4604 33.5723 22.5665V13.9056C33.5723 13.5447 33.4289 13.1985 33.1737 12.9433C32.9185 12.6881 32.5723 12.5447 32.2114 12.5447ZM26.0396 29.0703C25.4925 29.6161 24.8007 29.9938 24.0459 30.1591V24.8215C24.0459 24.4606 24.1893 24.1144 24.4445 23.8592C24.6997 23.604 25.0459 23.4606 25.4068 23.4606H30.7484C30.58 24.2139 30.2027 24.9045 29.6597 25.453L26.0396 29.0703Z" fill="black"/>
</g>
<defs>
<clipPath id="clip0_1575_8650">
<rect width="32.662" height="32.662" fill="white" transform="translate(0.910278 0.325027)"/>
</clipPath>
</defs>
</svg>
