<svg width="40" height="40" viewBox="0 0 40 40" fill="none" xmlns="http://www.w3.org/2000/svg">
<rect width="40" height="40" rx="10" fill="#EAFBF6"/>
<path d="M22.1277 24.2502H20.1984C18.8335 24.2502 17.7148 23.1302 17.7148 21.7502C17.7148 21.3402 18.0638 21.0002 18.4845 21.0002C18.9053 21.0002 19.2542 21.3402 19.2542 21.7502C19.2542 22.3002 19.675 22.7502 20.1984 22.7502H22.1277C22.5279 22.7502 22.846 22.4002 22.846 21.9702C22.846 21.4302 22.6921 21.3502 22.3432 21.2302L19.2542 20.1802C18.5974 19.9602 17.7148 19.4902 17.7148 18.0202C17.7148 16.7702 18.7308 15.7402 19.9726 15.7402H21.9019C23.2668 15.7402 24.3854 16.8602 24.3854 18.2402C24.3854 18.6502 24.0365 18.9902 23.6157 18.9902C23.195 18.9902 22.846 18.6502 22.846 18.2402C22.846 17.6902 22.4253 17.2402 21.9019 17.2402H19.9726C19.5723 17.2402 19.2542 17.5902 19.2542 18.0202C19.2542 18.5602 19.4081 18.6402 19.757 18.7602L22.846 19.8102C23.5028 20.0302 24.3854 20.5002 24.3854 21.9702C24.3854 23.2302 23.3694 24.2502 22.1277 24.2502Z" fill="#1EA608"/>
<path d="M21.0509 25.25C20.6302 25.25 20.2812 24.91 20.2812 24.5V15.5C20.2812 15.09 20.6302 14.75 21.0509 14.75C21.4717 14.75 21.8206 15.09 21.8206 15.5V24.5C21.8206 24.91 21.4717 25.25 21.0509 25.25Z" fill="#1EA608"/>
<path d="M21.0477 30.75C14.9621 30.75 10.0156 25.93 10.0156 20C10.0156 14.07 14.9621 9.25 21.0477 9.25C21.4685 9.25 21.8174 9.59 21.8174 10C21.8174 10.41 21.4685 10.75 21.0477 10.75C15.8139 10.75 11.555 14.9 11.555 20C11.555 25.1 15.8139 29.25 21.0477 29.25C26.2815 29.25 30.5404 25.1 30.5404 20C30.5404 19.59 30.8893 19.25 31.3101 19.25C31.7308 19.25 32.0798 19.59 32.0798 20C32.0798 25.93 27.1333 30.75 21.0477 30.75Z" fill="#1EA608"/>
<path d="M30.2848 15.75H26.1798C25.7591 15.75 25.4102 15.41 25.4102 15V11C25.4102 10.59 25.7591 10.25 26.1798 10.25C26.6006 10.25 26.9495 10.59 26.9495 11V14.25H30.2848C30.7055 14.25 31.0545 14.59 31.0545 15C31.0545 15.41 30.7055 15.75 30.2848 15.75Z" fill="#1EA608"/>
<path d="M26.1812 15.7504C25.9862 15.7504 25.7912 15.6804 25.6373 15.5304C25.3397 15.2404 25.3397 14.7604 25.6373 14.4704L30.7685 9.47043C31.0661 9.18043 31.5587 9.18043 31.8563 9.47043C32.1539 9.76043 32.1539 10.2404 31.8563 10.5304L26.7251 15.5304C26.5711 15.6804 26.3762 15.7504 26.1812 15.7504Z" fill="#1EA608"/>
</svg>
