<svg width="62" height="62" viewBox="0 0 62 62" fill="none" xmlns="http://www.w3.org/2000/svg">
<path d="M55.1562 2.17847H7.03125C5.7549 2.17847 4.53082 2.68267 3.6283 3.58017C2.72578 4.47767 2.21875 5.69493 2.21875 6.96418V54.8213C2.21875 56.0906 2.72578 57.3078 3.6283 58.2053C4.53082 59.1028 5.7549 59.607 7.03125 59.607H55.1562C56.4326 59.607 57.6567 59.1028 58.5592 58.2053C59.4617 57.3078 59.9687 56.0906 59.9687 54.8213V6.96418C59.9687 5.69493 59.4617 4.47767 58.5592 3.58017C57.6567 2.68267 56.4326 2.17847 55.1562 2.17847Z" stroke="white" stroke-width="4" stroke-linecap="round" stroke-linejoin="round"/>
<path d="M26.2813 42.0595L34.3021 48.4404L47.1354 32.488M15.0521 16.5356H47.1354M15.0521 29.2975H27.8854" stroke="white" stroke-width="4" stroke-linecap="round" stroke-linejoin="round"/>
</svg>
