<svg width="40" height="40" viewBox="0 0 40 40" fill="none" xmlns="http://www.w3.org/2000/svg">
<rect width="40" height="40" rx="10" fill="#FEF0ED"/>
<path d="M21.05 24.2502H19.17C17.84 24.2502 16.75 23.1302 16.75 21.7502C16.75 21.3402 17.09 21.0002 17.5 21.0002C17.91 21.0002 18.25 21.3402 18.25 21.7502C18.25 22.3002 18.66 22.7502 19.17 22.7502H21.05C21.44 22.7502 21.75 22.4002 21.75 21.9702C21.75 21.4302 21.6 21.3502 21.26 21.2302L18.25 20.1802C17.61 19.9502 16.75 19.4902 16.75 18.0202C16.75 16.7702 17.74 15.7402 18.95 15.7402H20.83C22.16 15.7402 23.25 16.8602 23.25 18.2402C23.25 18.6502 22.91 18.9902 22.5 18.9902C22.09 18.9902 21.75 18.6502 21.75 18.2402C21.75 17.6902 21.34 17.2402 20.83 17.2402H18.95C18.56 17.2402 18.25 17.5902 18.25 18.0202C18.25 18.5602 18.4 18.6402 18.74 18.7602L21.75 19.8102C22.39 20.0402 23.25 20.5002 23.25 21.9702C23.25 23.2302 22.26 24.2502 21.05 24.2502Z" fill="#DC292F"/>
<path d="M20 25.25C19.59 25.25 19.25 24.91 19.25 24.5V15.5C19.25 15.09 19.59 14.75 20 14.75C20.41 14.75 20.75 15.09 20.75 15.5V24.5C20.75 24.91 20.41 25.25 20 25.25Z" fill="#DC292F"/>
<path d="M20 30.75C14.07 30.75 9.25 25.93 9.25 20C9.25 14.07 14.07 9.25 20 9.25C20.41 9.25 20.75 9.59 20.75 10C20.75 10.41 20.41 10.75 20 10.75C14.9 10.75 10.75 14.9 10.75 20C10.75 25.1 14.9 29.25 20 29.25C25.1 29.25 29.25 25.1 29.25 20C29.25 19.59 29.59 19.25 30 19.25C30.41 19.25 30.75 19.59 30.75 20C30.75 25.93 25.93 30.75 20 30.75Z" fill="#DC292F"/>
<path d="M30 14.75C29.59 14.75 29.25 14.41 29.25 14V10.75H26C25.59 10.75 25.25 10.41 25.25 10C25.25 9.59 25.59 9.25 26 9.25H30C30.41 9.25 30.75 9.59 30.75 10V14C30.75 14.41 30.41 14.75 30 14.75Z" fill="#DC292F"/>
<path d="M24.9975 15.7504C24.8075 15.7504 24.6175 15.6804 24.4675 15.5304C24.1775 15.2404 24.1775 14.7604 24.4675 14.4704L29.4675 9.47043C29.7575 9.18043 30.2375 9.18043 30.5275 9.47043C30.8175 9.76043 30.8175 10.2404 30.5275 10.5304L25.5275 15.5304C25.3775 15.6804 25.1875 15.7504 24.9975 15.7504Z" fill="#DC292F"/>
</svg>
