<svg width="58" height="58" viewBox="0 0 58 58" fill="none" xmlns="http://www.w3.org/2000/svg">
<path d="M9.21669 57.6667C7.64919 57.6667 6.30684 57.1091 5.18964 55.9938C4.07434 54.8766 3.51669 53.5342 3.51669 51.9667V19.7617C2.70919 19.2392 2.03279 18.5742 1.48749 17.7667C0.940287 16.9592 0.666687 16.0092 0.666687 14.9167V6.36675C0.666687 4.79925 1.22529 3.4569 2.34249 2.3397C3.45779 1.2244 4.79919 0.666748 6.36669 0.666748H51.9667C53.5342 0.666748 54.8765 1.2244 55.9937 2.3397C57.109 3.4569 57.6667 4.79925 57.6667 6.36675V14.9167C57.6667 16.0092 57.3931 16.9592 56.8459 17.7667C56.3006 18.5742 55.6242 19.2392 54.8167 19.7617V51.9667C54.8167 53.5342 54.259 54.8766 53.1437 55.9938C52.0265 57.1091 50.6842 57.6667 49.1167 57.6667H9.21669ZM9.21669 20.6167V51.9667H49.1167V20.6167H9.21669ZM51.9667 14.9167V6.36675H6.36669V14.9167H51.9667ZM23.4667 34.8667H34.8667C35.6742 34.8667 36.3515 34.5931 36.8987 34.0459C37.444 33.5006 37.7167 32.8242 37.7167 32.0167C37.7167 31.2092 37.444 30.5319 36.8987 29.9847C36.3515 29.4394 35.6742 29.1667 34.8667 29.1667H23.4667C22.6592 29.1667 21.9828 29.4394 21.4375 29.9847C20.8903 30.5319 20.6167 31.2092 20.6167 32.0167C20.6167 32.8242 20.8903 33.5006 21.4375 34.0459C21.9828 34.5931 22.6592 34.8667 23.4667 34.8667ZM9.21669 51.9667V20.6167V51.9667Z" fill="white"/>
</svg>
