<svg width="64" height="71" viewBox="0 0 64 71" fill="none" xmlns="http://www.w3.org/2000/svg">
<path d="M2.375 11.5891L32.0899 2.91675L61.775 11.5891V29.3728C61.775 48.064 49.8125 63.0081 32.0799 68.9167C14.3425 63.0097 2.375 48.0607 2.375 29.3646V11.5891Z" stroke="white" stroke-width="4" stroke-linejoin="round"/>
<path d="M32.075 34.2668C36.6314 34.2668 40.325 30.5732 40.325 26.0168C40.325 21.4605 36.6314 17.7668 32.075 17.7668C27.5187 17.7668 23.825 21.4605 23.825 26.0168C23.825 30.5732 27.5187 34.2668 32.075 34.2668Z" stroke="white" stroke-width="4" stroke-linecap="round" stroke-linejoin="round"/>
<path d="M45.275 47.4666C45.275 43.9657 43.8843 40.6083 41.4088 38.1328C38.9333 35.6573 35.5759 34.2666 32.075 34.2666C28.5741 34.2666 25.2167 35.6573 22.7412 38.1328C20.2657 40.6083 18.875 43.9657 18.875 47.4666" stroke="white" stroke-width="4" stroke-linecap="round" stroke-linejoin="round"/>
</svg>
