<svg width="53" height="56" viewBox="0 0 53 56" fill="none" xmlns="http://www.w3.org/2000/svg">
<path d="M22.25 55.75H5.75C4.2375 55.75 2.94225 55.2119 1.86425 54.1358C0.788083 53.0578 0.25 51.7625 0.25 50.25V11.75C0.25 10.2375 0.788083 8.94225 1.86425 7.86425C2.94225 6.78808 4.2375 6.25 5.75 6.25H17.2313C17.7354 4.64583 18.7208 3.32767 20.1875 2.2955C21.6542 1.26517 23.2583 0.75 25 0.75C26.8333 0.75 28.4723 1.26517 29.917 2.2955C31.3598 3.32767 32.3333 4.64583 32.8375 6.25H44.25C45.7625 6.25 47.0578 6.78808 48.1358 7.86425C49.2119 8.94225 49.75 10.2375 49.75 11.75V25.5H44.25V11.75H38.75V14.5C38.75 16.0125 38.2119 17.3068 37.1358 18.383C36.0578 19.461 34.7625 20 33.25 20H16.75C15.2375 20 13.9432 19.461 12.867 18.383C11.789 17.3068 11.25 16.0125 11.25 14.5V11.75H5.75V50.25H22.25V55.75ZM34.625 45.0938L48.2375 31.4813C48.7417 30.9771 49.3833 30.725 50.1625 30.725C50.9417 30.725 51.5833 30.9771 52.0875 31.4813C52.5917 31.9854 52.8438 32.6271 52.8438 33.4062C52.8438 34.1854 52.5917 34.8271 52.0875 35.3312L36.55 50.8688C36 51.4188 35.3583 51.6937 34.625 51.6937C33.8917 51.6937 33.25 51.4188 32.7 50.8688L24.8625 43.0312C24.3583 42.5271 24.1063 41.8854 24.1063 41.1063C24.1063 40.3271 24.3583 39.6854 24.8625 39.1813C25.3667 38.6771 26.0083 38.425 26.7875 38.425C27.5667 38.425 28.2083 38.6771 28.7125 39.1813L34.625 45.0938ZM25 11.75C25.7792 11.75 26.4328 11.486 26.9608 10.958C27.4869 10.4318 27.75 9.77917 27.75 9C27.75 8.22083 27.4869 7.56725 26.9608 7.03925C26.4328 6.51308 25.7792 6.25 25 6.25C24.2208 6.25 23.5682 6.51308 23.042 7.03925C22.514 7.56725 22.25 8.22083 22.25 9C22.25 9.77917 22.514 10.4318 23.042 10.958C23.5682 11.486 24.2208 11.75 25 11.75Z" fill="white"/>
</svg>
