<svg width="76" height="57" viewBox="0 0 76 57" fill="none" xmlns="http://www.w3.org/2000/svg">
<path d="M66.5 4.75C67.7598 4.75 68.968 5.25044 69.8588 6.14124C70.7496 7.03204 71.25 8.24022 71.25 9.5V47.5C71.25 48.7598 70.7496 49.968 69.8588 50.8588C68.968 51.7496 67.7598 52.25 66.5 52.25H9.5C8.24022 52.25 7.03204 51.7496 6.14124 50.8588C5.25044 49.968 4.75 48.7598 4.75 47.5V9.5C4.75 8.24022 5.25044 7.03204 6.14124 6.14124C7.03204 5.25044 8.24022 4.75 9.5 4.75H66.5ZM9.5 0C6.98044 0 4.56408 1.00089 2.78249 2.78249C1.00089 4.56408 0 6.98044 0 9.5L0 47.5C0 50.0196 1.00089 52.4359 2.78249 54.2175C4.56408 55.9991 6.98044 57 9.5 57H66.5C69.0196 57 71.4359 55.9991 73.2175 54.2175C74.9991 52.4359 76 50.0196 76 47.5V9.5C76 6.98044 74.9991 4.56408 73.2175 2.78249C71.4359 1.00089 69.0196 0 66.5 0H9.5Z" fill="white"/>
<path d="M9.5 16.625C9.5 15.9951 9.75022 15.391 10.1956 14.9456C10.641 14.5002 11.2451 14.25 11.875 14.25H21.375C22.0049 14.25 22.609 14.5002 23.0544 14.9456C23.4998 15.391 23.75 15.9951 23.75 16.625V21.375C23.75 22.0049 23.4998 22.609 23.0544 23.0544C22.609 23.4998 22.0049 23.75 21.375 23.75H11.875C11.2451 23.75 10.641 23.4998 10.1956 23.0544C9.75022 22.609 9.5 22.0049 9.5 21.375V16.625ZM9.5 30.875C9.5 30.2451 9.75022 29.641 10.1956 29.1956C10.641 28.7502 11.2451 28.5 11.875 28.5H35.625C36.2549 28.5 36.859 28.7502 37.3044 29.1956C37.7498 29.641 38 30.2451 38 30.875C38 31.5049 37.7498 32.109 37.3044 32.5544C36.859 32.9998 36.2549 33.25 35.625 33.25H11.875C11.2451 33.25 10.641 32.9998 10.1956 32.5544C9.75022 32.109 9.5 31.5049 9.5 30.875ZM9.5 40.375C9.5 39.7451 9.75022 39.141 10.1956 38.6956C10.641 38.2502 11.2451 38 11.875 38H16.625C17.2549 38 17.859 38.2502 18.3044 38.6956C18.7498 39.141 19 39.7451 19 40.375C19 41.0049 18.7498 41.609 18.3044 42.0544C17.859 42.4998 17.2549 42.75 16.625 42.75H11.875C11.2451 42.75 10.641 42.4998 10.1956 42.0544C9.75022 41.609 9.5 41.0049 9.5 40.375ZM23.75 40.375C23.75 39.7451 24.0002 39.141 24.4456 38.6956C24.891 38.2502 25.4951 38 26.125 38H30.875C31.5049 38 32.109 38.2502 32.5544 38.6956C32.9998 39.141 33.25 39.7451 33.25 40.375C33.25 41.0049 32.9998 41.609 32.5544 42.0544C32.109 42.4998 31.5049 42.75 30.875 42.75H26.125C25.4951 42.75 24.891 42.4998 24.4456 42.0544C24.0002 41.609 23.75 41.0049 23.75 40.375ZM38 40.375C38 39.7451 38.2502 39.141 38.6956 38.6956C39.141 38.2502 39.7451 38 40.375 38H45.125C45.7549 38 46.359 38.2502 46.8044 38.6956C47.2498 39.141 47.5 39.7451 47.5 40.375C47.5 41.0049 47.2498 41.609 46.8044 42.0544C46.359 42.4998 45.7549 42.75 45.125 42.75H40.375C39.7451 42.75 39.141 42.4998 38.6956 42.0544C38.2502 41.609 38 41.0049 38 40.375ZM52.25 40.375C52.25 39.7451 52.5002 39.141 52.9456 38.6956C53.391 38.2502 53.9951 38 54.625 38H59.375C60.0049 38 60.609 38.2502 61.0544 38.6956C61.4998 39.141 61.75 39.7451 61.75 40.375C61.75 41.0049 61.4998 41.609 61.0544 42.0544C60.609 42.4998 60.0049 42.75 59.375 42.75H54.625C53.9951 42.75 53.391 42.4998 52.9456 42.0544C52.5002 41.609 52.25 41.0049 52.25 40.375Z" fill="white"/>
</svg>
