<svg width="58" height="58" viewBox="0 0 58 58" fill="none" xmlns="http://www.w3.org/2000/svg">
<g clip-path="url(#clip0_2987_15810)">
<g filter="url(#filter0_b_2987_15810)">
<rect x="0.405029" y="0.174484" width="57.094" height="57.094" rx="11.4188" fill="white"/>
<rect x="0.761867" y="0.531322" width="56.3803" height="56.3803" rx="11.062" stroke="white" stroke-width="0.713675"/>
</g>
<path d="M47.7932 11.4664V10.802C47.7932 9.97882 47.1236 9.30954 46.3007 9.30954H10.4617C9.63852 9.30954 8.96924 9.97912 8.96924 10.802V11.4664C8.96924 12.0784 9.34028 12.6046 9.8685 12.8346V37.0509C9.34024 37.2809 8.96924 37.8067 8.96924 38.4188V39.0835C8.96924 39.9067 9.63882 40.576 10.4617 40.576H27.9364V43.6532C26.9013 43.8602 26.1189 44.7758 26.1189 45.8711C26.1189 47.1185 27.1338 48.1335 28.3809 48.1335C29.6283 48.1335 30.6432 47.1185 30.6432 45.8711C30.6432 44.7761 29.8608 43.8602 28.8254 43.6532V40.576H46.3001C47.1233 40.576 47.7925 39.9064 47.7925 39.0835L47.7932 38.4191C47.7932 37.8071 47.4221 37.2813 46.8939 37.0512V12.8341C47.4221 12.6041 47.7932 12.0788 47.7932 11.4664ZM29.7546 45.8711C29.7546 46.6282 29.1386 47.2442 28.3815 47.2442C27.6245 47.2442 27.0084 46.6281 27.0084 45.8711C27.0084 45.114 27.6245 44.498 28.3815 44.498C29.1386 44.498 29.7546 45.114 29.7546 45.8711ZM10.7584 36.9269V12.9589H46.0054V36.9269H10.7584ZM9.85911 10.8023C9.85911 10.4695 10.1298 10.1988 10.4626 10.1988H46.3017C46.6345 10.1988 46.9052 10.4695 46.9052 10.8023V11.4667C46.9052 11.7995 46.6345 12.0702 46.3017 12.0702H10.4626C10.1298 12.0702 9.85911 11.7995 9.85911 11.4667V10.8023ZM46.9049 39.0843C46.9049 39.4171 46.6342 39.6878 46.3014 39.6878H10.4623C10.1295 39.6878 9.85879 39.4171 9.85879 39.0843L9.8591 38.4199C9.8591 38.0871 10.1298 37.8167 10.4626 37.8167H46.3017C46.6345 37.8167 46.9052 38.0874 46.9052 38.4199L46.9049 39.0843ZM36.1989 16.7536C36.1989 16.508 36.3977 16.3092 36.6433 16.3092H42.4224C42.668 16.3092 42.8668 16.508 42.8668 16.7536C42.8668 16.9992 42.668 17.1981 42.4224 17.1981H36.6433C36.398 17.1984 36.1989 16.9992 36.1989 16.7536ZM36.1989 19.1986C36.1989 18.953 36.3977 18.7541 36.6433 18.7541H42.4224C42.668 18.7541 42.8668 18.953 42.8668 19.1986C42.8668 19.4442 42.668 19.643 42.4224 19.643H36.6433C36.398 19.643 36.1989 19.4442 36.1989 19.1986ZM36.1989 21.6435C36.1989 21.3979 36.3977 21.1991 36.6433 21.1991H42.4224C42.668 21.1991 42.8668 21.3979 42.8668 21.6435C42.8668 21.8892 42.668 22.088 42.4224 22.088H36.6433C36.398 22.088 36.1989 21.8892 36.1989 21.6435ZM36.1989 24.0885C36.1989 23.8429 36.3977 23.6441 36.6433 23.6441H42.4224C42.668 23.6441 42.8668 23.8429 42.8668 24.0885C42.8668 24.3341 42.668 24.533 42.4224 24.533H36.6433C36.398 24.533 36.1989 24.3338 36.1989 24.0885ZM15.2998 23.8475C16.2407 23.8475 17.0063 23.0818 17.0063 22.1409C17.0063 21.8828 16.947 21.639 16.8442 21.4197L19.0848 19.8994C19.3839 20.1576 19.7724 20.3151 20.1979 20.3151C20.6555 20.3151 21.0709 20.1331 21.3777 19.8386L23.4965 21.3447C23.4283 21.5288 23.3892 21.7271 23.3892 21.9348C23.3892 22.8757 24.1548 23.6413 25.096 23.6413C26.0369 23.6413 26.8025 22.8757 26.8025 21.9348C26.8025 21.6564 26.7343 21.3943 26.6156 21.1618L28.9574 19.3681C29.2453 19.5893 29.6041 19.722 29.9941 19.722C30.9353 19.722 31.7006 18.9564 31.7006 18.0155C31.7006 17.0742 30.935 16.3089 29.9941 16.3089C29.0528 16.3089 28.2875 17.0746 28.2875 18.0155C28.2875 18.2446 28.3337 18.4633 28.416 18.663L26.0176 20.5002C25.7515 20.3286 25.4358 20.2279 25.0962 20.2279C24.6842 20.2279 24.3058 20.3748 24.0107 20.6186L21.8383 19.0741C21.8805 18.9258 21.9047 18.7695 21.9047 18.6076C21.9047 17.6664 21.1391 16.9011 20.1982 16.9011C19.2569 16.9011 18.4916 17.6667 18.4916 18.6076C18.4916 18.8022 18.5259 18.9885 18.5862 19.1625L16.2676 20.7354C15.9923 20.5451 15.6592 20.4332 15.3001 20.4332C14.3589 20.4332 13.5933 21.1988 13.5933 22.1397C13.593 23.0818 14.3586 23.8475 15.2998 23.8475ZM29.9939 17.1982C30.4448 17.1982 30.8115 17.5649 30.8115 18.0158C30.8115 18.4663 30.4448 18.8331 29.9939 18.8331C29.543 18.8331 29.1763 18.4664 29.1763 18.0158C29.1763 17.5649 29.5431 17.1982 29.9939 17.1982ZM25.0958 21.1175C25.5464 21.1175 25.9132 21.4842 25.9132 21.9351C25.9132 22.3856 25.5464 22.7524 25.0958 22.7524C24.6449 22.7524 24.2782 22.3857 24.2782 21.9351C24.2782 21.4842 24.645 21.1175 25.0958 21.1175ZM20.1977 17.791C20.6482 17.791 21.015 18.1578 21.015 18.6086C21.015 19.0592 20.6483 19.426 20.1977 19.426C19.7468 19.426 19.3801 19.0592 19.3801 18.6086C19.3801 18.1577 19.7468 17.791 20.1977 17.791ZM15.2996 21.3233C15.7501 21.3233 16.1169 21.6901 16.1169 22.1409C16.1169 22.5915 15.7502 22.9583 15.2996 22.9583C14.8487 22.9583 14.482 22.5915 14.482 22.1409C14.4817 21.6901 14.8487 21.3233 15.2996 21.3233ZM32.7164 32.6887H31.6711V21.2787H28.3162V32.6887H26.7733V24.9444H23.4181V32.6887H21.8752V22.3632H18.52V32.6887H16.9771V25.2796H13.6222V32.6887H12.4158C12.1702 32.6887 11.9713 32.8876 11.9713 33.1332C11.9713 33.3788 12.1702 33.5776 12.4158 33.5776H32.7166C32.9622 33.5776 33.1611 33.3788 33.1611 33.1332C33.1614 32.8876 32.962 32.6887 32.7164 32.6887ZM14.511 32.6887V26.1685H16.0879V32.6887H14.511ZM19.4091 32.6887V23.252H20.986V32.6887H19.4091ZM24.3073 32.6887V25.8332H25.8844V32.6887H24.3073ZM29.2054 32.6887V22.1675H30.7822V32.6887H29.2054ZM39.5331 26.0208C39.2875 26.0208 39.0887 26.2196 39.0887 26.4652V27.092C37.5012 27.3101 36.273 28.6716 36.273 30.3181C36.273 32.1158 37.7355 33.578 39.5332 33.578C41.1794 33.578 42.5412 32.3501 42.759 30.7626H43.3857C43.6313 30.7626 43.8302 30.5638 43.8302 30.3182C43.8305 27.9485 41.9028 26.0208 39.5331 26.0208ZM39.5331 32.6887C38.2258 32.6887 37.1623 31.6252 37.1623 30.3179C37.1623 29.1625 37.993 28.1975 39.0888 27.9886V30.7623H41.8622C41.6536 31.858 40.6888 32.6887 39.5331 32.6887ZM42.7933 29.8734H39.9779V26.9385C41.5025 27.1379 42.7131 28.3486 42.9126 29.8732L42.7933 29.8734Z" fill="#FF595E"/>
</g>
<rect x="0.905029" y="0.674484" width="56.094" height="56.094" rx="9.5" stroke="#D6D6D6"/>
<defs>
<filter id="filter0_b_2987_15810" x="-70.9625" y="-71.193" width="199.829" height="199.829" filterUnits="userSpaceOnUse" color-interpolation-filters="sRGB">
<feFlood flood-opacity="0" result="BackgroundImageFix"/>
<feGaussianBlur in="BackgroundImageFix" stdDeviation="35.6838"/>
<feComposite in2="SourceAlpha" operator="in" result="effect1_backgroundBlur_2987_15810"/>
<feBlend mode="normal" in="SourceGraphic" in2="effect1_backgroundBlur_2987_15810" result="shape"/>
</filter>
<clipPath id="clip0_2987_15810">
<rect x="0.405029" y="0.174484" width="57.094" height="57.094" rx="10" fill="white"/>
</clipPath>
</defs>
</svg>
