<svg width="58" height="58" viewBox="0 0 58 58" fill="none" xmlns="http://www.w3.org/2000/svg">
<g clip-path="url(#clip0_3025_15548)">
<g filter="url(#filter0_b_3025_15548)">
<rect x="0.260254" y="0.059967" width="57.094" height="57.094" rx="11.4188" fill="white"/>
<rect x="0.617092" y="0.416805" width="56.3803" height="56.3803" rx="11.062" stroke="white" stroke-width="0.713675"/>
</g>
<g clip-path="url(#clip1_3025_15548)">
<path d="M29.8789 11.0984C29.6891 11.1547 29.3867 11.2812 29.211 11.3797C28.7258 11.6539 25.1891 15.2328 24.9571 15.6898C24.261 17.0468 24.8094 18.7062 26.1875 19.3953C26.975 19.789 27.861 19.7961 28.6414 19.4234C29.1406 19.1843 32.7688 15.5633 33.036 15.0429C33.7461 13.6437 33.1977 12.0125 31.7844 11.3164C31.1797 11.014 30.4625 10.9367 29.8789 11.0984ZM31.0953 12.5117C31.8196 12.8211 32.143 13.6367 31.8196 14.3398C31.7492 14.4945 31.4117 14.8883 31.0813 15.2187L30.4766 15.8164L29.5133 14.8461L28.543 13.8828L29.1406 13.2781C29.9703 12.4343 30.4485 12.2445 31.0953 12.5117ZM28.5078 15.8867L29.4571 16.8359L28.8594 17.4406C28.5289 17.7711 28.1352 18.1086 27.9805 18.1789C26.8766 18.6922 25.6883 17.5601 26.1524 16.4281C26.2438 16.2101 27.411 14.9375 27.5235 14.9375C27.5446 14.9375 27.9875 15.3664 28.5078 15.8867Z" fill="#54B0B2"/>
<path d="M12.4415 14.9234C11.7806 15.1484 11.3025 15.6547 11.0986 16.3156C10.9439 16.8289 10.9509 24.5703 11.1126 25.1679C11.2673 25.7867 11.647 26.4054 12.1251 26.8414L12.547 27.2211V36.3968V45.5797L11.9775 45.6078C11.4361 45.6289 11.4009 45.6429 11.197 45.8679C11.0212 46.0648 10.9931 46.1422 11.0283 46.3531C11.0494 46.4937 11.1478 46.6836 11.2462 46.782L11.422 46.9648L28.965 46.9859L46.5079 47L46.7329 46.7961C46.9228 46.6273 46.965 46.5429 46.965 46.2968C46.965 46.0508 46.9228 45.9664 46.7329 45.7976C46.522 45.6078 46.4587 45.5937 45.9806 45.5937H45.4533V36.4039V27.2211L45.8751 26.8414C46.1142 26.6234 46.4025 26.2718 46.5431 26.0187C47.0072 25.189 47.0072 25.1961 46.9861 20.5554C46.965 16.4492 46.965 16.3718 46.8173 16.0554C46.6204 15.6336 46.1634 15.1765 45.7415 14.9797C45.4251 14.839 45.3197 14.832 42.1908 14.8109C38.7947 14.7898 38.6681 14.7968 38.4572 15.1062C38.3376 15.275 38.3165 15.6617 38.422 15.8515C38.5837 16.1609 38.6681 16.1679 41.9869 16.2031L45.172 16.2382L45.3619 16.4351L45.5587 16.625L45.5798 18.875L45.6009 21.125H29.0001H12.4064V18.9101V16.6953L12.6103 16.4703L12.8142 16.2382L17.504 16.2031L22.1939 16.1679L22.3626 15.9711C22.5947 15.7039 22.5947 15.2961 22.3626 15.0289L22.1939 14.832L17.49 14.8179C13.1798 14.8039 12.765 14.8109 12.4415 14.9234ZM16.7658 23.5859C16.7658 24.4648 16.7447 24.6968 16.6251 25.0133C16.4423 25.4984 16.0978 25.8992 15.6689 26.1172C15.3665 26.2718 15.2329 26.2929 14.5861 26.2929C13.9392 26.2929 13.8056 26.2718 13.5033 26.1172C13.0744 25.8992 12.7298 25.4984 12.547 25.0133C12.4275 24.6968 12.4064 24.4648 12.4064 23.5859V22.5312H14.5861H16.7658V23.5859ZM22.5314 23.5859C22.5314 24.4648 22.5103 24.6968 22.3908 25.0133C22.2079 25.4984 21.8634 25.8992 21.4345 26.1172C21.1322 26.2718 20.9986 26.2929 20.3517 26.2929C19.7048 26.2929 19.5712 26.2718 19.2689 26.1172C18.84 25.8992 18.4954 25.4984 18.3126 25.0133C18.1931 24.6968 18.172 24.4648 18.172 23.5859V22.5312H20.3517H22.5314V23.5859ZM28.297 23.5859C28.297 24.4648 28.2759 24.6968 28.1564 25.0133C27.9736 25.4984 27.629 25.8992 27.2001 26.1172C26.8978 26.2718 26.7642 26.2929 26.1173 26.2929C25.4704 26.2929 25.3369 26.2718 25.0345 26.1172C24.6056 25.8992 24.2611 25.4984 24.0783 25.0133C23.9587 24.6968 23.9376 24.4648 23.9376 23.5859V22.5312H26.1173H28.297V23.5859ZM34.0626 23.5859C34.0626 24.4648 34.0415 24.6968 33.922 25.0133C33.7392 25.4984 33.3947 25.8992 32.9658 26.1172C32.6634 26.2718 32.5298 26.2929 31.8829 26.2929C31.2361 26.2929 31.1025 26.2718 30.8001 26.1172C30.3712 25.8992 30.0267 25.4984 29.8439 25.0133C29.7244 24.6968 29.7033 24.4648 29.7033 23.5859V22.5312H31.8829H34.0626V23.5859ZM39.8283 23.5859C39.8283 24.4648 39.8072 24.6968 39.6876 25.0133C39.5048 25.4984 39.1603 25.8992 38.7314 26.1172C38.429 26.2718 38.2954 26.2929 37.6486 26.2929C37.0017 26.2929 36.8681 26.2718 36.5658 26.1172C36.1369 25.8992 35.7923 25.4984 35.6095 25.0133C35.49 24.6968 35.4689 24.4648 35.4689 23.5859V22.5312H37.6486H39.8283V23.5859ZM45.5939 23.5859C45.5939 24.4648 45.5728 24.6968 45.4533 25.0133C45.2704 25.4984 44.9259 25.8992 44.497 26.1172C44.1947 26.2718 44.0611 26.2929 43.4142 26.2929C42.7673 26.2929 42.6337 26.2718 42.3314 26.1172C41.9025 25.8992 41.5579 25.4984 41.3751 25.0133C41.2556 24.6968 41.2345 24.4648 41.2345 23.5859V22.5312H43.4142H45.5939V23.5859ZM17.8556 26.8132C18.5376 27.4531 19.2829 27.7343 20.3517 27.7343C21.4204 27.7343 22.1658 27.4601 22.8619 26.8062L23.2345 26.4476L23.6072 26.8062C24.2892 27.4461 25.0626 27.7343 26.1103 27.7343C27.1931 27.7343 27.9314 27.4601 28.6275 26.8062L29.0001 26.4476L29.3728 26.8062C30.0548 27.4461 30.8283 27.7343 31.8759 27.7343C32.9587 27.7343 33.697 27.4601 34.3931 26.8062L34.7658 26.4476L35.1384 26.8062C35.8204 27.4461 36.5939 27.7343 37.6415 27.7343C38.7244 27.7343 39.4626 27.4601 40.1587 26.8062L40.5314 26.4476L40.904 26.8062C41.5861 27.4461 42.3595 27.7343 43.3931 27.7343H44.047V29.0703V30.4062L37.9931 30.4203L31.9392 30.4414L31.7353 30.6734L31.5314 30.9054L31.5454 36.207L31.5665 41.5156L31.7634 41.7054L31.9533 41.9023L38.0001 41.9234L44.047 41.9375V43.7656V45.5937H36.3829H28.7189L28.7048 38.2039L28.6837 30.814L28.4517 30.6101L28.2197 30.4062L22.4962 30.4203L16.7658 30.4414L16.5759 30.6383L16.379 30.8281L16.3579 38.2109L16.3439 45.5937H15.1486H13.9533V36.664V27.7343H14.6072C14.9587 27.7343 15.4158 27.6922 15.6126 27.6359C16.14 27.4953 16.7728 27.1367 17.1244 26.7781C17.2931 26.6093 17.4408 26.4687 17.4619 26.4687C17.4759 26.4687 17.6517 26.6234 17.8556 26.8132ZM27.3126 38.7031V45.5937H22.5314H17.7501V38.7031V31.8125H22.5314H27.3126V38.7031ZM44.047 36.1718V40.5312H38.4923H32.9376V36.1718V31.8125H38.4923H44.047V36.1718Z" fill="#54B0B2"/>
<path d="M20.2393 33.7601C20.1549 33.7742 20.0143 33.8656 19.9229 33.964L19.7542 34.1468L19.7331 37.2828C19.726 39.7015 19.7401 40.4679 19.8104 40.6015C19.8526 40.7 20.0143 40.8336 20.162 40.9039C20.4151 41.0304 20.4292 41.0304 20.6823 40.9039C20.8299 40.8336 20.9917 40.7 21.0338 40.6015C21.1042 40.4679 21.1182 39.7015 21.1112 37.2828L21.0901 34.1328L20.9143 33.964C20.7315 33.7882 20.4854 33.7179 20.2393 33.7601Z" fill="#54B0B2"/>
<path d="M24.6265 38.2039C24.1554 38.6258 24.4296 39.3711 25.0624 39.3711C25.6952 39.3711 25.9695 38.6258 25.4984 38.2039C25.3577 38.0773 25.196 38 25.0624 38C24.9288 38 24.7671 38.0773 24.6265 38.2039Z" fill="#54B0B2"/>
<path d="M19.9788 42.4578C19.346 43.0484 20.1335 44.0258 20.8226 43.5125C21.3499 43.1187 21.0757 42.289 20.4218 42.289C20.246 42.289 20.1054 42.3453 19.9788 42.4578Z" fill="#54B0B2"/>
<path d="M38.3026 32.9164C38.2182 32.9304 38.0635 33.0429 37.9651 33.1554C37.7964 33.3664 37.7893 33.4015 37.7893 34.4211V35.4687H36.7346C35.6799 35.4687 35.6799 35.4687 35.462 35.6656C35.2018 35.8976 35.1596 36.2562 35.3565 36.5515C35.5393 36.8328 35.7292 36.875 36.8049 36.875H37.7823L37.8034 37.9718L37.8245 39.0687L38.0214 39.2375C38.1479 39.3429 38.3096 39.4062 38.4643 39.4062C39.069 39.4062 39.1956 39.132 39.1956 37.8242V36.875H40.1799C41.2276 36.875 41.5018 36.8117 41.6565 36.5304C41.7831 36.2843 41.7409 35.9117 41.5581 35.7008L41.3893 35.5039L40.2924 35.4828L39.1956 35.4617V34.4773C39.1956 33.3523 39.1253 33.1273 38.7385 32.9656C38.6049 32.9093 38.4854 32.8742 38.4784 32.8742C38.4643 32.8812 38.387 32.9023 38.3026 32.9164Z" fill="#54B0B2"/>
</g>
</g>
<rect x="0.760254" y="0.559967" width="56.094" height="56.094" rx="9.5" stroke="#D6D6D6"/>
<defs>
<filter id="filter0_b_3025_15548" x="-71.1073" y="-71.3076" width="199.829" height="199.829" filterUnits="userSpaceOnUse" color-interpolation-filters="sRGB">
<feFlood flood-opacity="0" result="BackgroundImageFix"/>
<feGaussianBlur in="BackgroundImageFix" stdDeviation="35.6838"/>
<feComposite in2="SourceAlpha" operator="in" result="effect1_backgroundBlur_3025_15548"/>
<feBlend mode="normal" in="SourceGraphic" in2="effect1_backgroundBlur_3025_15548" result="shape"/>
</filter>
<clipPath id="clip0_3025_15548">
<rect x="0.260254" y="0.059967" width="57.094" height="57.094" rx="10" fill="white"/>
</clipPath>
<clipPath id="clip1_3025_15548">
<rect width="36" height="36" fill="white" transform="translate(11 11)"/>
</clipPath>
</defs>
</svg>
