<svg width="58" height="59" viewBox="0 0 58 59" fill="none" xmlns="http://www.w3.org/2000/svg">
<g clip-path="url(#clip0_2987_15804)">
<g filter="url(#filter0_b_2987_15804)">
<rect x="0.405029" y="0.945435" width="57.094" height="57.094" rx="11.4188" fill="white"/>
<rect x="0.761867" y="1.30227" width="56.3803" height="56.3803" rx="11.062" stroke="white" stroke-width="0.713675"/>
</g>
<path d="M40.6946 31.7426C37.1888 31.7426 34.3361 34.6496 34.3361 38.2225C34.3361 41.7956 37.1888 44.7026 40.6946 44.7026C44.2004 44.7026 47.0532 41.7956 47.0532 38.2225C47.0532 34.6496 44.2004 31.7426 40.6946 31.7426ZM40.6946 43.7701C37.6933 43.7701 35.2518 41.2815 35.2518 38.2228C35.2518 35.1641 37.6936 32.6755 40.6946 32.6755C43.696 32.6755 46.1378 35.1637 46.1378 38.2225C46.1378 41.2815 43.696 43.7701 40.6946 43.7701ZM43.8805 38.2225C43.8805 38.4801 43.6755 38.6887 43.4227 38.6887H40.6946C40.442 38.6887 40.2367 38.4801 40.2367 38.2225V34.0081C40.2367 33.7505 40.4417 33.5419 40.6946 33.5419C40.9471 33.5419 41.1524 33.7505 41.1524 34.0081V37.7562H43.423C43.6755 37.7562 43.8805 37.9651 43.8805 38.2224L43.8805 38.2225ZM41.1524 29.8391V15.5699C41.1524 14.6977 40.4556 13.9878 39.5997 13.9878H37.4882V12.7684C37.4882 11.9158 36.8078 11.2224 35.9709 11.2224H35.5858C34.7495 11.2224 34.0687 11.9158 34.0687 12.7684V13.9878H30.3428V12.7684C30.3428 11.9158 29.6624 11.2224 28.8258 11.2224H28.4404C27.6041 11.2224 26.9233 11.9158 26.9233 12.7684V13.9878H23.1977V12.7684C23.1977 11.9158 22.5173 11.2224 21.6804 11.2224H21.2953C20.4587 11.2224 19.7779 11.9158 19.7779 12.7684V13.9878H16.0523V12.7684C16.0523 11.9158 15.3719 11.2224 14.5353 11.2224H14.1502C13.3136 11.2224 12.6329 11.9158 12.6329 12.7684V13.9878H10.5219C9.66609 13.9878 8.96924 14.6976 8.96924 15.5699V40.8792C8.96924 41.7517 9.66605 42.4612 10.5219 42.4612H33.5854C35.0177 44.9469 37.6674 46.6206 40.6945 46.6206C45.2381 46.6206 48.9351 42.8537 48.9351 38.2234C48.9351 33.7494 45.4841 30.0822 41.1526 29.8392L41.1524 29.8391ZM34.9843 12.7686C34.9843 12.4303 35.2538 12.155 35.5857 12.155H35.9708C36.3027 12.155 36.5725 12.43 36.5725 12.7686V15.9615C36.5725 16.2997 36.3027 16.5747 35.9708 16.5747H35.5857C35.2538 16.5747 34.9843 16.2997 34.9843 15.9615V12.7686ZM27.8392 12.7686C27.8392 12.4303 28.1087 12.155 28.4406 12.155H28.826C29.1578 12.155 29.4274 12.43 29.4274 12.7686V15.9615C29.4274 16.2997 29.1578 16.5747 28.826 16.5747H28.4406C28.1087 16.5747 27.8392 16.2997 27.8392 15.9615V12.7686ZM20.6937 12.7686C20.6937 12.4303 20.9636 12.155 21.2954 12.155H21.6805C22.0124 12.155 22.2822 12.43 22.2822 12.7686V15.9615C22.2822 16.2997 22.0124 16.5747 21.6805 16.5747H21.2954C20.9635 16.5747 20.6937 16.2997 20.6937 15.9615V12.7686ZM13.5489 12.7686C13.5489 12.4303 13.8187 12.155 14.1506 12.155H14.5357C14.8676 12.155 15.1371 12.43 15.1371 12.7686V15.9615C15.1371 16.2997 14.8676 16.5747 14.5357 16.5747H14.1506C13.8187 16.5747 13.5489 16.2997 13.5489 15.9615V12.7686ZM10.5217 14.9208H12.6332V15.9618C12.6332 16.8144 13.3136 17.5078 14.1505 17.5078H14.5356C15.3719 17.5078 16.0527 16.8144 16.0527 15.9618V14.9208H19.7783V15.9618C19.7783 16.8144 20.4587 17.5078 21.2956 17.5078H21.6807C22.5173 17.5078 23.1981 16.8144 23.1981 15.9618V14.9208H26.9237V15.9618C26.9237 16.8144 27.6041 17.5078 28.4407 17.5078H28.8261C29.6624 17.5078 30.3431 16.8144 30.3431 15.9618V14.9208H34.0691V15.9618C34.0691 16.8144 34.7495 17.5078 35.5861 17.5078H35.9712C36.8078 17.5078 37.4885 16.8144 37.4885 15.9618V14.9208H39.6001C39.9515 14.9208 40.237 15.2122 40.237 15.57V20.8278L9.88426 20.8282V15.5703C9.88426 15.2122 10.1698 14.9208 10.5212 14.9208H10.5217ZM33.1184 41.5289H10.5217C10.1703 41.5289 9.88468 41.2375 9.88468 40.8794V21.7608H40.2367L40.2364 29.8391C40.157 29.8435 40.0786 29.8516 39.9999 29.8583C39.9473 29.8628 39.8944 29.8657 39.8425 29.8711C39.7411 29.8817 39.6406 29.8958 39.5402 29.9103C39.5062 29.9151 39.4715 29.9183 39.4378 29.9238C39.304 29.9446 39.1715 29.969 39.0398 29.9963C38.9986 30.005 38.958 30.0159 38.9167 30.0252C38.827 30.0454 38.7369 30.0653 38.6485 30.0884C38.5949 30.1025 38.542 30.1189 38.4888 30.134C38.4136 30.1551 38.3383 30.1757 38.264 30.1991C38.2073 30.2171 38.1516 30.2373 38.0955 30.2562C38.0263 30.2796 37.9564 30.3027 37.8877 30.3281C37.8298 30.3496 37.7731 30.373 37.7161 30.3958C37.6503 30.4218 37.5845 30.4471 37.5196 30.4751C37.462 30.4998 37.4057 30.5264 37.3487 30.5521C37.2857 30.5806 37.2221 30.6089 37.1601 30.639C37.1516 30.6432 37.1424 30.6467 37.1339 30.6512V30.4667C37.1339 30.209 36.9289 30.0005 36.6761 30.0005H33.6543C33.4018 30.0005 33.1964 30.209 33.1964 30.4667V32.7987C33.1964 33.0564 33.4014 33.2649 33.6543 33.2649H34.0494C34.0469 33.2682 34.0447 33.2717 34.0425 33.2752C34.0035 33.3298 33.9651 33.385 33.9273 33.4405C33.8911 33.4934 33.8552 33.5467 33.8202 33.6006C33.7831 33.6574 33.7472 33.7152 33.7116 33.7732C33.6779 33.8278 33.6445 33.8827 33.6121 33.9382C33.5778 33.9969 33.5444 34.0566 33.5116 34.1163C33.4805 34.1724 33.4496 34.2286 33.4197 34.2857C33.3879 34.3467 33.3573 34.4086 33.3268 34.4702C33.2985 34.5277 33.2701 34.5848 33.2434 34.6429C33.2141 34.7061 33.1864 34.7703 33.1583 34.8341C33.1332 34.8925 33.1073 34.9506 33.0834 35.0097C33.0566 35.0748 33.0318 35.1409 33.0069 35.207C32.9842 35.2664 32.9615 35.3254 32.9401 35.3857C32.9162 35.4535 32.8942 35.5221 32.8721 35.5905C32.8529 35.6498 32.8328 35.7092 32.8148 35.7692C32.7937 35.8395 32.7748 35.9111 32.7553 35.9823C32.7389 36.0423 32.7219 36.1017 32.7068 36.162C32.6889 36.2345 32.6731 36.3077 32.6571 36.3812C32.6438 36.4412 32.6294 36.5012 32.6174 36.5618C32.6023 36.6382 32.59 36.7152 32.5768 36.7922C32.5667 36.851 32.5557 36.909 32.5469 36.9681C32.5349 37.0489 32.5261 37.1308 32.5163 37.2123C32.5097 37.2688 32.5015 37.3246 32.4958 37.3814C32.4867 37.4735 32.481 37.5662 32.4751 37.659C32.4719 37.7058 32.4672 37.7523 32.465 37.7998C32.4581 37.9404 32.4543 38.0819 32.4543 38.2244C32.4543 39.0972 32.5859 39.9393 32.8296 40.7313C32.8479 40.7909 32.8693 40.85 32.8888 40.9093C32.9115 40.9774 32.9326 41.0461 32.9568 41.1131C33.0069 41.2527 33.0604 41.3917 33.118 41.5293L33.1184 41.5289ZM36.219 31.1715C35.7149 31.5043 35.2469 31.8935 34.8235 32.3319H34.1128V30.9328H36.219L36.219 31.1715ZM40.6945 45.6881C37.8065 45.6881 35.3042 43.9751 34.1125 41.4943C34.1049 41.4786 34.0967 41.4635 34.0895 41.4478C34.052 41.3682 34.017 41.2873 33.9821 41.2065C33.9604 41.1554 33.9386 41.1044 33.9179 41.0527C33.8908 40.9857 33.8646 40.9183 33.8395 40.8506C33.8099 40.7704 33.7822 40.6895 33.7554 40.6083C33.7403 40.5627 33.7242 40.5175 33.71 40.4716C33.6682 40.3365 33.6297 40.2001 33.5954 40.0625C33.5929 40.0519 33.5907 40.0413 33.5882 40.0307C33.5567 39.9014 33.5287 39.7714 33.5041 39.6405C33.4981 39.6081 33.4928 39.5757 33.4871 39.5433C33.4679 39.4332 33.4509 39.3225 33.4364 39.2114C33.4314 39.1729 33.4263 39.1341 33.4219 39.0953C33.4093 38.9865 33.3999 38.8774 33.392 38.7683C33.3895 38.7311 33.3857 38.6938 33.3835 38.6563C33.3753 38.5122 33.3703 38.3678 33.3703 38.2231C33.3703 36.1806 34.1798 34.3281 35.4884 32.9787C35.5108 32.9556 35.5334 32.9328 35.5561 32.91C35.7806 32.6844 36.0193 32.4736 36.2709 32.2788C36.2967 32.2589 36.3222 32.2387 36.3483 32.2191C36.4293 32.1582 36.5114 32.0981 36.5949 32.0404C36.6125 32.0282 36.6308 32.017 36.6484 32.0048C37.8088 31.2179 39.1998 30.7584 40.6948 30.7584C44.7337 30.7584 48.0194 34.1073 48.0194 38.223C48.0191 42.3395 44.7334 45.688 40.6945 45.688L40.6945 45.6881ZM15.8263 24.6366H12.8045C12.5519 24.6366 12.3466 24.8451 12.3466 25.1028V27.4348C12.3466 27.6925 12.5516 27.9011 12.8045 27.9011H15.8263C16.0788 27.9011 16.2841 27.6925 16.2841 27.4348V25.1028C16.2841 24.8455 16.0788 24.6366 15.8263 24.6366ZM15.3685 26.9685H13.2623V25.5695H15.3685V26.9685ZM22.7765 24.6366H19.7546C19.5021 24.6366 19.2968 24.8451 19.2968 25.1028V27.4348C19.2968 27.6925 19.5018 27.9011 19.7546 27.9011H22.7765C23.029 27.9011 23.2343 27.6925 23.2343 27.4348V25.1028C23.234 24.8455 23.029 24.6366 22.7765 24.6366ZM22.3186 26.9685H20.2124V25.5695H22.3186V26.9685ZM29.7263 24.6366H26.7045C26.452 24.6366 26.2467 24.8451 26.2467 25.1028V27.4348C26.2467 27.6925 26.4517 27.9011 26.7045 27.9011H29.7263C29.9788 27.9011 30.1841 27.6925 30.1841 27.4348V25.1028C30.1841 24.8455 29.9788 24.6366 29.7263 24.6366ZM29.2685 26.9685H27.1623V25.5695H29.2685V26.9685ZM33.655 27.9011H36.6768C36.9293 27.9011 37.1346 27.6925 37.1346 27.4348V25.1029C37.1346 24.8452 36.9297 24.6366 36.6768 24.6366H33.655C33.4025 24.6366 33.1972 24.8452 33.1972 25.1029V27.4348C33.1972 27.6925 33.4025 27.9011 33.655 27.9011ZM34.1128 25.5695H36.219V26.9685H34.1128V25.5695ZM15.8262 29.9998H12.8044C12.5518 29.9998 12.3465 30.2083 12.3465 30.466V32.798C12.3465 33.0557 12.5515 33.2642 12.8044 33.2642H15.8262C16.0787 33.2642 16.284 33.0557 16.284 32.798V30.4663C16.284 30.2087 16.0787 29.9998 15.8262 29.9998V29.9998ZM15.3684 32.3317H13.2622V30.9326H15.3684V32.3317ZM22.7764 29.9998H19.7545C19.502 29.9998 19.2967 30.2083 19.2967 30.466V32.798C19.2967 33.0557 19.5017 33.2642 19.7545 33.2642H22.7764C23.0289 33.2642 23.2342 33.0557 23.2342 32.798L23.2339 30.4663C23.2339 30.2087 23.0289 29.9998 22.7764 29.9998V29.9998ZM22.3185 32.3317H20.2123V30.9326H22.3185V32.3317ZM29.7262 29.9998H26.7044C26.4519 29.9998 26.2466 30.2083 26.2466 30.466V32.798C26.2466 33.0557 26.4515 33.2642 26.7044 33.2642H29.7262C29.9787 33.2642 30.184 33.0557 30.184 32.798V30.4663C30.184 30.2087 29.9787 29.9998 29.7262 29.9998V29.9998ZM29.2684 32.3317H27.1622V30.9326H29.2684V32.3317ZM15.8263 35.3632H12.8044C12.5519 35.3632 12.3466 35.5718 12.3466 35.8294V38.1611C12.3466 38.4188 12.5516 38.6273 12.8044 38.6273H15.8263C16.0788 38.6273 16.2841 38.4188 16.2841 38.1611V35.8294C16.2841 35.5718 16.0788 35.3632 15.8263 35.3632ZM15.3684 37.6948H13.2622V36.2957H15.3684V37.6948ZM22.7764 35.3632H19.7546C19.5021 35.3632 19.2968 35.5718 19.2968 35.8294V38.1611C19.2968 38.4188 19.5018 38.6273 19.7546 38.6273H22.7764C23.029 38.6273 23.2343 38.4188 23.2343 38.1611V35.8294C23.2339 35.5718 23.029 35.3632 22.7764 35.3632ZM22.3186 37.6948H20.2124V36.2957H22.3186V37.6948ZM29.7263 35.3632H26.7045C26.4519 35.3632 26.2466 35.5718 26.2466 35.8294V38.1611C26.2466 38.4188 26.4516 38.6273 26.7045 38.6273H29.7263C29.9788 38.6273 30.1841 38.4188 30.1841 38.1611V35.8294C30.1841 35.5718 29.9788 35.3632 29.7263 35.3632ZM29.2685 37.6948H27.1623V36.2957H29.2685V37.6948Z" fill="#FF595E"/>
</g>
<rect x="0.905029" y="1.44543" width="56.094" height="56.094" rx="9.5" stroke="#D6D6D6"/>
<defs>
<filter id="filter0_b_2987_15804" x="-70.9625" y="-70.4221" width="199.829" height="199.829" filterUnits="userSpaceOnUse" color-interpolation-filters="sRGB">
<feFlood flood-opacity="0" result="BackgroundImageFix"/>
<feGaussianBlur in="BackgroundImageFix" stdDeviation="35.6838"/>
<feComposite in2="SourceAlpha" operator="in" result="effect1_backgroundBlur_2987_15804"/>
<feBlend mode="normal" in="SourceGraphic" in2="effect1_backgroundBlur_2987_15804" result="shape"/>
</filter>
<clipPath id="clip0_2987_15804">
<rect x="0.405029" y="0.945435" width="57.094" height="57.094" rx="10" fill="white"/>
</clipPath>
</defs>
</svg>
