<svg width="58" height="58" viewBox="0 0 58 58" fill="none" xmlns="http://www.w3.org/2000/svg">
<g clip-path="url(#clip0_3025_15802)">
<g filter="url(#filter0_b_3025_15802)">
<rect x="0.405029" y="0.059967" width="57.094" height="57.094" rx="11.4188" fill="white"/>
<rect x="0.761867" y="0.416805" width="56.3803" height="56.3803" rx="11.062" stroke="white" stroke-width="0.713675"/>
</g>
<path d="M40.6946 30.8572C37.1888 30.8572 34.3361 33.7642 34.3361 37.337C34.3361 40.9101 37.1888 43.8172 40.6946 43.8172C44.2004 43.8172 47.0532 40.9101 47.0532 37.337C47.0532 33.7642 44.2004 30.8572 40.6946 30.8572ZM40.6946 42.8846C37.6933 42.8846 35.2518 40.3961 35.2518 37.3373C35.2518 34.2786 37.6936 31.79 40.6946 31.79C43.696 31.79 46.1378 34.2782 46.1378 37.337C46.1378 40.3961 43.696 42.8846 40.6946 42.8846ZM43.8805 37.337C43.8805 37.5947 43.6755 37.8032 43.4227 37.8032H40.6946C40.442 37.8032 40.2367 37.5947 40.2367 37.337V33.1227C40.2367 32.865 40.4417 32.6564 40.6946 32.6564C40.9471 32.6564 41.1524 32.865 41.1524 33.1227V36.8707H43.423C43.6755 36.8707 43.8805 37.0796 43.8805 37.337L43.8805 37.337ZM41.1524 28.9537V14.6844C41.1524 13.8122 40.4556 13.1024 39.5997 13.1024H37.4882V11.8829C37.4882 11.0303 36.8078 10.3369 35.9709 10.3369H35.5858C34.7495 10.3369 34.0687 11.0303 34.0687 11.8829V13.1024H30.3428V11.8829C30.3428 11.0303 29.6624 10.3369 28.8258 10.3369H28.4404C27.6041 10.3369 26.9233 11.0303 26.9233 11.8829V13.1024H23.1977V11.8829C23.1977 11.0303 22.5173 10.3369 21.6804 10.3369H21.2953C20.4587 10.3369 19.7779 11.0303 19.7779 11.8829V13.1024H16.0523V11.8829C16.0523 11.0303 15.3719 10.3369 14.5353 10.3369H14.1502C13.3136 10.3369 12.6329 11.0303 12.6329 11.8829V13.1024H10.5219C9.66609 13.1024 8.96924 13.8122 8.96924 14.6844V39.9937C8.96924 40.8662 9.66605 41.5757 10.5219 41.5757H33.5854C35.0177 44.0614 37.6674 45.7352 40.6945 45.7352C45.2381 45.7352 48.9351 41.9682 48.9351 37.3379C48.9351 32.864 45.4841 29.1968 41.1526 28.9538L41.1524 28.9537ZM34.9843 11.8831C34.9843 11.5449 35.2538 11.2695 35.5857 11.2695H35.9708C36.3027 11.2695 36.5725 11.5445 36.5725 11.8831V15.076C36.5725 15.4142 36.3027 15.6892 35.9708 15.6892H35.5857C35.2538 15.6892 34.9843 15.4142 34.9843 15.076V11.8831ZM27.8392 11.8831C27.8392 11.5449 28.1087 11.2695 28.4406 11.2695H28.826C29.1578 11.2695 29.4274 11.5445 29.4274 11.8831V15.076C29.4274 15.4142 29.1578 15.6892 28.826 15.6892H28.4406C28.1087 15.6892 27.8392 15.4142 27.8392 15.076V11.8831ZM20.6937 11.8831C20.6937 11.5449 20.9636 11.2695 21.2954 11.2695H21.6805C22.0124 11.2695 22.2822 11.5445 22.2822 11.8831V15.076C22.2822 15.4142 22.0124 15.6892 21.6805 15.6892H21.2954C20.9635 15.6892 20.6937 15.4142 20.6937 15.076V11.8831ZM13.5489 11.8831C13.5489 11.5449 13.8187 11.2695 14.1506 11.2695H14.5357C14.8676 11.2695 15.1371 11.5445 15.1371 11.8831V15.076C15.1371 15.4142 14.8676 15.6892 14.5357 15.6892H14.1506C13.8187 15.6892 13.5489 15.4142 13.5489 15.076V11.8831ZM10.5217 14.0353H12.6332V15.0763C12.6332 15.9289 13.3136 16.6224 14.1505 16.6224H14.5356C15.3719 16.6224 16.0527 15.9289 16.0527 15.0763V14.0353H19.7783V15.0763C19.7783 15.9289 20.4587 16.6224 21.2956 16.6224H21.6807C22.5173 16.6224 23.1981 15.9289 23.1981 15.0763V14.0353H26.9237V15.0763C26.9237 15.9289 27.6041 16.6224 28.4407 16.6224H28.8261C29.6624 16.6224 30.3431 15.9289 30.3431 15.0763V14.0353H34.0691V15.0763C34.0691 15.9289 34.7495 16.6224 35.5861 16.6224H35.9712C36.8078 16.6224 37.4885 15.9289 37.4885 15.0763V14.0353H39.6001C39.9515 14.0353 40.237 14.3267 40.237 14.6845V19.9424L9.88426 19.9427V14.6848C9.88426 14.3267 10.1698 14.0353 10.5212 14.0353H10.5217ZM33.1184 40.6434H10.5217C10.1703 40.6434 9.88468 40.352 9.88468 39.9939V20.8754H40.2367L40.2364 28.9536C40.157 28.9581 40.0786 28.9661 39.9999 28.9728C39.9473 28.9773 39.8944 28.9802 39.8425 28.9857C39.7411 28.9963 39.6406 29.0104 39.5402 29.0248C39.5062 29.0296 39.4715 29.0328 39.4378 29.0383C39.304 29.0591 39.1715 29.0835 39.0398 29.1108C38.9986 29.1195 38.958 29.1304 38.9167 29.1397C38.827 29.1599 38.7369 29.1798 38.6485 29.2029C38.5949 29.217 38.542 29.2334 38.4888 29.2485C38.4136 29.2697 38.3383 29.2902 38.264 29.3136C38.2073 29.3316 38.1516 29.3518 38.0955 29.3707C38.0263 29.3942 37.9564 29.4173 37.8877 29.4426C37.8298 29.4641 37.7731 29.4875 37.7161 29.5103C37.6503 29.5363 37.5845 29.5617 37.5196 29.5896C37.462 29.6143 37.4057 29.6409 37.3487 29.6666C37.2857 29.6952 37.2221 29.7234 37.1601 29.7536C37.1516 29.7577 37.1424 29.7613 37.1339 29.7658V29.5812C37.1339 29.3236 36.9289 29.115 36.6761 29.115H33.6543C33.4018 29.115 33.1964 29.3236 33.1964 29.5812V31.9132C33.1964 32.1709 33.4014 32.3795 33.6543 32.3795H34.0494C34.0469 32.3827 34.0447 32.3862 34.0425 32.3897C34.0035 32.4443 33.9651 32.4995 33.9273 32.555C33.8911 32.6079 33.8552 32.6612 33.8202 32.7151C33.7831 32.7719 33.7472 32.8297 33.7116 32.8878C33.6779 32.9423 33.6445 32.9972 33.6121 33.0527C33.5778 33.1114 33.5444 33.1711 33.5116 33.2308C33.4805 33.287 33.4496 33.3431 33.4197 33.4002C33.3879 33.4612 33.3573 33.5231 33.3268 33.5848C33.2985 33.6422 33.2701 33.6993 33.2434 33.7574C33.2141 33.8206 33.1864 33.8848 33.1583 33.9487C33.1332 34.0071 33.1073 34.0651 33.0834 34.1242C33.0566 34.1893 33.0318 34.2554 33.0069 34.3215C32.9842 34.3809 32.9615 34.4399 32.9401 34.5003C32.9162 34.568 32.8942 34.6367 32.8721 34.705C32.8529 34.7644 32.8328 34.8237 32.8148 34.8837C32.7937 34.954 32.7748 35.0256 32.7553 35.0968C32.7389 35.1568 32.7219 35.2162 32.7068 35.2765C32.6889 35.349 32.6731 35.4222 32.6571 35.4957C32.6438 35.5557 32.6294 35.6157 32.6174 35.6764C32.6023 35.7527 32.59 35.8297 32.5768 35.9068C32.5667 35.9655 32.5557 36.0236 32.5469 36.0826C32.5349 36.1635 32.5261 36.2453 32.5163 36.3268C32.5097 36.3833 32.5015 36.4391 32.4958 36.4959C32.4867 36.588 32.481 36.6808 32.4751 36.7735C32.4719 36.8203 32.4672 36.8669 32.465 36.9144C32.4581 37.0549 32.4543 37.1964 32.4543 37.3389C32.4543 38.2117 32.5859 39.0538 32.8296 39.8458C32.8479 39.9055 32.8693 39.9645 32.8888 40.0239C32.9115 40.0919 32.9326 40.1606 32.9568 40.2276C33.0069 40.3672 33.0604 40.5062 33.118 40.6438L33.1184 40.6434ZM36.219 30.2861C35.7149 30.6188 35.2469 31.0081 34.8235 31.4464H34.1128V30.0473H36.219L36.219 30.2861ZM40.6945 44.8026C37.8065 44.8026 35.3042 43.0896 34.1125 40.6088C34.1049 40.5931 34.0967 40.578 34.0895 40.5623C34.052 40.4827 34.017 40.4018 33.9821 40.321C33.9604 40.27 33.9386 40.2189 33.9179 40.1673C33.8908 40.1002 33.8646 40.0328 33.8395 39.9651C33.8099 39.8849 33.7822 39.804 33.7554 39.7228C33.7403 39.6773 33.7242 39.632 33.71 39.5861C33.6682 39.451 33.6297 39.3147 33.5954 39.177C33.5929 39.1664 33.5907 39.1558 33.5882 39.1452C33.5567 39.0159 33.5287 38.8859 33.5041 38.755C33.4981 38.7226 33.4928 38.6902 33.4871 38.6578C33.4679 38.5477 33.4509 38.437 33.4364 38.326C33.4314 38.2875 33.4263 38.2486 33.4219 38.2098C33.4093 38.101 33.3999 37.9919 33.392 37.8828C33.3895 37.8456 33.3857 37.8084 33.3835 37.7708C33.3753 37.6267 33.3703 37.4823 33.3703 37.3376C33.3703 35.2951 34.1798 33.4426 35.4884 32.0932C35.5108 32.0701 35.5334 32.0473 35.5561 32.0245C35.7806 31.799 36.0193 31.5881 36.2709 31.3933C36.2967 31.3734 36.3222 31.3532 36.3483 31.3337C36.4293 31.2727 36.5114 31.2127 36.5949 31.1549C36.6125 31.1427 36.6308 31.1315 36.6484 31.1193C37.8088 30.3325 39.1998 29.8729 40.6948 29.8729C44.7337 29.8729 48.0194 33.2218 48.0194 37.3376C48.0191 41.454 44.7334 44.8025 40.6945 44.8025L40.6945 44.8026ZM15.8263 23.7511H12.8045C12.5519 23.7511 12.3466 23.9597 12.3466 24.2174V26.5493C12.3466 26.807 12.5516 27.0156 12.8045 27.0156H15.8263C16.0788 27.0156 16.2841 26.807 16.2841 26.5493V24.2174C16.2841 23.96 16.0788 23.7511 15.8263 23.7511ZM15.3685 26.0831H13.2623V24.684H15.3685V26.0831ZM22.7765 23.7511H19.7546C19.5021 23.7511 19.2968 23.9597 19.2968 24.2174V26.5493C19.2968 26.807 19.5018 27.0156 19.7546 27.0156H22.7765C23.029 27.0156 23.2343 26.807 23.2343 26.5493V24.2174C23.234 23.96 23.029 23.7511 22.7765 23.7511ZM22.3186 26.0831H20.2124V24.684H22.3186V26.0831ZM29.7263 23.7511H26.7045C26.452 23.7511 26.2467 23.9597 26.2467 24.2174V26.5493C26.2467 26.807 26.4517 27.0156 26.7045 27.0156H29.7263C29.9788 27.0156 30.1841 26.807 30.1841 26.5493V24.2174C30.1841 23.96 29.9788 23.7511 29.7263 23.7511ZM29.2685 26.0831H27.1623V24.684H29.2685V26.0831ZM33.655 27.0156H36.6768C36.9293 27.0156 37.1346 26.807 37.1346 26.5494V24.2174C37.1346 23.9597 36.9297 23.7511 36.6768 23.7511H33.655C33.4025 23.7511 33.1972 23.9597 33.1972 24.2174V26.5494C33.1972 26.807 33.4025 27.0156 33.655 27.0156ZM34.1128 24.684H36.219V26.0831H34.1128V24.684ZM15.8262 29.1143H12.8044C12.5518 29.1143 12.3465 29.3229 12.3465 29.5805V31.9125C12.3465 32.1702 12.5515 32.3788 12.8044 32.3788H15.8262C16.0787 32.3788 16.284 32.1702 16.284 31.9125V29.5809C16.284 29.3232 16.0787 29.1143 15.8262 29.1143V29.1143ZM15.3684 31.4462H13.2622V30.0472H15.3684V31.4462ZM22.7764 29.1143H19.7545C19.502 29.1143 19.2967 29.3229 19.2967 29.5805V31.9125C19.2967 32.1702 19.5017 32.3788 19.7545 32.3788H22.7764C23.0289 32.3788 23.2342 32.1702 23.2342 31.9125L23.2339 29.5809C23.2339 29.3232 23.0289 29.1143 22.7764 29.1143V29.1143ZM22.3185 31.4462H20.2123V30.0472H22.3185V31.4462ZM29.7262 29.1143H26.7044C26.4519 29.1143 26.2466 29.3229 26.2466 29.5805V31.9125C26.2466 32.1702 26.4515 32.3788 26.7044 32.3788H29.7262C29.9787 32.3788 30.184 32.1702 30.184 31.9125V29.5809C30.184 29.3232 29.9787 29.1143 29.7262 29.1143V29.1143ZM29.2684 31.4462H27.1622V30.0472H29.2684V31.4462ZM15.8263 34.4777H12.8044C12.5519 34.4777 12.3466 34.6863 12.3466 34.944V37.2756C12.3466 37.5333 12.5516 37.7419 12.8044 37.7419H15.8263C16.0788 37.7419 16.2841 37.5333 16.2841 37.2756V34.944C16.2841 34.6863 16.0788 34.4777 15.8263 34.4777ZM15.3684 36.8093H13.2622V35.4103H15.3684V36.8093ZM22.7764 34.4777H19.7546C19.5021 34.4777 19.2968 34.6863 19.2968 34.944V37.2756C19.2968 37.5333 19.5018 37.7419 19.7546 37.7419H22.7764C23.029 37.7419 23.2343 37.5333 23.2343 37.2756V34.944C23.2339 34.6863 23.029 34.4777 22.7764 34.4777ZM22.3186 36.8093H20.2124V35.4103H22.3186V36.8093ZM29.7263 34.4777H26.7045C26.4519 34.4777 26.2466 34.6863 26.2466 34.944V37.2756C26.2466 37.5333 26.4516 37.7419 26.7045 37.7419H29.7263C29.9788 37.7419 30.1841 37.5333 30.1841 37.2756V34.944C30.1841 34.6863 29.9788 34.4777 29.7263 34.4777ZM29.2685 36.8093H27.1623V35.4103H29.2685V36.8093Z" fill="#1976D2"/>
</g>
<rect x="0.905029" y="0.559967" width="56.094" height="56.094" rx="9.5" stroke="#D6D6D6"/>
<defs>
<filter id="filter0_b_3025_15802" x="-70.9625" y="-71.3076" width="199.829" height="199.829" filterUnits="userSpaceOnUse" color-interpolation-filters="sRGB">
<feFlood flood-opacity="0" result="BackgroundImageFix"/>
<feGaussianBlur in="BackgroundImageFix" stdDeviation="35.6838"/>
<feComposite in2="SourceAlpha" operator="in" result="effect1_backgroundBlur_3025_15802"/>
<feBlend mode="normal" in="SourceGraphic" in2="effect1_backgroundBlur_3025_15802" result="shape"/>
</filter>
<clipPath id="clip0_3025_15802">
<rect x="0.405029" y="0.059967" width="57.094" height="57.094" rx="10" fill="white"/>
</clipPath>
</defs>
</svg>
