<svg width="58" height="58" viewBox="0 0 58 58" fill="none" xmlns="http://www.w3.org/2000/svg">
<g clip-path="url(#clip0_2987_15816)">
<g filter="url(#filter0_b_2987_15816)">
<rect x="0.259766" y="0.83091" width="57.094" height="57.094" rx="11.4188" fill="white"/>
<rect x="0.616603" y="1.18775" width="56.3803" height="56.3803" rx="11.062" stroke="white" stroke-width="0.713675"/>
</g>
<path d="M30.5558 36.6514C30.4178 36.6514 30.3059 36.7648 30.3059 36.9046C30.3059 37.0444 30.4178 37.1578 30.5558 37.1578H30.749C30.887 37.1578 30.9989 37.0444 30.9989 36.9046C30.9989 36.7648 30.887 36.6514 30.749 36.6514H30.5558Z" fill="#FF595E"/>
<path d="M31.5236 36.6514C31.3856 36.6514 31.2737 36.7648 31.2737 36.9046C31.2737 37.0444 31.3856 37.1578 31.5236 37.1578H31.7168C31.8548 37.1578 31.9667 37.0444 31.9667 36.9046C31.9667 36.7648 31.8548 36.6514 31.7168 36.6514H31.5236Z" fill="#FF595E"/>
<path d="M29.5922 36.6514C29.4542 36.6514 29.3423 36.7648 29.3423 36.9046C29.3423 37.0444 29.4542 37.1578 29.5922 37.1578H29.7854C29.9234 37.1578 30.0353 37.0444 30.0353 36.9046C30.0353 36.7648 29.9234 36.6514 29.7854 36.6514H29.5922Z" fill="#FF595E"/>
<path d="M32.4916 36.6514C32.3536 36.6514 32.2417 36.7648 32.2417 36.9046C32.2417 37.0444 32.3536 37.1577 32.4916 37.1577H32.6848C32.8228 37.1577 32.9347 37.0444 32.9347 36.9046C32.9347 36.7648 32.8228 36.6514 32.6848 36.6514H32.4916Z" fill="#FF595E"/>
<path d="M22.8212 36.6514C22.6832 36.6514 22.5713 36.7648 22.5713 36.9046C22.5713 37.0444 22.6832 37.1577 22.8212 37.1577H23.0144C23.1524 37.1577 23.2643 37.0444 23.2643 36.9046C23.2643 36.7648 23.1524 36.6514 23.0144 36.6514H22.8212Z" fill="#FF595E"/>
<path d="M26.6884 36.6514C26.5504 36.6514 26.4385 36.7648 26.4385 36.9046C26.4385 37.0444 26.5504 37.1578 26.6884 37.1578H26.8816C27.0196 37.1578 27.1315 37.0444 27.1315 36.9046C27.1315 36.7648 27.0196 36.6514 26.8816 36.6514H26.6884Z" fill="#FF595E"/>
<path d="M23.7892 36.6514C23.6512 36.6514 23.5393 36.7648 23.5393 36.9046C23.5393 37.0444 23.6512 37.1578 23.7892 37.1578H23.9824C24.1204 37.1578 24.2323 37.0444 24.2323 36.9046C24.2323 36.7648 24.1204 36.6514 23.9824 36.6514H23.7892Z" fill="#FF595E"/>
<path d="M27.6564 36.6514C27.5184 36.6514 27.4065 36.7648 27.4065 36.9046C27.4065 37.0444 27.5184 37.1577 27.6564 37.1577H27.8496C27.9876 37.1577 28.0995 37.0444 28.0995 36.9046C28.0995 36.7648 27.9876 36.6514 27.8496 36.6514H27.6564Z" fill="#FF595E"/>
<path d="M38.2946 36.6514C38.1566 36.6514 38.0447 36.7648 38.0447 36.9046C38.0447 37.0444 38.1566 37.1578 38.2946 37.1578H38.4878C38.6258 37.1578 38.7377 37.0444 38.7377 36.9046C38.7377 36.7648 38.6258 36.6514 38.4878 36.6514H38.2946Z" fill="#FF595E"/>
<path d="M37.3268 36.6514C37.1888 36.6514 37.0769 36.7648 37.0769 36.9046C37.0769 37.0444 37.1888 37.1578 37.3268 37.1578H37.52C37.658 37.1578 37.7699 37.0444 37.7699 36.9046C37.7699 36.7648 37.658 36.6514 37.52 36.6514H37.3268Z" fill="#FF595E"/>
<path d="M39.2582 36.6514C39.1202 36.6514 39.0083 36.7648 39.0083 36.9046C39.0083 37.0444 39.1202 37.1578 39.2582 37.1578H39.4514C39.5894 37.1578 39.7013 37.0444 39.7013 36.9046C39.7013 36.7648 39.5894 36.6514 39.4514 36.6514H39.2582Z" fill="#FF595E"/>
<path d="M34.423 36.6514C34.285 36.6514 34.1731 36.7648 34.1731 36.9046C34.1731 37.0444 34.285 37.1578 34.423 37.1578H34.6162C34.7542 37.1578 34.8661 37.0444 34.8661 36.9046C34.8661 36.7648 34.7542 36.6514 34.6162 36.6514H34.423Z" fill="#FF595E"/>
<path d="M33.4596 36.6514C33.3216 36.6514 33.2097 36.7648 33.2097 36.9046C33.2097 37.0444 33.3216 37.1578 33.4596 37.1578H33.6528C33.7908 37.1578 33.9028 37.0444 33.9028 36.9046C33.9028 36.7648 33.7908 36.6514 33.6528 36.6514H33.4596Z" fill="#FF595E"/>
<path d="M35.391 36.6514C35.253 36.6514 35.1411 36.7648 35.1411 36.9046C35.1411 37.0444 35.253 37.1578 35.391 37.1578H35.5842C35.7222 37.1578 35.8341 37.0444 35.8341 36.9046C35.8341 36.7648 35.7222 36.6514 35.5842 36.6514H35.391Z" fill="#FF595E"/>
<path d="M36.3588 36.6514C36.2208 36.6514 36.1089 36.7648 36.1089 36.9046C36.1089 37.0444 36.2208 37.1577 36.3588 37.1577H36.552C36.69 37.1577 36.8019 37.0444 36.8019 36.9046C36.8019 36.7648 36.69 36.6514 36.552 36.6514H36.3588Z" fill="#FF595E"/>
<path d="M28.6244 36.6514C28.4864 36.6514 28.3745 36.7648 28.3745 36.9046C28.3745 37.0444 28.4864 37.1578 28.6244 37.1578H28.8176C28.9556 37.1578 29.0675 37.0444 29.0675 36.9046C29.0675 36.7648 28.9556 36.6514 28.8176 36.6514H28.6244Z" fill="#FF595E"/>
<path d="M15.2797 36.6514H15.0868C14.9488 36.6514 14.8369 36.7648 14.8369 36.9046C14.8369 37.0444 14.9488 37.1577 15.0868 37.1577H15.28C15.418 37.1577 15.53 37.0444 15.53 36.9046C15.53 36.7648 15.4183 36.6514 15.2797 36.6514Z" fill="#FF595E"/>
<path d="M42.3552 36.6514H42.162C42.024 36.6514 41.9121 36.7648 41.9121 36.9046C41.9121 37.0444 42.024 37.1578 42.162 37.1578H42.3552C42.4932 37.1578 42.6051 37.0444 42.6051 36.9046C42.6051 36.7648 42.4932 36.6514 42.3552 36.6514Z" fill="#FF595E"/>
<path d="M24.9502 36.6514H24.757C24.619 36.6514 24.5071 36.7648 24.5071 36.9046C24.5071 37.0444 24.619 37.1578 24.757 37.1578H24.9502C25.0882 37.1578 25.2001 37.0444 25.2001 36.9046C25.1998 36.7648 25.0882 36.6514 24.9502 36.6514Z" fill="#FF595E"/>
<path d="M16.4977 36.9043C16.4977 36.7645 16.3858 36.6511 16.2478 36.6511L16.0546 36.6514C15.9166 36.6514 15.8047 36.7648 15.8047 36.9046C15.8047 37.0444 15.9166 37.1578 16.0546 37.1578H16.2478C16.3858 37.1575 16.4977 37.0441 16.4977 36.9043Z" fill="#FF595E"/>
<path d="M41.3872 36.6514H41.194C41.056 36.6514 40.9441 36.7648 40.9441 36.9046C40.9441 37.0444 41.056 37.1578 41.194 37.1578H41.3872C41.5252 37.1578 41.6371 37.0444 41.6371 36.9046C41.6368 36.7648 41.5255 36.6514 41.3872 36.6514Z" fill="#FF595E"/>
<path d="M40.4192 36.6514H40.226C40.088 36.6514 39.9761 36.7648 39.9761 36.9046C39.9761 37.0444 40.088 37.1578 40.226 37.1578H40.4192C40.5572 37.1578 40.6691 37.0444 40.6691 36.9046C40.6691 36.7648 40.5572 36.6514 40.4192 36.6514Z" fill="#FF595E"/>
<path d="M21.8534 36.6514C21.7154 36.6514 21.6035 36.7648 21.6035 36.9046C21.6035 37.0444 21.7154 37.1578 21.8534 37.1578H22.0466C22.1846 37.1578 22.2966 37.0444 22.2966 36.9046C22.2966 36.7648 22.1846 36.6514 22.0466 36.6514H21.8534Z" fill="#FF595E"/>
<path d="M25.9138 36.6514H25.7206C25.5826 36.6514 25.4707 36.7648 25.4707 36.9046C25.4707 37.0444 25.5826 37.1578 25.7206 37.1578H25.9138C26.0518 37.1578 26.1637 37.0444 26.1637 36.9046C26.1637 36.7648 26.0524 36.6514 25.9138 36.6514Z" fill="#FF595E"/>
<path d="M19.9218 36.6514C19.7838 36.6514 19.6719 36.7648 19.6719 36.9046C19.6719 37.0444 19.7838 37.1578 19.9218 37.1578H20.115C20.253 37.1578 20.3649 37.0444 20.3649 36.9046C20.3649 36.7648 20.253 36.6514 20.115 36.6514H19.9218Z" fill="#FF595E"/>
<path d="M18.954 36.6514C18.816 36.6514 18.7041 36.7648 18.7041 36.9046C18.7041 37.0444 18.816 37.1577 18.954 37.1577H19.1472C19.2852 37.1577 19.3971 37.0444 19.3971 36.9046C19.3971 36.7648 19.2852 36.6514 19.1472 36.6514H18.954Z" fill="#FF595E"/>
<path d="M17.986 36.6514C17.848 36.6514 17.7361 36.7648 17.7361 36.9046C17.7361 37.0444 17.848 37.1578 17.986 37.1578H18.1792C18.3172 37.1578 18.4291 37.0444 18.4291 36.9046C18.4291 36.7648 18.3172 36.6514 18.1792 36.6514H17.986Z" fill="#FF595E"/>
<path d="M20.8898 36.6514C20.7518 36.6514 20.6399 36.7648 20.6399 36.9046C20.6399 37.0444 20.7518 37.1578 20.8898 37.1578H21.083C21.221 37.1578 21.3329 37.0444 21.3329 36.9046C21.3329 36.7648 21.221 36.6514 21.083 36.6514H20.8898Z" fill="#FF595E"/>
<path d="M14.312 36.6514H14.1188C13.9808 36.6514 13.8689 36.7648 13.8689 36.9046C13.8689 37.0444 13.9808 37.1577 14.1188 37.1577H14.312C14.45 37.1577 14.5619 37.0444 14.5619 36.9046C14.5619 36.7648 14.45 36.6514 14.312 36.6514Z" fill="#FF595E"/>
<path d="M17.0182 36.6514C16.8802 36.6514 16.7683 36.7648 16.7683 36.9046C16.7683 37.0444 16.8802 37.1578 17.0182 37.1578H17.2114C17.3494 37.1578 17.4613 37.0444 17.4613 36.9046C17.4613 36.7648 17.3494 36.6514 17.2114 36.6514H17.0182Z" fill="#FF595E"/>
<path d="M43.7229 6.54031H12.7493C12.4736 6.54031 12.2498 6.76709 12.2498 7.04635V50.5676C12.2498 50.8469 12.4736 51.0737 12.7493 51.0737H43.7229C43.9985 51.0737 44.2224 50.8469 44.2224 50.5676V7.04635C44.2224 6.76709 43.9985 6.54031 43.7229 6.54031V6.54031ZM43.2233 50.0616H13.2491V37.1572H13.3451C13.4831 37.1572 13.595 37.0438 13.595 36.904C13.595 36.7642 13.4831 36.6508 13.3451 36.6508L13.2491 36.6511V7.5524H43.2233V36.6511H43.1273C42.9893 36.6511 42.8774 36.7645 42.8774 36.9043C42.8774 37.0441 42.9893 37.1575 43.1273 37.1575L43.2236 37.1572L43.2233 50.0616Z" fill="#FF595E"/>
<path d="M16.2463 45.0014H24.2396V40.9529H16.2463V45.0014ZM16.7459 41.4589H23.7398V44.4954H16.7459V41.4589Z" fill="#FF595E"/>
<path d="M36.2295 45.0014H40.2261V40.9528H36.2295V45.0014ZM36.7293 41.4588H39.7269V44.4954H36.7293V41.4588Z" fill="#FF595E"/>
<path d="M34.231 40.9529H26.2378V45.0014H34.231V40.9529ZM27.5024 44.6092H27.2586V41.3449H27.5024V44.6092ZM27.859 44.6092H27.6968V41.3449H27.8597L27.859 44.6092ZM29.0081 44.6092H28.2464V41.3449H29.0081V44.6092ZM29.4457 44.6092H29.2025V41.3449H29.4457V44.6092ZM30.0121 44.6092H29.6395V41.3449H30.0121V44.6092ZM30.6837 44.6092H30.2062V41.3449H30.6837V44.6092ZM31.6573 44.6092H31.0706V41.3449H31.6573V44.6092ZM32.668 44.6092H32.0446V41.3449H32.668V44.6092ZM33.3393 44.6092H33.055V41.3449H33.3393V44.6092Z" fill="#FF595E"/>
<path d="M34.231 46.5196H40.2257V47.5317H34.231V46.5196Z" fill="#FF595E"/>
<path d="M34.2307 12.613H16.2463V20.7102H34.2307V12.613ZM33.7312 20.2039H16.7461V13.119H33.7312V20.2039Z" fill="#FF595E"/>
<path d="M40.2261 10.5889H36.2295V14.6375H40.2261V10.5889ZM39.7266 14.1311H36.729L36.7293 11.0949H39.7269L39.7266 14.1311Z" fill="#FF595E"/>
<path d="M40.2261 16.6614H36.2295V20.71H40.2261V16.6614ZM39.7266 20.2036H36.729V17.1671H39.7266V20.2036Z" fill="#FF595E"/>
<path d="M16.2463 10.0829H30.2341V11.095H16.2463V10.0829Z" fill="#FF595E"/>
<path d="M16.2463 26.2766H38.2273V27.2887H16.2463V26.2766Z" fill="#FF595E"/>
<path d="M16.2463 28.5542H32.2328V29.0603H16.2463V28.5542Z" fill="#FF595E"/>
<path d="M16.2463 30.5781H32.2328V31.0841H16.2463V30.5781Z" fill="#FF595E"/>
<path d="M16.2463 32.6028H32.2328V33.1088H16.2463V32.6028Z" fill="#FF595E"/>
</g>
<rect x="0.759766" y="1.33091" width="56.094" height="56.094" rx="9.5" stroke="#D6D6D6"/>
<defs>
<filter id="filter0_b_2987_15816" x="-71.1078" y="-70.5366" width="199.829" height="199.829" filterUnits="userSpaceOnUse" color-interpolation-filters="sRGB">
<feFlood flood-opacity="0" result="BackgroundImageFix"/>
<feGaussianBlur in="BackgroundImageFix" stdDeviation="35.6838"/>
<feComposite in2="SourceAlpha" operator="in" result="effect1_backgroundBlur_2987_15816"/>
<feBlend mode="normal" in="SourceGraphic" in2="effect1_backgroundBlur_2987_15816" result="shape"/>
</filter>
<clipPath id="clip0_2987_15816">
<rect x="0.259766" y="0.83091" width="57.094" height="57.094" rx="10" fill="white"/>
</clipPath>
</defs>
</svg>
