<svg width="58" height="58" viewBox="0 0 58 58" fill="none" xmlns="http://www.w3.org/2000/svg">
<g clip-path="url(#clip0_3025_15814)">
<g filter="url(#filter0_b_3025_15814)">
<rect x="0.260254" y="0.83091" width="57.094" height="57.094" rx="11.4188" fill="white"/>
<rect x="0.617092" y="1.18775" width="56.3803" height="56.3803" rx="11.062" stroke="white" stroke-width="0.713675"/>
</g>
<path d="M30.5566 36.6514C30.4186 36.6514 30.3066 36.7648 30.3066 36.9046C30.3066 37.0444 30.4186 37.1578 30.5566 37.1578H30.7498C30.8877 37.1578 30.9997 37.0444 30.9997 36.9046C30.9997 36.7648 30.8877 36.6514 30.7498 36.6514H30.5566Z" fill="#1976D2"/>
<path d="M31.5243 36.6514C31.3863 36.6514 31.2744 36.7648 31.2744 36.9046C31.2744 37.0444 31.3863 37.1578 31.5243 37.1578H31.7175C31.8555 37.1578 31.9675 37.0444 31.9675 36.9046C31.9675 36.7648 31.8555 36.6514 31.7175 36.6514H31.5243Z" fill="#1976D2"/>
<path d="M29.5932 36.6514C29.4552 36.6514 29.3433 36.7648 29.3433 36.9046C29.3433 37.0444 29.4552 37.1578 29.5932 37.1578H29.7864C29.9244 37.1578 30.0363 37.0444 30.0363 36.9046C30.0363 36.7648 29.9244 36.6514 29.7864 36.6514H29.5932Z" fill="#1976D2"/>
<path d="M32.4921 36.6514C32.3541 36.6514 32.2422 36.7648 32.2422 36.9046C32.2422 37.0444 32.3541 37.1577 32.4921 37.1577H32.6853C32.8233 37.1577 32.9352 37.0444 32.9352 36.9046C32.9352 36.7648 32.8233 36.6514 32.6853 36.6514H32.4921Z" fill="#1976D2"/>
<path d="M22.8222 36.6514C22.6842 36.6514 22.5723 36.7648 22.5723 36.9046C22.5723 37.0444 22.6842 37.1577 22.8222 37.1577H23.0154C23.1534 37.1577 23.2653 37.0444 23.2653 36.9046C23.2653 36.7648 23.1534 36.6514 23.0154 36.6514H22.8222Z" fill="#1976D2"/>
<path d="M26.6894 36.6514C26.5514 36.6514 26.4395 36.7648 26.4395 36.9046C26.4395 37.0444 26.5514 37.1578 26.6894 37.1578H26.8826C27.0206 37.1578 27.1325 37.0444 27.1325 36.9046C27.1325 36.7648 27.0206 36.6514 26.8826 36.6514H26.6894Z" fill="#1976D2"/>
<path d="M23.79 36.6514C23.652 36.6514 23.54 36.7648 23.54 36.9046C23.54 37.0444 23.652 37.1578 23.79 37.1578H23.9832C24.1211 37.1578 24.2331 37.0444 24.2331 36.9046C24.2331 36.7648 24.1211 36.6514 23.9832 36.6514H23.79Z" fill="#1976D2"/>
<path d="M27.6571 36.6514C27.5192 36.6514 27.4072 36.7648 27.4072 36.9046C27.4072 37.0444 27.5192 37.1577 27.6571 37.1577H27.8503C27.9883 37.1577 28.1003 37.0444 28.1003 36.9046C28.1003 36.7648 27.9883 36.6514 27.8503 36.6514H27.6571Z" fill="#1976D2"/>
<path d="M38.2953 36.6514C38.1573 36.6514 38.0454 36.7648 38.0454 36.9046C38.0454 37.0444 38.1573 37.1578 38.2953 37.1578H38.4885C38.6265 37.1578 38.7384 37.0444 38.7384 36.9046C38.7384 36.7648 38.6265 36.6514 38.4885 36.6514H38.2953Z" fill="#1976D2"/>
<path d="M37.3276 36.6514C37.1896 36.6514 37.0776 36.7648 37.0776 36.9046C37.0776 37.0444 37.1896 37.1578 37.3276 37.1578H37.5207C37.6587 37.1578 37.7707 37.0444 37.7707 36.9046C37.7707 36.7648 37.6587 36.6514 37.5207 36.6514H37.3276Z" fill="#1976D2"/>
<path d="M39.2587 36.6514C39.1207 36.6514 39.0088 36.7648 39.0088 36.9046C39.0088 37.0444 39.1207 37.1578 39.2587 37.1578H39.4519C39.5899 37.1578 39.7018 37.0444 39.7018 36.9046C39.7018 36.7648 39.5899 36.6514 39.4519 36.6514H39.2587Z" fill="#1976D2"/>
<path d="M34.4238 36.6514C34.2858 36.6514 34.1738 36.7648 34.1738 36.9046C34.1738 37.0444 34.2858 37.1578 34.4238 37.1578H34.6169C34.7549 37.1578 34.8669 37.0444 34.8669 36.9046C34.8669 36.7648 34.7549 36.6514 34.6169 36.6514H34.4238Z" fill="#1976D2"/>
<path d="M33.4604 36.6514C33.3224 36.6514 33.2104 36.7648 33.2104 36.9046C33.2104 37.0444 33.3224 37.1578 33.4604 37.1578H33.6536C33.7916 37.1578 33.9035 37.0444 33.9035 36.9046C33.9035 36.7648 33.7916 36.6514 33.6536 36.6514H33.4604Z" fill="#1976D2"/>
<path d="M35.3915 36.6514C35.2535 36.6514 35.1416 36.7648 35.1416 36.9046C35.1416 37.0444 35.2535 37.1578 35.3915 37.1578H35.5847C35.7227 37.1578 35.8346 37.0444 35.8346 36.9046C35.8346 36.7648 35.7227 36.6514 35.5847 36.6514H35.3915Z" fill="#1976D2"/>
<path d="M36.3598 36.6514C36.2218 36.6514 36.1099 36.7648 36.1099 36.9046C36.1099 37.0444 36.2218 37.1577 36.3598 37.1577H36.553C36.691 37.1577 36.8029 37.0444 36.8029 36.9046C36.8029 36.7648 36.691 36.6514 36.553 36.6514H36.3598Z" fill="#1976D2"/>
<path d="M28.6249 36.6514C28.4869 36.6514 28.375 36.7648 28.375 36.9046C28.375 37.0444 28.4869 37.1578 28.6249 37.1578H28.8181C28.9561 37.1578 29.068 37.0444 29.068 36.9046C29.068 36.7648 28.9561 36.6514 28.8181 36.6514H28.6249Z" fill="#1976D2"/>
<path d="M15.2802 36.6514H15.0873C14.9493 36.6514 14.8374 36.7648 14.8374 36.9046C14.8374 37.0444 14.9493 37.1577 15.0873 37.1577H15.2805C15.4185 37.1577 15.5304 37.0444 15.5304 36.9046C15.5304 36.7648 15.4188 36.6514 15.2802 36.6514Z" fill="#1976D2"/>
<path d="M42.3557 36.6514H42.1625C42.0245 36.6514 41.9126 36.7648 41.9126 36.9046C41.9126 37.0444 42.0245 37.1578 42.1625 37.1578H42.3557C42.4937 37.1578 42.6056 37.0444 42.6056 36.9046C42.6056 36.7648 42.4937 36.6514 42.3557 36.6514Z" fill="#1976D2"/>
<path d="M24.9509 36.6514H24.7577C24.6197 36.6514 24.5078 36.7648 24.5078 36.9046C24.5078 37.0444 24.6197 37.1578 24.7577 37.1578H24.9509C25.0889 37.1578 25.2008 37.0444 25.2008 36.9046C25.2005 36.7648 25.0889 36.6514 24.9509 36.6514Z" fill="#1976D2"/>
<path d="M16.4987 36.9043C16.4987 36.7645 16.3868 36.6511 16.2488 36.6511L16.0556 36.6514C15.9176 36.6514 15.8057 36.7648 15.8057 36.9046C15.8057 37.0444 15.9176 37.1578 16.0556 37.1578H16.2488C16.3868 37.1575 16.4987 37.0441 16.4987 36.9043Z" fill="#1976D2"/>
<path d="M41.3879 36.6514H41.1947C41.0568 36.6514 40.9448 36.7648 40.9448 36.9046C40.9448 37.0444 41.0568 37.1578 41.1947 37.1578H41.3879C41.5259 37.1578 41.6379 37.0444 41.6379 36.9046C41.6376 36.7648 41.5262 36.6514 41.3879 36.6514Z" fill="#1976D2"/>
<path d="M40.4202 36.6514H40.227C40.089 36.6514 39.9771 36.7648 39.9771 36.9046C39.9771 37.0444 40.089 37.1578 40.227 37.1578H40.4202C40.5582 37.1578 40.6701 37.0444 40.6701 36.9046C40.6701 36.7648 40.5582 36.6514 40.4202 36.6514Z" fill="#1976D2"/>
<path d="M21.8539 36.6514C21.7159 36.6514 21.604 36.7648 21.604 36.9046C21.604 37.0444 21.7159 37.1578 21.8539 37.1578H22.0471C22.1851 37.1578 22.297 37.0444 22.297 36.9046C22.297 36.7648 22.1851 36.6514 22.0471 36.6514H21.8539Z" fill="#1976D2"/>
<path d="M25.9143 36.6514H25.7211C25.5831 36.6514 25.4712 36.7648 25.4712 36.9046C25.4712 37.0444 25.5831 37.1578 25.7211 37.1578H25.9143C26.0523 37.1578 26.1642 37.0444 26.1642 36.9046C26.1642 36.7648 26.0529 36.6514 25.9143 36.6514Z" fill="#1976D2"/>
<path d="M19.9228 36.6514C19.7848 36.6514 19.6729 36.7648 19.6729 36.9046C19.6729 37.0444 19.7848 37.1578 19.9228 37.1578H20.116C20.254 37.1578 20.3659 37.0444 20.3659 36.9046C20.3659 36.7648 20.254 36.6514 20.116 36.6514H19.9228Z" fill="#1976D2"/>
<path d="M18.9545 36.6514C18.8165 36.6514 18.7046 36.7648 18.7046 36.9046C18.7046 37.0444 18.8165 37.1577 18.9545 37.1577H19.1477C19.2857 37.1577 19.3976 37.0444 19.3976 36.9046C19.3976 36.7648 19.2857 36.6514 19.1477 36.6514H18.9545Z" fill="#1976D2"/>
<path d="M17.9867 36.6514C17.8487 36.6514 17.7368 36.7648 17.7368 36.9046C17.7368 37.0444 17.8487 37.1578 17.9867 37.1578H18.1799C18.3179 37.1578 18.4299 37.0444 18.4299 36.9046C18.4299 36.7648 18.3179 36.6514 18.1799 36.6514H17.9867Z" fill="#1976D2"/>
<path d="M20.8905 36.6514C20.7526 36.6514 20.6406 36.7648 20.6406 36.9046C20.6406 37.0444 20.7526 37.1578 20.8905 37.1578H21.0837C21.2217 37.1578 21.3337 37.0444 21.3337 36.9046C21.3337 36.7648 21.2217 36.6514 21.0837 36.6514H20.8905Z" fill="#1976D2"/>
<path d="M14.3127 36.6514H14.1196C13.9816 36.6514 13.8696 36.7648 13.8696 36.9046C13.8696 37.0444 13.9816 37.1577 14.1196 37.1577H14.3127C14.4507 37.1577 14.5627 37.0444 14.5627 36.9046C14.5627 36.7648 14.4507 36.6514 14.3127 36.6514Z" fill="#1976D2"/>
<path d="M17.019 36.6514C16.881 36.6514 16.769 36.7648 16.769 36.9046C16.769 37.0444 16.881 37.1578 17.019 37.1578H17.2122C17.3501 37.1578 17.4621 37.0444 17.4621 36.9046C17.4621 36.7648 17.3501 36.6514 17.2122 36.6514H17.019Z" fill="#1976D2"/>
<path d="M43.7236 6.54031H12.75C12.4743 6.54031 12.2505 6.76709 12.2505 7.04635V50.5676C12.2505 50.8469 12.4743 51.0737 12.75 51.0737H43.7236C43.9993 51.0737 44.2231 50.8469 44.2231 50.5676V7.04635C44.2231 6.76709 43.9993 6.54031 43.7236 6.54031V6.54031ZM43.2241 50.0616H13.2498V37.1572H13.3458C13.4838 37.1572 13.5957 37.0438 13.5957 36.904C13.5957 36.7642 13.4838 36.6508 13.3458 36.6508L13.2498 36.6511V7.5524H43.2241V36.6511H43.1281C42.9901 36.6511 42.8781 36.7645 42.8781 36.9043C42.8781 37.0441 42.9901 37.1575 43.1281 37.1575L43.2244 37.1572L43.2241 50.0616Z" fill="#1976D2"/>
<path d="M16.2471 45.0014H24.2403V40.9529H16.2471V45.0014ZM16.7466 41.4589H23.7405V44.4954H16.7466V41.4589Z" fill="#1976D2"/>
<path d="M36.23 45.0014H40.2266V40.9528H36.23V45.0014ZM36.7298 41.4588H39.7274V44.4954H36.7298V41.4588Z" fill="#1976D2"/>
<path d="M34.232 40.9529H26.2388V45.0014H34.232V40.9529ZM27.5034 44.6092H27.2596V41.3449H27.5034V44.6092ZM27.86 44.6092H27.6978V41.3449H27.8606L27.86 44.6092ZM29.0091 44.6092H28.2474V41.3449H29.0091V44.6092ZM29.4467 44.6092H29.2035V41.3449H29.4467V44.6092ZM30.0131 44.6092H29.6405V41.3449H30.0131V44.6092ZM30.6846 44.6092H30.2072V41.3449H30.6846V44.6092ZM31.6582 44.6092H31.0716V41.3449H31.6582V44.6092ZM32.669 44.6092H32.0455V41.3449H32.669V44.6092ZM33.3402 44.6092H33.056V41.3449H33.3402V44.6092Z" fill="#1976D2"/>
<path d="M34.2319 46.5196H40.2267V47.5317H34.2319V46.5196Z" fill="#1976D2"/>
<path d="M34.2314 12.613H16.2471V20.7102H34.2314V12.613ZM33.7319 20.2039H16.7469V13.119H33.7319V20.2039Z" fill="#1976D2"/>
<path d="M40.2266 10.5889H36.23V14.6375H40.2266V10.5889ZM39.7271 14.1311H36.7295L36.7298 11.0949H39.7274L39.7271 14.1311Z" fill="#1976D2"/>
<path d="M40.2266 16.6614H36.23V20.71H40.2266V16.6614ZM39.7271 20.2036H36.7295V17.1671H39.7271V20.2036Z" fill="#1976D2"/>
<path d="M16.2471 10.0829H30.2348V11.095H16.2471V10.0829Z" fill="#1976D2"/>
<path d="M16.2471 26.2766H38.2281V27.2887H16.2471V26.2766Z" fill="#1976D2"/>
<path d="M16.2471 28.5542H32.2335V29.0603H16.2471V28.5542Z" fill="#1976D2"/>
<path d="M16.2471 30.5781H32.2335V31.0841H16.2471V30.5781Z" fill="#1976D2"/>
<path d="M16.2471 32.6028H32.2335V33.1088H16.2471V32.6028Z" fill="#1976D2"/>
</g>
<rect x="0.760254" y="1.33091" width="56.094" height="56.094" rx="9.5" stroke="#D6D6D6"/>
<defs>
<filter id="filter0_b_3025_15814" x="-71.1073" y="-70.5366" width="199.829" height="199.829" filterUnits="userSpaceOnUse" color-interpolation-filters="sRGB">
<feFlood flood-opacity="0" result="BackgroundImageFix"/>
<feGaussianBlur in="BackgroundImageFix" stdDeviation="35.6838"/>
<feComposite in2="SourceAlpha" operator="in" result="effect1_backgroundBlur_3025_15814"/>
<feBlend mode="normal" in="SourceGraphic" in2="effect1_backgroundBlur_3025_15814" result="shape"/>
</filter>
<clipPath id="clip0_3025_15814">
<rect x="0.260254" y="0.83091" width="57.094" height="57.094" rx="10" fill="white"/>
</clipPath>
</defs>
</svg>
