<svg width="58" height="58" viewBox="0 0 58 58" fill="none" xmlns="http://www.w3.org/2000/svg">
<g clip-path="url(#clip0_2987_15796)">
<g filter="url(#filter0_b_2987_15796)">
<rect x="0.405029" y="0.716377" width="57.094" height="57.094" rx="11.4188" fill="white"/>
<rect x="0.761867" y="1.07321" width="56.3803" height="56.3803" rx="11.062" stroke="white" stroke-width="0.713675"/>
</g>
<path d="M43.6057 18.3013H36.9067V10.9933H35.6886V25.0004C35.6886 25.1619 35.7528 25.3168 35.867 25.431C35.9812 25.5452 36.1362 25.6094 36.2977 25.6094H38.3623L28.3809 31.5983L18.3995 25.6094H20.4641C20.6256 25.6094 20.7806 25.5452 20.8948 25.431C21.009 25.3168 21.0731 25.1619 21.0731 25.0004V10.9933H19.8551V18.3013H13.1561C12.3489 18.3024 11.5748 18.6235 11.0039 19.1942C10.4332 19.7651 10.1122 20.5391 10.1111 21.3464V38.3984C10.1122 39.2057 10.4333 39.9797 11.0039 40.5506C11.5749 41.1213 12.3489 41.4423 13.1561 41.4434H23.1326L21.9146 43.8795H10.7201C10.3838 43.8795 10.1111 44.1521 10.1111 44.4885C10.1111 47.5335 13.32 47.5335 14.3741 47.5335H42.3882C43.4423 47.5335 46.6513 47.5335 46.6513 44.4885C46.6513 44.327 46.5871 44.172 46.4729 44.0578C46.3587 43.9436 46.2037 43.8795 46.0423 43.8795H34.8477L33.6297 41.4434H43.6062C44.4135 41.4424 45.1875 41.1213 45.7584 40.5506C46.3291 39.9797 46.6501 39.2057 46.6513 38.3984V21.3464C46.6502 20.5391 46.3291 19.7651 45.7584 19.1942C45.1875 18.6235 44.4135 18.3024 43.6062 18.3013H43.6057ZM16.2006 24.3914C15.927 24.3914 15.687 24.5741 15.6138 24.8375C15.5407 25.1012 15.6525 25.3813 15.8868 25.5224L28.0669 32.8304C28.2599 32.9462 28.5013 32.9462 28.6944 32.8304L40.8744 25.5224C41.1088 25.3813 41.2205 25.1012 41.1474 24.8375C41.0742 24.5741 40.8342 24.3914 40.5607 24.3914H36.9067V21.9554H42.9967V36.5714H13.7645V21.9554H19.8546V24.3914H16.2006ZM42.3877 46.3155H14.3735C12.3497 46.3155 11.6148 45.847 11.4022 45.0975H45.3588C45.1462 45.8471 44.4114 46.3155 42.3875 46.3155H42.3877ZM33.4851 43.8795H23.2754L24.4934 41.4434H32.2671L33.4851 43.8795ZM45.4327 38.3984C45.4327 38.8829 45.2402 39.3478 44.8976 39.6904C44.5551 40.0329 44.0901 40.2254 43.6057 40.2254H13.1556C12.6711 40.2254 12.2062 40.0329 11.8637 39.6904C11.5212 39.3478 11.3286 38.8828 11.3286 38.3984V21.3464C11.3286 20.8619 11.5211 20.3969 11.8637 20.0544C12.2062 19.7119 12.6712 19.5194 13.1556 19.5194H19.8546V20.7374H13.1556C12.8193 20.7374 12.5466 21.0101 12.5466 21.3464V37.1805C12.5466 37.342 12.6107 37.4969 12.7249 37.6111C12.8391 37.7253 12.9941 37.7895 13.1556 37.7895H43.6057C43.7672 37.7895 43.9222 37.7253 44.0364 37.6111C44.1506 37.4969 44.2147 37.342 44.2147 37.1805V21.3464C44.2147 21.1849 44.1506 21.0299 44.0364 20.9157C43.9222 20.8015 43.7672 20.7374 43.6057 20.7374H36.9067V19.5194H43.6057C44.0902 19.5194 44.5551 19.7119 44.8976 20.0544C45.2401 20.397 45.4327 20.8619 45.4327 21.3464V38.3984Z" fill="#FF595E"/>
<path d="M22.8994 23.3558V25.6091H24.1174V23.3558C24.1174 22.8229 24.3292 22.3115 24.706 21.9347C25.0829 21.5578 25.5943 21.3461 26.1271 21.3461H30.6338C31.1666 21.3461 31.678 21.5578 32.0549 21.9347C32.4317 22.3115 32.6435 22.8229 32.6435 23.3558V25.6091H33.8615V23.3558C33.8631 22.5695 33.5765 21.8099 33.0565 21.2204C32.5361 20.6307 31.8178 20.2523 31.0375 20.156C31.9877 19.4084 32.5723 18.2899 32.6435 17.083C32.6435 13.0563 30.3249 12.211 28.3804 12.211C26.4359 12.211 24.1174 13.0563 24.1174 17.083C24.1881 18.2905 24.7726 19.4101 25.7234 20.158C24.9434 20.2539 24.2254 20.6324 23.7053 21.2215C23.1849 21.8107 22.8983 22.5698 22.8994 23.3558ZM25.42 17.6586C26.4626 17.5727 28.3432 17.2573 29.2203 16.1032L31.3969 17.409C31.1525 18.9022 29.3152 20.128 28.3804 20.128C27.7133 20.0144 27.088 19.7262 26.5678 19.2928C26.048 18.8595 25.6519 18.2962 25.42 17.6605V17.6586ZM28.3804 13.429C30.1088 13.429 31.0601 14.2463 31.3322 15.9515L29.3029 14.7335H29.3032C29.1447 14.6386 28.9517 14.6204 28.7785 14.6845C28.6053 14.7487 28.4704 14.8879 28.412 15.063C28.104 15.9873 26.4401 16.337 25.367 16.4381C25.5323 14.3975 26.4925 13.429 28.3805 13.429L28.3804 13.429Z" fill="#FF595E"/>
<path d="M39.3408 35.3534H40.5588V34.1354H41.7768V32.9174H40.5588V31.6994H39.3408V32.9174H38.1228V34.1354H39.3408V35.3534Z" fill="#FF595E"/>
</g>
<rect x="0.905029" y="1.21638" width="56.094" height="56.094" rx="9.5" stroke="#D6D6D6"/>
<defs>
<filter id="filter0_b_2987_15796" x="-70.9625" y="-70.6511" width="199.829" height="199.829" filterUnits="userSpaceOnUse" color-interpolation-filters="sRGB">
<feFlood flood-opacity="0" result="BackgroundImageFix"/>
<feGaussianBlur in="BackgroundImageFix" stdDeviation="35.6838"/>
<feComposite in2="SourceAlpha" operator="in" result="effect1_backgroundBlur_2987_15796"/>
<feBlend mode="normal" in="SourceGraphic" in2="effect1_backgroundBlur_2987_15796" result="shape"/>
</filter>
<clipPath id="clip0_2987_15796">
<rect x="0.405029" y="0.716377" width="57.094" height="57.094" rx="10" fill="white"/>
</clipPath>
</defs>
</svg>
