<svg width="58" height="58" viewBox="0 0 58 58" fill="none" xmlns="http://www.w3.org/2000/svg">
<g clip-path="url(#clip0_3025_15794)">
<g filter="url(#filter0_b_3025_15794)">
<rect x="0.405029" y="0.83091" width="57.094" height="57.094" rx="11.4188" fill="white"/>
<rect x="0.761867" y="1.18775" width="56.3803" height="56.3803" rx="11.062" stroke="white" stroke-width="0.713675"/>
</g>
<path d="M43.6057 18.4159H36.9067V11.1078H35.6886V25.1149C35.6886 25.2764 35.7528 25.4314 35.867 25.5456C35.9812 25.6597 36.1362 25.7239 36.2977 25.7239H38.3623L28.3809 31.7128L18.3995 25.7239H20.4641C20.6256 25.7239 20.7806 25.6597 20.8948 25.5456C21.009 25.4314 21.0731 25.2764 21.0731 25.1149V11.1078H19.8551V18.4159H13.1561C12.3489 18.417 11.5748 18.738 11.0039 19.3087C10.4332 19.8796 10.1122 20.6537 10.1111 21.4609V38.513C10.1122 39.3202 10.4333 40.0942 11.0039 40.6651C11.5749 41.2358 12.3489 41.5569 13.1561 41.558H23.1326L21.9146 43.994H10.7201C10.3838 43.994 10.1111 44.2667 10.1111 44.603C10.1111 47.648 13.32 47.648 14.3741 47.648H42.3882C43.4423 47.648 46.6513 47.648 46.6513 44.603C46.6513 44.4415 46.5871 44.2865 46.4729 44.1723C46.3587 44.0582 46.2037 43.994 46.0423 43.994H34.8477L33.6297 41.558H43.6062C44.4135 41.5569 45.1875 41.2358 45.7584 40.6651C46.3291 40.0942 46.6501 39.3202 46.6513 38.513V21.4609C46.6502 20.6537 46.3291 19.8796 45.7584 19.3087C45.1875 18.738 44.4135 18.417 43.6062 18.4159H43.6057ZM16.2006 24.5059C15.927 24.5059 15.687 24.6886 15.6138 24.952C15.5407 25.2158 15.6525 25.4958 15.8868 25.6369L28.0669 32.9449C28.2599 33.0608 28.5013 33.0608 28.6944 32.9449L40.8744 25.6369C41.1088 25.4958 41.2205 25.2158 41.1474 24.952C41.0742 24.6886 40.8342 24.5059 40.5607 24.5059H36.9067V22.0699H42.9967V36.686H13.7645V22.0699H19.8546V24.5059H16.2006ZM42.3877 46.43H14.3735C12.3497 46.43 11.6148 45.9616 11.4022 45.212H45.3588C45.1462 45.9616 44.4114 46.43 42.3875 46.43H42.3877ZM33.4851 43.994H23.2754L24.4934 41.558H32.2671L33.4851 43.994ZM45.4327 38.513C45.4327 38.9974 45.2402 39.4624 44.8976 39.8049C44.5551 40.1474 44.0901 40.3399 43.6057 40.3399H13.1556C12.6711 40.3399 12.2062 40.1475 11.8637 39.8049C11.5212 39.4623 11.3286 38.9974 11.3286 38.513V21.4609C11.3286 20.9764 11.5211 20.5115 11.8637 20.169C12.2062 19.8265 12.6712 19.6339 13.1556 19.6339H19.8546V20.8519H13.1556C12.8193 20.8519 12.5466 21.1246 12.5466 21.4609V37.295C12.5466 37.4565 12.6107 37.6115 12.7249 37.7256C12.8391 37.8398 12.9941 37.904 13.1556 37.904H43.6057C43.7672 37.904 43.9222 37.8398 44.0364 37.7256C44.1506 37.6115 44.2147 37.4565 44.2147 37.295V21.4609C44.2147 21.2994 44.1506 21.1445 44.0364 21.0303C43.9222 20.9161 43.7672 20.8519 43.6057 20.8519H36.9067V19.6339H43.6057C44.0902 19.6339 44.5551 19.8264 44.8976 20.169C45.2401 20.5115 45.4327 20.9765 45.4327 21.4609V38.513Z" fill="#1976D2"/>
<path d="M22.8994 23.4703V25.7236H24.1174V23.4703C24.1174 22.9374 24.3292 22.426 24.706 22.0492C25.0829 21.6724 25.5943 21.4606 26.1271 21.4606H30.6338C31.1666 21.4606 31.678 21.6724 32.0549 22.0492C32.4317 22.426 32.6435 22.9374 32.6435 23.4703V25.7236H33.8615V23.4703C33.8631 22.684 33.5765 21.9244 33.0565 21.335C32.5361 20.7453 31.8178 20.3668 31.0375 20.2706C31.9877 19.5229 32.5723 18.4044 32.6435 17.1976C32.6435 13.1708 30.3249 12.3255 28.3804 12.3255C26.4359 12.3255 24.1174 13.1708 24.1174 17.1976C24.1881 18.405 24.7726 19.5246 25.7234 20.2725C24.9434 20.3685 24.2254 20.7469 23.7053 21.3361C23.1849 21.9252 22.8983 22.6843 22.8994 23.4703ZM25.42 17.7732C26.4626 17.6872 28.3432 17.3719 29.2203 16.2177L31.3969 17.5236C31.1525 19.0167 29.3152 20.2426 28.3804 20.2426C27.7133 20.1289 27.088 19.8407 26.5678 19.4074C26.048 18.974 25.6519 18.4107 25.42 17.775V17.7732ZM28.3804 13.5435C30.1088 13.5435 31.0601 14.3608 31.3322 16.066L29.3029 14.848H29.3032C29.1447 14.7531 28.9517 14.7349 28.7785 14.7991C28.6053 14.8632 28.4704 15.0024 28.412 15.1775C28.104 16.1019 26.4401 16.4515 25.367 16.5527C25.5323 14.512 26.4925 13.5436 28.3805 13.5436L28.3804 13.5435Z" fill="#1976D2"/>
<path d="M39.3408 35.4679H40.5588V34.2499H41.7768V33.0319H40.5588V31.8139H39.3408V33.0319H38.1228V34.2499H39.3408V35.4679Z" fill="#1976D2"/>
</g>
<rect x="0.905029" y="1.33091" width="56.094" height="56.094" rx="9.5" stroke="#D6D6D6"/>
<defs>
<filter id="filter0_b_3025_15794" x="-70.9625" y="-70.5366" width="199.829" height="199.829" filterUnits="userSpaceOnUse" color-interpolation-filters="sRGB">
<feFlood flood-opacity="0" result="BackgroundImageFix"/>
<feGaussianBlur in="BackgroundImageFix" stdDeviation="35.6838"/>
<feComposite in2="SourceAlpha" operator="in" result="effect1_backgroundBlur_3025_15794"/>
<feBlend mode="normal" in="SourceGraphic" in2="effect1_backgroundBlur_3025_15794" result="shape"/>
</filter>
<clipPath id="clip0_3025_15794">
<rect x="0.405029" y="0.83091" width="57.094" height="57.094" rx="10" fill="white"/>
</clipPath>
</defs>
</svg>
