<svg width="58" height="58" viewBox="0 0 58 58" fill="none" xmlns="http://www.w3.org/2000/svg">
<g clip-path="url(#clip0_2987_15875)">
<g filter="url(#filter0_b_2987_15875)">
<rect x="0.259766" y="0.059967" width="57.094" height="57.094" rx="11.4188" fill="white"/>
<rect x="0.616603" y="0.416805" width="56.3803" height="56.3803" rx="11.062" stroke="white" stroke-width="0.713675"/>
</g>
<path d="M24.2293 20.7776H24.3416C24.5625 20.7776 24.7418 21.0015 24.7418 21.1833V21.7921C24.7418 22.0161 24.5628 22.1978 24.3416 22.1978H24.2293C24.0084 22.1978 23.8291 21.9739 23.8291 21.7921V21.1833C23.8291 20.9593 24.0081 20.7776 24.2293 20.7776Z" fill="#FF595E"/>
<path d="M28.7256 20.7776H28.8379C29.0588 20.7776 29.2381 21.0015 29.2381 21.1833V21.7921C29.2381 22.0161 29.0591 22.1978 28.8379 22.1978H28.7256C28.5047 22.1978 28.3254 21.9739 28.3254 21.7921V21.1833C28.3254 20.9593 28.5044 20.7776 28.7256 20.7776Z" fill="#FF595E"/>
<path d="M48.3623 40.9106H44.58C44.3434 40.9106 44.1516 41.1048 44.1516 41.3449C44.1516 41.5846 44.3434 41.7791 44.58 41.7791H47.9339V44.0136H42.9598C43.469 43.1339 43.7367 42.1327 43.7361 41.1129V32.9361C45.1095 32.8254 46.3915 32.1948 47.3272 31.1694C48.2625 30.1437 48.783 28.7991 48.7845 27.4022V22.0413C48.7845 21.9262 48.7395 21.8158 48.6591 21.7342C48.5789 21.6527 48.47 21.6071 48.3562 21.6071H46.6489C46.4475 21.1617 45.9672 20.9185 45.4951 21.023C45.023 21.1276 44.6864 21.5512 44.6864 22.0413C44.6864 22.5313 45.023 22.955 45.4951 23.0595C45.9672 23.1641 46.4476 22.9209 46.6489 22.4755H47.9339V27.4021C47.9339 29.0755 47.0533 30.6216 45.6239 31.4585C44.1944 32.295 42.433 32.295 41.0035 31.4585C39.574 30.6216 38.6934 29.0755 38.6934 27.4021V22.4755H39.8928C40.0941 22.9209 40.5745 23.1641 41.0466 23.0595C41.5187 22.955 41.8555 22.5313 41.8555 22.0413C41.8555 21.5512 41.5187 21.1275 41.0466 21.023C40.5745 20.9185 40.0941 21.1617 39.8928 21.6071H38.2651C38.0286 21.6071 37.8367 21.8015 37.8367 22.0413V27.4022C37.8382 28.7979 38.3578 30.1422 39.2922 31.1673C40.2263 32.1927 41.5071 32.8242 42.8794 32.9361V41.1129C42.88 42.1572 42.5495 43.174 41.937 44.0136H34.1599C33.5465 43.1733 33.216 42.1554 33.2176 41.1105V39.4604C34.1655 39.3131 34.9751 38.6887 35.3679 37.8019C35.7611 36.9149 35.6837 35.8867 35.1626 35.0707C34.6418 34.2543 33.7481 33.7615 32.7892 33.7615C31.83 33.7615 30.9366 34.2543 30.4155 35.0707C29.8944 35.8867 29.8173 36.9149 30.2102 37.8019C30.603 38.6887 31.4127 39.313 32.3608 39.4604V41.1105C32.3596 42.1309 32.6273 43.1331 33.1361 44.0136H11.1527C10.9159 44.0136 10.7244 44.208 10.7244 44.4478C10.7244 44.6875 10.9159 44.882 11.1527 44.882H33.7502C34.8285 46.1487 36.3975 46.877 38.0478 46.877C39.6985 46.877 41.2672 46.1487 42.3457 44.882H48.3622C48.4757 44.882 48.5847 44.8364 48.6651 44.7549C48.7456 44.6733 48.7906 44.5629 48.7906 44.4478V41.3449C48.7906 41.2295 48.7456 41.1191 48.6651 41.0379C48.5847 40.9563 48.4757 40.9107 48.3622 40.9107L48.3623 40.9106ZM45.7065 22.2155C45.6102 22.2155 45.5318 22.1361 45.5318 22.0384C45.5318 21.9403 45.6102 21.8613 45.7065 21.8613C45.7849 21.8606 45.8537 21.9137 45.8736 21.9906C45.8678 22.0222 45.8678 22.0545 45.8736 22.0861C45.8537 22.1627 45.7849 22.2161 45.7065 22.2155V22.2155ZM40.8233 21.8681C40.8924 21.8681 40.9552 21.9103 40.9815 21.9754C41.0081 22.0402 40.9934 22.115 40.9445 22.1646C40.8955 22.2142 40.8218 22.2291 40.7578 22.2021C40.6936 22.1755 40.6519 22.1119 40.6519 22.0418C40.6519 21.9459 40.7287 21.8681 40.8233 21.8681L40.8233 21.8681ZM30.8177 36.6321C30.8177 36.1023 31.0252 35.5943 31.3948 35.2196C31.7644 34.8449 32.2656 34.6346 32.7882 34.6346C33.3108 34.6346 33.8119 34.8449 34.1815 35.2196C34.5508 35.5943 34.7586 36.1023 34.7586 36.6321C34.7586 37.1618 34.5508 37.6699 34.1815 38.0445C33.8119 38.4192 33.3108 38.6295 32.7882 38.6295C32.2656 38.6295 31.7644 38.4192 31.3948 38.0445C31.0252 37.6699 30.8177 37.1618 30.8177 36.6321ZM38.0483 46.011C36.9233 46.0116 35.8337 45.6122 34.9693 44.882H41.1272C40.2629 45.6118 39.1733 46.0113 38.0482 46.011H38.0483Z" fill="#FF595E"/>
<path d="M9.25193 44.8824C9.36575 44.8824 9.47468 44.8368 9.55484 44.7552C9.63531 44.6736 9.68029 44.5632 9.68029 44.4481V41.7795H31.5164C31.753 41.7795 31.9448 41.5851 31.9448 41.3453C31.9448 41.1052 31.753 40.9111 31.5164 40.9111H16.1447V37.7679C16.1444 36.4704 16.5791 35.2115 17.378 34.1979C18.1769 33.1842 19.2922 32.4761 20.5405 32.1899L24.1172 31.3682C24.7659 32.019 25.6419 32.384 26.5546 32.384C27.4672 32.384 28.3432 32.019 28.9919 31.3682L32.5662 32.1908C33.795 32.469 34.8964 33.1569 35.6938 34.1448C35.7171 34.1832 35.7461 34.2183 35.7795 34.248C36.5517 35.2545 36.9691 36.4939 36.9654 37.7687V40.9116H34.0551C33.8186 40.9116 33.6267 41.1061 33.6267 41.3458C33.6267 41.5859 33.8186 41.7801 34.0551 41.7801H42.0343C42.2708 41.7801 42.4627 41.5859 42.4627 41.3458C42.4627 41.1061 42.2708 40.9116 42.0343 40.9116H39.4942V33.9277C39.4942 33.8123 39.4492 33.7019 39.3687 33.6206C39.2886 33.539 39.1796 33.4934 39.0658 33.4934H36.2601C35.3489 32.4132 34.119 31.6588 32.7519 31.3421L29.2737 30.5432V28.9514C31.4837 28.0355 33.1081 26.0765 33.6181 23.7118C34.2805 23.6284 34.8643 23.2298 35.1895 22.6389C35.5148 22.0478 35.5429 21.335 35.2651 20.7196C34.987 20.1043 34.4366 19.6598 33.7827 19.5234V15.5145C33.7808 14.001 33.1867 12.55 32.1311 11.48C31.0752 10.4099 29.6435 9.80784 28.1505 9.80633H23.1467C22.9098 9.80633 22.7183 10.0008 22.7183 10.2406C22.7183 10.4803 22.9098 10.6748 23.1467 10.6748H28.1508H28.1505C29.4166 10.676 30.6303 11.1863 31.5256 12.0935C32.4209 13.001 32.9245 14.2314 32.926 15.5146V19.4081C32.6595 19.3169 32.4279 19.1438 32.2636 18.9124C32.0993 18.681 32.0106 18.4034 32.01 18.1184V17.6128C32.01 16.9909 31.7664 16.3945 31.3325 15.9547C30.8987 15.5149 30.3103 15.268 29.6968 15.268H27.1824L26.15 14.6321C25.3471 14.1346 24.856 13.2504 24.853 12.296C24.853 12.0562 24.6611 11.8617 24.4246 11.8617C24.1881 11.8617 23.9963 12.0562 23.9963 12.296C24.0006 13.4839 24.5785 14.5939 25.5435 15.268H25.0595C24.1012 15.0109 23.2537 14.4392 22.6494 13.6427C22.0451 12.8459 21.7177 11.8689 21.7183 10.864V10.8388C21.7183 10.5991 21.5264 10.4046 21.2899 10.4046C21.0534 10.4046 20.8616 10.5991 20.8616 10.8388V10.8683C20.8607 12.577 21.6543 14.1861 23.0034 15.2106C21.9808 15.0369 21.0519 14.5016 20.3815 13.6999C19.7111 12.8977 19.3424 11.8814 19.3409 10.8302V9.62924C19.3409 9.38918 19.1491 9.19501 18.9126 9.19501C18.6761 9.19501 18.4842 9.38917 18.4842 9.62924V10.8292C18.483 11.9703 18.8465 13.0813 19.5199 13.9957C19.3862 14.4907 19.3189 15.0016 19.3195 15.5146V19.5234C18.6672 19.6615 18.1183 20.1059 17.8414 20.7203C17.5645 21.3348 17.5927 22.0459 17.9167 22.6362C18.241 23.2265 18.8229 23.6253 19.4842 23.7103C19.9939 26.0746 21.6183 28.0336 23.8283 28.9495V30.5413L20.3501 31.3403V31.3406C18.9833 31.6569 17.753 32.4112 16.8419 33.4916H14.0499C13.8134 33.4916 13.6215 33.686 13.6215 33.9258V40.9091H9.25233C9.01582 40.9091 8.82397 41.1036 8.82397 41.3433V44.4481C8.82397 44.5632 8.86926 44.6736 8.94942 44.7552C9.02989 44.8368 9.13882 44.8823 9.25233 44.8823L9.25193 44.8824ZM38.6373 40.9082H37.8139V37.7678C37.8136 36.5678 37.4914 35.3907 36.882 34.3619H38.6416L38.6373 40.9082ZM34.5927 21.608C34.5924 21.8701 34.511 22.1254 34.3605 22.3381C34.2102 22.5512 33.9979 22.7113 33.7531 22.7959C33.7712 22.5875 33.7822 22.3772 33.7822 22.1654V20.4285L33.7825 20.4288C34.0202 20.5178 34.2252 20.6785 34.3703 20.8894C34.515 21.1003 34.5927 21.3509 34.5927 21.608ZM21.6428 15.7025V17.561C21.6419 17.9946 21.4965 18.4149 21.2304 18.7542C20.9642 19.0935 20.5924 19.3317 20.176 19.43V15.5148C20.1763 15.2694 20.1944 15.0244 20.2308 14.7819C20.6496 15.1637 21.1264 15.4745 21.6428 15.7024L21.6428 15.7025ZM18.5091 21.608H18.5088C18.5088 21.3509 18.5862 21.1 18.7312 20.8888C18.8762 20.6778 19.0812 20.5169 19.3193 20.4279V22.1648C19.3193 22.3766 19.3303 22.5869 19.3483 22.7953C19.1039 22.7103 18.8918 22.5506 18.7413 22.3378C18.5908 22.1251 18.5097 21.8698 18.5088 21.608H18.5091ZM20.176 22.1629V20.315C20.8231 20.2108 21.4127 19.8761 21.8383 19.3708C22.2642 18.8659 22.4986 18.2235 22.4995 17.5592V15.991C22.9003 16.0884 23.3112 16.1374 23.7237 16.1368H29.6992C30.0853 16.1368 30.4559 16.2922 30.7291 16.5691C31.002 16.8461 31.1556 17.2217 31.1556 17.6131V18.1187C31.1565 18.6342 31.333 19.1335 31.6558 19.5321C31.9783 19.9307 32.4269 20.2036 32.9256 20.3054V22.162C32.9256 24.4709 31.7106 26.6041 29.7381 27.7586C27.7658 28.913 25.3358 28.913 23.3632 27.7586C21.3909 26.6041 20.176 24.4709 20.176 22.162L20.176 22.1629ZM26.5508 29.4927C27.1808 29.493 27.808 29.4095 28.4166 29.2442V30.7206C27.9255 31.2296 27.253 31.5165 26.5508 31.5165C25.8486 31.5165 25.1758 31.2296 24.6847 30.7206V29.2442C25.2933 29.4095 25.9208 29.493 26.5508 29.4927ZM14.4782 34.3622H16.225C15.6136 35.3904 15.2899 36.5678 15.2878 37.7682V40.911L14.4782 40.9114V34.3622Z" fill="#FF595E"/>
<path d="M33.8159 36.6785C33.8159 36.257 33.5656 35.877 33.1813 35.7158C32.797 35.5545 32.3549 35.6435 32.0608 35.9416C31.7668 36.2396 31.679 36.6878 31.8381 37.0774C31.9972 37.467 32.372 37.7207 32.7878 37.7207C33.3548 37.7185 33.8137 37.2533 33.8158 36.6786L33.8159 36.6785ZM32.6103 36.6785H32.6106C32.6106 36.6084 32.6523 36.5451 32.7162 36.5182C32.7805 36.4912 32.8539 36.5061 32.9031 36.5557C32.9521 36.6053 32.9668 36.6801 32.9402 36.7452C32.9135 36.81 32.8511 36.8522 32.782 36.8522C32.6871 36.8522 32.6106 36.7744 32.6106 36.6785L32.6103 36.6785Z" fill="#FF595E"/>
</g>
<rect x="0.759766" y="0.559967" width="56.094" height="56.094" rx="9.5" stroke="#D6D6D6"/>
<defs>
<filter id="filter0_b_2987_15875" x="-71.1078" y="-71.3076" width="199.829" height="199.829" filterUnits="userSpaceOnUse" color-interpolation-filters="sRGB">
<feFlood flood-opacity="0" result="BackgroundImageFix"/>
<feGaussianBlur in="BackgroundImageFix" stdDeviation="35.6838"/>
<feComposite in2="SourceAlpha" operator="in" result="effect1_backgroundBlur_2987_15875"/>
<feBlend mode="normal" in="SourceGraphic" in2="effect1_backgroundBlur_2987_15875" result="shape"/>
</filter>
<clipPath id="clip0_2987_15875">
<rect x="0.259766" y="0.059967" width="57.094" height="57.094" rx="10" fill="white"/>
</clipPath>
</defs>
</svg>
