<svg width="58" height="58" viewBox="0 0 58 58" fill="none" xmlns="http://www.w3.org/2000/svg">
<g clip-path="url(#clip0_3025_15862)">
<g filter="url(#filter0_b_3025_15862)">
<rect x="0.260254" y="0.059967" width="57.094" height="57.094" rx="11.4188" fill="white"/>
<rect x="0.617092" y="0.416805" width="56.3803" height="56.3803" rx="11.062" stroke="white" stroke-width="0.713675"/>
</g>
<path d="M24.2303 20.7776H24.3426C24.5635 20.7776 24.7428 21.0015 24.7428 21.1833V21.7921C24.7428 22.0161 24.5638 22.1978 24.3426 22.1978H24.2303C24.0094 22.1978 23.8301 21.9739 23.8301 21.7921V21.1833C23.8301 20.9593 24.0091 20.7776 24.2303 20.7776Z" fill="#1976D2"/>
<path d="M28.7264 20.7776H28.8387C29.0596 20.7776 29.2389 21.0015 29.2389 21.1833V21.7921C29.2389 22.0161 29.0599 22.1978 28.8387 22.1978H28.7264C28.5055 22.1978 28.3262 21.9739 28.3262 21.7921V21.1833C28.3262 20.9593 28.5052 20.7776 28.7264 20.7776Z" fill="#1976D2"/>
<path d="M48.3631 40.9106H44.5807C44.3442 40.9106 44.1523 41.1048 44.1523 41.3449C44.1523 41.5846 44.3442 41.7791 44.5807 41.7791H47.9347V44.0136H42.9606C43.4697 43.1339 43.7374 42.1327 43.7368 41.1129V32.9361C45.1103 32.8254 46.3923 32.1948 47.328 31.1694C48.2633 30.1437 48.7838 28.7991 48.7853 27.4022V22.0413C48.7853 21.9262 48.7403 21.8158 48.6598 21.7342C48.5796 21.6527 48.4707 21.6071 48.3569 21.6071H46.6496C46.4483 21.1617 45.9679 20.9185 45.4958 21.023C45.0237 21.1276 44.6872 21.5512 44.6872 22.0413C44.6872 22.5313 45.0237 22.955 45.4958 23.0595C45.9679 23.1641 46.4483 22.9209 46.6496 22.4755H47.9346V27.4021C47.9346 29.0755 47.0541 30.6216 45.6246 31.4585C44.1951 32.295 42.4337 32.295 41.0042 31.4585C39.5747 30.6216 38.6942 29.0755 38.6942 27.4021V22.4755H39.8935C40.0948 22.9209 40.5752 23.1641 41.0473 23.0595C41.5194 22.955 41.8563 22.5313 41.8563 22.0413C41.8563 21.5512 41.5194 21.1275 41.0473 21.023C40.5752 20.9185 40.0948 21.1617 39.8935 21.6071H38.2658C38.0293 21.6071 37.8374 21.8015 37.8374 22.0413V27.4022C37.839 28.7979 38.3585 30.1422 39.2929 31.1673C40.2271 32.1927 41.5078 32.8242 42.8801 32.9361V41.1129C42.8807 42.1572 42.5503 43.174 41.9377 44.0136H34.1607C33.5472 43.1733 33.2167 42.1554 33.2183 41.1105V39.4604C34.1662 39.3131 34.9758 38.6887 35.3686 37.8019C35.7618 36.9149 35.6844 35.8867 35.1633 35.0707C34.6426 34.2543 33.7488 33.7615 32.7899 33.7615C31.8307 33.7615 30.9373 34.2543 30.4162 35.0707C29.8952 35.8867 29.818 36.9149 30.2109 37.8019C30.6038 38.6887 31.4134 39.313 32.3615 39.4604V41.1105C32.3603 42.1309 32.628 43.1331 33.1369 44.0136H11.1535C10.9166 44.0136 10.7251 44.208 10.7251 44.4478C10.7251 44.6875 10.9166 44.882 11.1535 44.882H33.751C34.8292 46.1487 36.3982 46.877 38.0485 46.877C39.6992 46.877 41.268 46.1487 42.3465 44.882H48.363C48.4765 44.882 48.5854 44.8364 48.6659 44.7549C48.7463 44.6733 48.7913 44.5629 48.7913 44.4478V41.3449C48.7913 41.2295 48.7463 41.1191 48.6659 41.0379C48.5854 40.9563 48.4765 40.9107 48.363 40.9107L48.3631 40.9106ZM45.7073 22.2155C45.6109 22.2155 45.5326 22.1361 45.5326 22.0384C45.5326 21.9403 45.6109 21.8613 45.7073 21.8613C45.7856 21.8606 45.8544 21.9137 45.8743 21.9906C45.8685 22.0222 45.8685 22.0545 45.8743 22.0861C45.8544 22.1627 45.7856 22.2161 45.7073 22.2155V22.2155ZM40.824 21.8681C40.8932 21.8681 40.9559 21.9103 40.9822 21.9754C41.0088 22.0402 40.9941 22.115 40.9452 22.1646C40.8962 22.2142 40.8225 22.2291 40.7585 22.2021C40.6943 22.1755 40.6527 22.1119 40.6527 22.0418C40.6527 21.9459 40.7295 21.8681 40.824 21.8681L40.824 21.8681ZM30.8185 36.6321C30.8185 36.1023 31.0259 35.5943 31.3955 35.2196C31.7651 34.8449 32.2663 34.6346 32.7889 34.6346C33.3115 34.6346 33.8126 34.8449 34.1823 35.2196C34.5516 35.5943 34.7593 36.1023 34.7593 36.6321C34.7593 37.1618 34.5516 37.6699 34.1823 38.0445C33.8126 38.4192 33.3115 38.6295 32.7889 38.6295C32.2663 38.6295 31.7651 38.4192 31.3955 38.0445C31.0259 37.6699 30.8185 37.1618 30.8185 36.6321ZM38.049 46.011C36.924 46.0116 35.8345 45.6122 34.9701 44.882H41.1279C40.2636 45.6118 39.1741 46.0113 38.049 46.011H38.049Z" fill="#1976D2"/>
<path d="M9.25267 44.8824C9.36648 44.8824 9.47541 44.8368 9.55558 44.7552C9.63604 44.6736 9.68102 44.5632 9.68102 44.4481V41.7795H31.5172C31.7537 41.7795 31.9455 41.5851 31.9455 41.3453C31.9455 41.1052 31.7537 40.9111 31.5172 40.9111H16.1454V37.7679C16.1451 36.4704 16.5799 35.2115 17.3787 34.1979C18.1776 33.1842 19.2929 32.4761 20.5412 32.1899L24.118 31.3682C24.7666 32.019 25.6426 32.384 26.5553 32.384C27.468 32.384 28.344 32.019 28.9926 31.3682L32.5669 32.1908C33.7957 32.469 34.8972 33.1569 35.6945 34.1448C35.7178 34.1832 35.7469 34.2183 35.7802 34.248C36.5525 35.2545 36.9699 36.4939 36.9662 37.7687V40.9116H34.0558C33.8193 40.9116 33.6275 41.1061 33.6275 41.3458C33.6275 41.5859 33.8193 41.7801 34.0558 41.7801H42.0351C42.2716 41.7801 42.4634 41.5859 42.4634 41.3458C42.4634 41.1061 42.2716 40.9116 42.0351 40.9116H39.4949V33.9277C39.4949 33.8123 39.4499 33.7019 39.3694 33.6206C39.2893 33.539 39.1804 33.4934 39.0665 33.4934H36.2608C35.3497 32.4132 34.1197 31.6588 32.7526 31.3421L29.2744 30.5432V28.9514C31.4844 28.0355 33.1088 26.0765 33.6189 23.7118C34.2813 23.6284 34.865 23.2298 35.1903 22.6389C35.5155 22.0478 35.5437 21.335 35.2658 20.7196C34.9877 20.1043 34.4373 19.6598 33.7834 19.5234V15.5145C33.7816 14.001 33.1874 12.55 32.1318 11.48C31.0759 10.4099 29.6443 9.80784 28.1512 9.80633H23.1474C22.9106 9.80633 22.719 10.0008 22.719 10.2406C22.719 10.4803 22.9106 10.6748 23.1474 10.6748H28.1515H28.1512C29.4173 10.676 30.6311 11.1863 31.5263 12.0935C32.4216 13.001 32.9252 14.2314 32.9268 15.5146V19.4081C32.6603 19.3169 32.4286 19.1438 32.2643 18.9124C32.1 18.681 32.0113 18.4034 32.0107 18.1184V17.6128C32.0107 16.9909 31.7671 16.3945 31.3333 15.9547C30.8994 15.5149 30.311 15.268 29.6976 15.268H27.1831L26.1507 14.6321C25.3479 14.1346 24.8568 13.2504 24.8537 12.296C24.8537 12.0562 24.6619 11.8617 24.4254 11.8617C24.1888 11.8617 23.997 12.0562 23.997 12.296C24.0013 13.4839 24.5793 14.5939 25.5443 15.268H25.0602C24.102 15.0109 23.2544 14.4392 22.6501 13.6427C22.0458 12.8459 21.7184 11.8689 21.719 10.864V10.8388C21.719 10.5991 21.5272 10.4046 21.2907 10.4046C21.0541 10.4046 20.8623 10.5991 20.8623 10.8388V10.8683C20.8614 12.577 21.6551 14.1861 23.0041 15.2106C21.9815 15.0369 21.0526 14.5016 20.3822 13.6999C19.7119 12.8977 19.3431 11.8814 19.3417 10.8302V9.62924C19.3417 9.38918 19.1498 9.19501 18.9133 9.19501C18.6768 9.19501 18.4849 9.38917 18.4849 9.62924V10.8292C18.4837 11.9703 18.8472 13.0813 19.5207 13.9957C19.387 14.4907 19.3196 15.0016 19.3203 15.5146V19.5234C18.6679 19.6615 18.119 20.1059 17.8421 20.7203C17.5652 21.3348 17.5934 22.0459 17.9174 22.6362C18.2417 23.2265 18.8237 23.6253 19.4849 23.7103C19.9946 26.0746 21.619 28.0336 23.829 28.9495V30.5413L20.3508 31.3403V31.3406C18.9841 31.6569 17.7538 32.4112 16.8426 33.4916H14.0506C13.8141 33.4916 13.6223 33.686 13.6223 33.9258V40.9091H9.25306C9.01655 40.9091 8.82471 41.1036 8.82471 41.3433V44.4481C8.82471 44.5632 8.86999 44.6736 8.95016 44.7552C9.03062 44.8368 9.13955 44.8823 9.25306 44.8823L9.25267 44.8824ZM38.638 40.9082H37.8146V37.7678C37.8143 36.5678 37.4922 35.3907 36.8827 34.3619H38.6423L38.638 40.9082ZM34.5934 21.608C34.5931 21.8701 34.5117 22.1254 34.3612 22.3381C34.211 22.5512 33.9986 22.7113 33.7539 22.7959C33.7719 22.5875 33.7829 22.3772 33.7829 22.1654V20.4285L33.7832 20.4288C34.021 20.5178 34.226 20.6785 34.371 20.8894C34.5157 21.1003 34.5934 21.3509 34.5934 21.608ZM21.6435 15.7025V17.561C21.6426 17.9946 21.4973 18.4149 21.2311 18.7542C20.9649 19.0935 20.5932 19.3317 20.1767 19.43V15.5148C20.177 15.2694 20.1951 15.0244 20.2315 14.7819C20.6504 15.1637 21.1271 15.4745 21.6435 15.7024L21.6435 15.7025ZM18.5098 21.608H18.5095C18.5095 21.3509 18.5869 21.1 18.7319 20.8888C18.877 20.6778 19.082 20.5169 19.32 20.4279V22.1648C19.32 22.3766 19.331 22.5869 19.3491 22.7953C19.1046 22.7103 18.8926 22.5506 18.742 22.3378C18.5915 22.1251 18.5104 21.8698 18.5095 21.608H18.5098ZM20.1767 22.1629V20.315C20.8238 20.2108 21.4134 19.8761 21.839 19.3708C22.2649 18.8659 22.4993 18.2235 22.5002 17.5592V15.991C22.9011 16.0884 23.3119 16.1374 23.7244 16.1368H29.6999C30.0861 16.1368 30.4566 16.2922 30.7298 16.5691C31.0027 16.8461 31.1563 17.2217 31.1563 17.6131V18.1187C31.1572 18.6342 31.3338 19.1335 31.6566 19.5321C31.9791 19.9307 32.4276 20.2036 32.9263 20.3054V22.162C32.9263 24.4709 31.7113 26.6041 29.7388 27.7586C27.7665 28.913 25.3366 28.913 23.364 27.7586C21.3917 26.6041 20.1767 24.4709 20.1767 22.162L20.1767 22.1629ZM26.5515 29.4927C27.1815 29.493 27.8088 29.4095 28.4173 29.2442V30.7206C27.9262 31.2296 27.2537 31.5165 26.5515 31.5165C25.8493 31.5165 25.1765 31.2296 24.6855 30.7206V29.2442C25.294 29.4095 25.9216 29.493 26.5515 29.4927ZM14.4789 34.3622H16.2257C15.6144 35.3904 15.2906 36.5678 15.2885 37.7682V40.911L14.4789 40.9114V34.3622Z" fill="#1976D2"/>
<path d="M33.8169 36.6785C33.8169 36.257 33.5666 35.877 33.1823 35.7158C32.798 35.5545 32.3558 35.6435 32.0618 35.9416C31.7678 36.2396 31.6799 36.6878 31.839 37.0774C31.9981 37.467 32.373 37.7207 32.7888 37.7207C33.3557 37.7185 33.8147 37.2533 33.8168 36.6786L33.8169 36.6785ZM32.6113 36.6785H32.6116C32.6116 36.6084 32.6532 36.5451 32.7172 36.5182C32.7814 36.4912 32.8549 36.5061 32.9041 36.5557C32.9531 36.6053 32.9678 36.6801 32.9411 36.7452C32.9145 36.81 32.8521 36.8522 32.783 36.8522C32.6881 36.8522 32.6116 36.7744 32.6116 36.6785L32.6113 36.6785Z" fill="#1976D2"/>
</g>
<rect x="0.760254" y="0.559967" width="56.094" height="56.094" rx="9.5" stroke="#D6D6D6"/>
<defs>
<filter id="filter0_b_3025_15862" x="-71.1073" y="-71.3076" width="199.829" height="199.829" filterUnits="userSpaceOnUse" color-interpolation-filters="sRGB">
<feFlood flood-opacity="0" result="BackgroundImageFix"/>
<feGaussianBlur in="BackgroundImageFix" stdDeviation="35.6838"/>
<feComposite in2="SourceAlpha" operator="in" result="effect1_backgroundBlur_3025_15862"/>
<feBlend mode="normal" in="SourceGraphic" in2="effect1_backgroundBlur_3025_15862" result="shape"/>
</filter>
<clipPath id="clip0_3025_15862">
<rect x="0.260254" y="0.059967" width="57.094" height="57.094" rx="10" fill="white"/>
</clipPath>
</defs>
</svg>
