<svg width="58" height="58" viewBox="0 0 58 58" fill="none" xmlns="http://www.w3.org/2000/svg">
<g clip-path="url(#clip0_3025_15480)">
<g filter="url(#filter0_b_3025_15480)">
<rect x="0.405273" y="0.716377" width="57.094" height="57.094" rx="11.4188" fill="white"/>
<rect x="0.762111" y="1.07321" width="56.3803" height="56.3803" rx="11.062" stroke="white" stroke-width="0.713675"/>
</g>
<path d="M17.8202 13.2781C15.8655 13.9953 14.628 14.4805 14.5296 14.5789L14.3608 14.7336L14.396 17.2789C14.4241 19.5359 14.4452 19.8945 14.5718 20.4711C14.8741 21.793 15.4296 23.0797 16.1468 24.1344C17.0116 25.4 18.7343 26.8625 20.0772 27.4813C20.9632 27.882 21.0897 27.9172 21.3921 27.8117C22.6366 27.3688 23.846 26.5813 24.9218 25.4914C25.8288 24.5773 26.3069 23.9234 26.8132 22.9039C27.221 22.0742 27.4601 21.3992 27.671 20.457C27.8116 19.8242 27.8257 19.5008 27.8538 17.2578C27.8819 14.9094 27.8819 14.7477 27.7554 14.6C27.671 14.4945 26.6726 14.1008 24.4296 13.2852C22.6718 12.6453 21.1671 12.125 21.0897 12.132C21.0124 12.1391 19.5429 12.6523 17.8202 13.2781ZM20.5624 13.9531V14.375H21.1249H21.6874V13.9531C21.6874 13.7211 21.7085 13.5313 21.7437 13.5313C21.7718 13.5313 22.9108 13.932 24.2679 14.4242L26.7499 15.3242V17.1875C26.7499 19.2055 26.6796 19.9367 26.3702 20.9914C25.7444 23.143 24.1343 25.1469 22.1655 26.2227L21.6874 26.4828V25.4914V24.5H21.1249H20.5624V25.4844V26.4688L20.2741 26.3281C18.2351 25.2875 16.5757 23.2836 15.8937 21.0406C15.5843 20.0281 15.4999 19.2266 15.4999 17.1875V15.3242L17.9468 14.4313C19.2897 13.9461 20.4288 13.5383 20.478 13.5383C20.5343 13.5313 20.5624 13.6578 20.5624 13.9531Z" fill="#54B0B2"/>
<path d="M19.6133 15.6758C19.4445 15.8375 19.4375 15.8797 19.4375 16.8008V17.75H18.4883C17.5672 17.75 17.525 17.757 17.3633 17.9258C17.1875 18.0945 17.1875 18.1086 17.1875 19.4375C17.1875 20.7664 17.1875 20.7805 17.3633 20.9492C17.525 21.118 17.5672 21.125 18.4883 21.125H19.4375V22.0742C19.4375 22.9953 19.4445 23.0375 19.6133 23.1992C19.782 23.375 19.7961 23.375 21.125 23.375C22.4539 23.375 22.468 23.375 22.6367 23.1992C22.8055 23.0375 22.8125 22.9953 22.8125 22.0742V21.125H23.7617C24.6828 21.125 24.725 21.118 24.8867 20.9492C25.0625 20.7805 25.0625 20.7664 25.0625 19.4375C25.0625 18.1086 25.0625 18.0945 24.8867 17.9258C24.725 17.757 24.6828 17.75 23.7617 17.75H22.8125V16.8008C22.8125 15.8797 22.8055 15.8375 22.6367 15.6758C22.468 15.5 22.4539 15.5 21.125 15.5C19.7961 15.5 19.782 15.5 19.6133 15.6758ZM21.6875 17.5742C21.6875 18.4953 21.6945 18.5375 21.8633 18.6992C22.025 18.868 22.0672 18.875 22.9883 18.875H23.9375V19.4375V20H22.9883C22.0672 20 22.025 20.007 21.8633 20.1758C21.6945 20.3375 21.6875 20.3797 21.6875 21.3008V22.25H21.125H20.5625V21.3008C20.5625 20.3797 20.5555 20.3375 20.3867 20.1758C20.225 20.007 20.1828 20 19.2617 20H18.3125V19.4375V18.875H19.2617C20.1828 18.875 20.225 18.868 20.3867 18.6992C20.5555 18.5375 20.5625 18.4953 20.5625 17.5742V16.625H21.125H21.6875V17.5742Z" fill="#54B0B2"/>
<path d="M33.6756 19.0508L33.4998 19.2195V21.125V23.0305L33.6756 23.1992C33.8162 23.3469 33.9147 23.375 34.2381 23.375H34.6248V24.5V25.625H34.1397C32.8459 25.625 31.7561 26.3984 31.3905 27.5727C31.2709 27.9594 31.2498 28.2266 31.2498 29.2602V30.4836L30.9897 30.2727C30.61 29.9773 29.9842 29.7031 29.4569 29.6117C28.8662 29.5133 28.128 29.6117 27.5233 29.8789C27.1014 30.0617 26.8272 30.3148 23.9162 33.2117C22.1866 34.9344 20.6748 36.4883 20.5623 36.657C20.1826 37.2195 20.0491 37.6836 20.042 38.4359L20.035 39.125H17.5741C15.5842 39.125 15.0287 39.1461 14.6912 39.2305C12.8912 39.7016 11.7733 41.5438 12.2303 43.2945C12.5467 44.5109 13.4819 45.4531 14.6912 45.7695C15.31 45.9313 23.5647 45.9313 24.1834 45.7695C25.9905 45.2984 27.1014 43.4563 26.6444 41.6914C26.5811 41.4594 26.4405 41.1078 26.335 40.9109L26.1381 40.5453L28.6905 37.993L31.2498 35.4336V38.8859C31.2498 42.1484 31.2569 42.3734 31.3905 42.8023C31.6576 43.6602 32.3397 44.3422 33.1975 44.6094C33.6405 44.743 33.8514 44.75 38.5623 44.75C43.2733 44.75 43.4842 44.743 43.9272 44.6094C44.785 44.3422 45.467 43.6602 45.7342 42.8023C45.8678 42.3594 45.8748 42.1484 45.8748 35.1875C45.8748 28.1984 45.8748 28.0227 45.7342 27.5656C45.3616 26.3703 44.3069 25.625 42.978 25.625H42.4998V24.5V23.375H42.8866C43.21 23.375 43.3084 23.3469 43.4491 23.1992L43.6248 23.0305V21.125V19.2195L43.4491 19.0508L43.2803 18.875H38.5623H33.8444L33.6756 19.0508ZM35.7498 21.125V22.25H35.1873H34.6248V21.125V20H35.1873H35.7498V21.125ZM37.9998 21.125V22.25H37.4373H36.8748V21.125V20H37.4373H37.9998V21.125ZM42.4998 21.125V22.25H41.9373H41.3748V21.6875V21.125H40.8123H40.2498V21.6875V22.25H39.6873H39.1248V21.125V20H40.8123H42.4998V21.125ZM41.3748 24.5V25.625H38.5623H35.7498V24.5V23.375H38.5623H41.3748V24.5ZM43.9483 26.9961C44.1592 27.1297 44.3701 27.3406 44.5037 27.5516C44.7006 27.875 44.7147 27.9453 44.7358 28.7328L44.7639 29.5625H38.5694H32.3748V28.8031C32.3819 27.7133 32.6069 27.2563 33.3241 26.9188L33.6756 26.75L38.6397 26.7641L43.6037 26.7852L43.9483 26.9961ZM29.7311 30.8281C30.8912 31.2641 31.4748 32.5719 31.0389 33.7461C30.8912 34.1258 30.7436 34.3086 29.5201 35.5391L28.1561 36.9102L26.56 35.307L24.9569 33.7039L26.2576 32.4172C27.7905 30.8984 28.0928 30.7086 28.9436 30.6945C29.1897 30.6875 29.492 30.7438 29.7311 30.8281ZM44.7498 34.0625V37.4375H38.5623H32.3748V34.0625V30.6875H38.5623H44.7498V34.0625ZM25.7655 36.1367L27.3475 37.7188L26.335 38.7313L25.3225 39.7438L25.0834 39.5961L24.8373 39.4555L25.4772 38.8156C25.8287 38.4641 26.117 38.1406 26.117 38.1055C26.117 38.0141 25.4701 37.3672 25.3787 37.3672C25.3366 37.3672 24.9569 37.7117 24.535 38.1406C23.8178 38.8648 23.7756 38.9141 23.8811 39.0336C23.9936 39.1531 23.9373 39.1602 22.6155 39.1391C21.8561 39.125 21.2162 39.0969 21.1951 39.0828C21.1741 39.0617 21.16 38.8016 21.16 38.5063C21.16 37.6203 21.3147 37.3813 22.8194 35.8484C23.5295 35.1383 24.1201 34.5547 24.1412 34.5547C24.1694 34.5547 24.8936 35.2648 25.7655 36.1367ZM44.7358 40.5172L44.7147 42.4789L44.5037 42.8234C44.3701 43.0344 44.1592 43.2453 43.9483 43.3789L43.6037 43.5898L38.7241 43.6109C35.5741 43.618 33.7459 43.6039 33.5772 43.5547C33.1905 43.4563 32.7545 43.1117 32.5858 42.7813L32.4452 42.5H38.035H43.6248V41.9375V41.375H37.9998H32.3748V39.9688V38.5625H38.5623H44.7569L44.7358 40.5172ZM18.8748 42.507V44.757L16.892 44.7359L14.9022 44.7148L14.5436 44.525C14.0092 44.2438 13.7912 44.0328 13.5241 43.5406C13.3061 43.1328 13.285 43.0484 13.292 42.5C13.292 41.9938 13.3201 41.8461 13.4748 41.5438C13.5803 41.3469 13.742 41.0938 13.8405 40.9742C14.0303 40.7492 14.635 40.3977 14.9655 40.3133C15.085 40.2852 16.0131 40.2641 17.0326 40.257L18.8748 40.25V42.507ZM24.2889 40.4469C24.7951 40.693 25.0905 40.9742 25.3506 41.4594C25.5686 41.8672 25.5897 41.9516 25.5826 42.5C25.5826 43.0063 25.5545 43.1539 25.3998 43.4563C25.1256 43.9836 24.9076 44.2086 24.4155 44.4758L23.9725 44.7148L21.9897 44.7359L19.9998 44.757V42.5V40.243L21.9897 40.2641C23.8811 40.2852 23.9866 40.2922 24.2889 40.4469Z" fill="#54B0B2"/>
<path d="M28.5219 34.1539L27.7344 34.9414L28.107 35.3141C28.3109 35.5109 28.5078 35.6797 28.543 35.6797C28.5852 35.6797 28.9648 35.3352 29.3867 34.9062L30.1531 34.1328L29.7734 33.7461C29.5625 33.5352 29.3727 33.3594 29.3516 33.3594C29.3305 33.3594 28.9578 33.718 28.5219 34.1539Z" fill="#54B0B2"/>
<path d="M38 32.6562V33.5H37.1562H36.3125V34.0625V34.625H37.1562H38V35.4688V36.3125H38.5625H39.125V35.4688V34.625H39.9688H40.8125V34.0625V33.5H39.9688H39.125V32.6562V31.8125H38.5625H38V32.6562Z" fill="#54B0B2"/>
<path d="M15.5 43.625V44.1875H16.625H17.75V43.625V43.0625H16.625H15.5V43.625Z" fill="#54B0B2"/>
<path d="M21.125 43.625V44.1875H22.25H23.375V43.625V43.0625H22.25H21.125V43.625Z" fill="#54B0B2"/>
</g>
<rect x="0.905273" y="1.21638" width="56.094" height="56.094" rx="9.5" stroke="#D6D6D6"/>
<defs>
<filter id="filter0_b_3025_15480" x="-70.9622" y="-70.6511" width="199.829" height="199.829" filterUnits="userSpaceOnUse" color-interpolation-filters="sRGB">
<feFlood flood-opacity="0" result="BackgroundImageFix"/>
<feGaussianBlur in="BackgroundImageFix" stdDeviation="35.6838"/>
<feComposite in2="SourceAlpha" operator="in" result="effect1_backgroundBlur_3025_15480"/>
<feBlend mode="normal" in="SourceGraphic" in2="effect1_backgroundBlur_3025_15480" result="shape"/>
</filter>
<clipPath id="clip0_3025_15480">
<rect x="0.405273" y="0.716377" width="57.094" height="57.094" rx="10" fill="white"/>
</clipPath>
</defs>
</svg>
