<svg width="58" height="58" viewBox="0 0 58 58" fill="none" xmlns="http://www.w3.org/2000/svg">
<g clip-path="url(#clip0_3025_15494)">
<g filter="url(#filter0_b_3025_15494)">
<rect x="0.405273" y="0.174484" width="57.094" height="57.094" rx="11.4188" fill="white"/>
<rect x="0.762111" y="0.531322" width="56.3803" height="56.3803" rx="11.062" stroke="white" stroke-width="0.713675"/>
</g>
<g clip-path="url(#clip1_3025_15494)">
<path d="M31.7773 11.1828C31.482 11.3445 30.4695 11.893 26.6445 13.9883C19.9648 17.6515 17.771 18.882 17.6796 19.0226C17.5882 19.1633 17.5671 19.8172 17.539 23.9586L17.5038 28.7398L17.1171 28.8734C16.4913 29.0844 15.6054 29.5484 14.9796 29.9914C12.1671 31.9953 10.6554 35.3914 11.0702 38.7734C11.2109 39.9125 11.7241 41.5015 12.0898 41.9305C12.2234 42.0781 12.3148 42.1133 12.582 42.1133C12.8562 42.1133 12.9406 42.0781 13.0812 41.9164C13.3062 41.6492 13.2991 41.3398 13.046 40.7422C11.9913 38.2672 12.2656 35.4687 13.7773 33.1836C14.1429 32.6281 15.057 31.6859 15.6335 31.257C19.1843 28.6203 24.2749 29.4359 26.8343 33.043C28.8101 35.8273 28.7749 39.6312 26.7429 42.3664C26.2999 42.964 25.3648 43.864 24.7812 44.2437C22.5171 45.7344 19.7116 46.0015 17.2577 44.9539C16.6601 44.7008 16.3507 44.6937 16.0835 44.9187C15.9218 45.0594 15.8866 45.1437 15.8866 45.418C15.8866 45.8328 16.0413 45.9734 16.8077 46.2969C18.4109 46.9648 20.471 47.1687 22.1445 46.8242C24.9007 46.2617 27.2913 44.4969 28.5991 42.0711C28.7609 41.7687 28.9296 41.5156 28.9648 41.5156C29.007 41.5156 29.7031 41.8812 30.5116 42.3312C31.3273 42.7812 32.0866 43.1609 32.2062 43.182C32.396 43.2101 33.0921 42.8515 37.1984 40.6015C39.8281 39.1601 43.0343 37.3953 44.3281 36.6851C45.6218 35.982 46.7538 35.314 46.8452 35.2156C46.9999 35.0398 46.9999 35.0328 46.9999 32.4101C46.9999 29.5836 46.9929 29.4922 46.6413 29.3094C46.3952 29.1828 46.1984 29.1828 45.9523 29.3094C45.6077 29.4922 45.5937 29.6047 45.5937 32.0797V34.3859L39.7437 37.5992C36.5234 39.364 33.6898 40.925 33.4507 41.0586L33.0077 41.3047V34.393L33.0148 27.4883L35.0398 26.3773C36.1577 25.7726 37.0929 25.2734 37.114 25.2734C37.1351 25.2734 37.1562 26.1101 37.1562 27.1367C37.1562 29.1687 37.1773 29.3164 37.5429 29.4781C37.6413 29.5273 37.796 29.5625 37.8804 29.5625C38.0562 29.5555 41.1218 27.889 41.3468 27.6711C41.4312 27.5937 41.5156 27.425 41.5437 27.3055C41.5648 27.1859 41.5859 26.1172 41.5859 24.9289L41.5929 22.7773L43.5265 21.7226C44.5882 21.139 45.4882 20.6539 45.5234 20.6469C45.5656 20.6328 45.5937 21.3148 45.5937 22.5312C45.5937 24.5984 45.6148 24.7461 45.9804 24.9078C46.2195 25.0203 46.4023 25.0133 46.6413 24.8937C46.9929 24.7109 46.9999 24.6195 46.9999 21.7859V19.1422L46.8101 18.9523C46.5429 18.6992 32.5015 11 32.2906 11C32.1991 11 31.9671 11.0844 31.7773 11.1828ZM38.5624 15.957C41.9796 17.8344 44.7851 19.3812 44.7991 19.3883C44.8202 19.4164 41.0445 21.4976 40.9109 21.5328C40.8687 21.5469 38.7945 20.4359 36.3054 19.0648C33.8163 17.7008 31.0109 16.1609 30.0687 15.6406C29.1265 15.1273 28.3882 14.6773 28.4163 14.6492C28.5218 14.5508 32.1991 12.5469 32.2765 12.5469C32.3187 12.5469 35.1523 14.0797 38.5624 15.957ZM33.1132 18.9172C36.5374 20.8015 39.3359 22.3555 39.3359 22.3836C39.3359 22.4047 38.9984 22.6086 38.5906 22.8336L37.8523 23.2414L31.6015 19.8101C28.1562 17.9258 25.3437 16.3648 25.3437 16.3437C25.3437 16.3015 26.757 15.514 26.8343 15.507C26.8695 15.5 29.689 17.0398 33.1132 18.9172ZM29.921 20.4922C33.1835 22.2781 35.9749 23.8109 36.1156 23.8953L36.3757 24.05L34.3999 25.1328C33.3101 25.7305 32.3749 26.2297 32.3257 26.2437C32.2554 26.2648 22.271 20.8437 20.007 19.557L19.7257 19.3953L21.7085 18.2984C22.8616 17.6586 23.7546 17.2086 23.839 17.2156C23.9234 17.2297 26.6585 18.6992 29.921 20.4922ZM25.3296 24.0851C28.7187 25.9484 31.5171 27.4883 31.5523 27.5164C31.5804 27.5445 31.5945 30.6523 31.5874 34.4281L31.5663 41.2976L30.4906 40.7211L29.4148 40.1445L29.457 39.8984C29.696 38.4219 29.7171 38.1969 29.682 37.2969C29.6468 36.2844 29.5202 35.5461 29.239 34.7023C28.3109 31.925 26.0749 29.689 23.2976 28.7609C22.257 28.4164 21.6804 28.332 20.2601 28.332H18.9452V24.4719C18.9452 20.9914 18.9593 20.6187 19.0577 20.6609C19.114 20.682 21.9406 22.2219 25.3296 24.0851ZM40.1656 25.2172L40.1445 26.7781L39.7226 27.0172C39.4906 27.1437 39.132 27.3476 38.9351 27.4601L38.5624 27.664V26.0609V24.4508L39.2866 24.057C39.6804 23.839 40.046 23.6562 40.0952 23.6562C40.1656 23.6562 40.1796 23.9937 40.1656 25.2172Z" fill="#54B0B2"/>
<path d="M45.9525 26.4969C45.5377 26.7289 45.4814 27.214 45.833 27.5656C46.1845 27.9172 46.6416 27.868 46.8806 27.4531C47.2463 26.8344 46.5853 26.1453 45.9525 26.4969Z" fill="#54B0B2"/>
<path d="M16.7231 34.5687C16.1677 35.1172 15.6895 35.6445 15.6544 35.743C15.5348 36.1015 15.6755 36.3195 16.695 37.332C17.6723 38.3094 17.6864 38.3164 18.0028 38.3164C18.4177 38.3164 18.6637 38.0633 18.6637 37.6414C18.6637 37.4023 18.6145 37.3039 18.3333 37.0086L18.0028 36.657L20.3583 36.6781L22.7208 36.6992L23.0583 36.9101C23.9794 37.4797 24.2395 38.5133 23.6981 39.4344C23.5997 39.6101 23.4028 39.8351 23.2692 39.9406C22.8403 40.264 22.5028 40.3203 20.8997 40.3203H19.4231L19.2192 40.5242C18.8817 40.8687 18.952 41.4031 19.3669 41.6211C19.6622 41.7758 22.327 41.7758 22.9177 41.6211C24.1973 41.2836 25.1255 40.2781 25.3434 38.9773C25.6177 37.3672 24.4856 35.7078 22.8755 35.3351C22.6997 35.293 21.5677 35.2578 20.288 35.2578H18.0098L18.3403 34.9062C18.6145 34.6109 18.6637 34.5195 18.6637 34.2734C18.6637 33.8797 18.3684 33.5703 17.9887 33.5703C17.7427 33.5703 17.6512 33.6406 16.7231 34.5687Z" fill="#54B0B2"/>
<path d="M13.89 43.1609C13.4752 43.3929 13.4189 43.8781 13.7705 44.2297C14.122 44.5812 14.6213 44.525 14.8392 44.1101C15.1627 43.4703 14.5088 42.8164 13.89 43.1609Z" fill="#54B0B2"/>
</g>
</g>
<rect x="0.905273" y="0.674484" width="56.094" height="56.094" rx="9.5" stroke="#D6D6D6"/>
<defs>
<filter id="filter0_b_3025_15494" x="-70.9622" y="-71.193" width="199.829" height="199.829" filterUnits="userSpaceOnUse" color-interpolation-filters="sRGB">
<feFlood flood-opacity="0" result="BackgroundImageFix"/>
<feGaussianBlur in="BackgroundImageFix" stdDeviation="35.6838"/>
<feComposite in2="SourceAlpha" operator="in" result="effect1_backgroundBlur_3025_15494"/>
<feBlend mode="normal" in="SourceGraphic" in2="effect1_backgroundBlur_3025_15494" result="shape"/>
</filter>
<clipPath id="clip0_3025_15494">
<rect x="0.405273" y="0.174484" width="57.094" height="57.094" rx="10" fill="white"/>
</clipPath>
<clipPath id="clip1_3025_15494">
<rect width="36" height="36" fill="white" transform="translate(11 11)"/>
</clipPath>
</defs>
</svg>
