<svg width="58" height="59" viewBox="0 0 58 59" fill="none" xmlns="http://www.w3.org/2000/svg">
<g clip-path="url(#clip0_3025_15488)">
<g filter="url(#filter0_b_3025_15488)">
<rect x="0.405273" y="0.945435" width="57.094" height="57.094" rx="11.4188" fill="white"/>
<rect x="0.762111" y="1.30227" width="56.3803" height="56.3803" rx="11.062" stroke="white" stroke-width="0.713675"/>
</g>
<g clip-path="url(#clip1_3025_15488)">
<path d="M15.2539 12.3797C15.1414 12.4359 14.9656 12.5484 14.8742 12.6328C14.5016 12.9984 14.5156 12.4922 14.5156 23.0953V32.932L14.6773 33.2344C14.7898 33.4453 14.9375 33.593 15.1484 33.7055L15.4508 33.8672H19.3812H23.3047V35.168V36.4688H17.7711C14.1781 36.4688 12.1391 36.4969 11.9703 36.5391C11.6187 36.6375 11.2883 36.9258 11.1336 37.2773C11.0141 37.5375 11 37.8469 11 42.0797C11 46.0031 11.0141 46.6359 11.1055 46.8609C11.2531 47.2055 11.4711 47.4305 11.8086 47.5852C12.0688 47.7047 12.3359 47.7188 15.6617 47.7188H19.2336L19.4023 47.543C19.5008 47.4516 19.5781 47.2898 19.5781 47.1914C19.5781 47.093 19.5008 46.9313 19.4023 46.8398L19.2336 46.6641H15.725C13.0953 46.6641 12.2023 46.643 12.1391 46.5797C12.0758 46.5164 12.0547 45.4195 12.0547 42.0797C12.0547 37.7906 12.0617 37.6641 12.1883 37.5938C12.3781 37.4953 45.6219 37.4953 45.8117 37.5938C45.9383 37.6641 45.9453 37.7906 45.9453 42.0797C45.9453 45.4195 45.9242 46.5164 45.8609 46.5797C45.7977 46.643 42.9289 46.6641 33.3805 46.6641H20.9773L20.8086 46.8398C20.5836 47.0578 20.5836 47.325 20.8086 47.543L20.9773 47.7188H33.4437C45.4109 47.7188 45.9242 47.7117 46.1914 47.5852C46.5289 47.4305 46.7469 47.2055 46.8945 46.8609C46.9859 46.6359 47 46.0031 47 42.0797C47 37.8469 46.9859 37.5375 46.8664 37.2773C46.7117 36.9258 46.3812 36.6375 46.0297 36.5391C45.8609 36.4969 43.8148 36.4688 40.2008 36.4688H34.625V35.168V33.8672H38.5203C41.1008 33.8672 42.4859 33.8391 42.6195 33.7898C42.9148 33.6844 43.2664 33.3117 43.3438 33.0234C43.4352 32.6859 43.4352 13.4625 43.3438 13.125C43.2664 12.8367 42.9148 12.4641 42.6195 12.3586C42.4789 12.3023 39.2375 12.2812 32.2062 12.2812H21.9898L21.8 12.4289C21.5609 12.6188 21.5469 12.9703 21.7789 13.1813L21.9406 13.3359L32.1359 13.35L42.3242 13.3711V23.0742V32.7773H28.9648H15.6055V23.0742V13.3711L17.9258 13.3359C19.2055 13.3148 20.2883 13.2727 20.3375 13.2445C20.6328 13.0547 20.5625 12.4711 20.232 12.3445C20.1406 12.3094 19.0297 12.2812 17.7641 12.2812C15.9922 12.2883 15.4156 12.3094 15.2539 12.3797ZM33.5703 35.168V36.4688H28.9648H24.3594V35.168V33.8672H28.9648H33.5703V35.168Z" fill="#54B0B2"/>
<path d="M17.075 14.8898C16.9484 15.0305 16.9414 15.2695 16.9414 23.0813V31.118L17.1031 31.2797L17.2648 31.4414H28.9578C40.3625 31.4414 40.6578 31.4414 40.8055 31.3078L40.9531 31.1742V23.1164C40.9531 15.9305 40.9391 15.0375 40.8406 14.8969L40.7352 14.7422H28.9719H17.2086L17.075 14.8898ZM39.8984 23.1094V30.4219L28.9508 30.4078L17.9961 30.3867L17.975 23.0883L17.9609 15.7969H28.9297H39.8984V23.1094Z" fill="#54B0B2"/>
<path d="M19.9648 17.2734C19.8102 17.3508 19.6062 17.5266 19.5078 17.6742L19.332 17.9344V23.0742V28.2211L19.5359 28.4813C19.9578 29.0367 19.7047 29.0156 25.2031 29.0086C30.3641 29.0086 30.4133 29.0086 30.7719 28.6852C30.8492 28.6148 30.9758 28.432 31.0461 28.2773C31.1656 28.0102 31.1797 27.7008 31.1797 23.1094C31.1797 20.1141 31.1516 18.1242 31.1094 17.9766C31.032 17.6883 30.6805 17.3156 30.3852 17.2102C30.2516 17.1539 28.55 17.1328 25.2172 17.1328C20.3937 17.1328 20.2391 17.1398 19.9648 17.2734ZM22.8828 19.1016V20.0156H21.6172H20.3516V19.1508C20.3516 18.6727 20.3727 18.2578 20.4008 18.2367C20.4219 18.2086 20.9914 18.1875 21.6664 18.1875H22.8828V19.1016ZM26.5391 19.1016V20.0156H25.2383H23.9375V19.1016V18.1875H25.2383H26.5391V19.1016ZM30.1109 19.1156L30.132 20.0156H28.8594H27.5938V19.1016V18.1875L28.8453 18.2016L30.0898 18.2227L30.1109 19.1156ZM22.8828 21.8438V22.6172H21.6172H20.3516V21.8438V21.0703H21.6172H22.8828V21.8438ZM26.5391 21.8438V22.6172H25.2383H23.9375V21.8438V21.0703H25.2383H26.5391V21.8438ZM30.125 21.8438V22.6172H28.8594H27.5938V21.8438V21.0703H28.8594H30.125V21.8438ZM22.8828 24.4102V25.1484H21.6172H20.3516V24.4102V23.6719H21.6172H22.8828V24.4102ZM26.5391 24.4102V25.1484H25.2383H23.9375V24.4102V23.6719H25.2383H26.5391V24.4102ZM30.125 24.4102V25.1484H28.8594H27.5938V24.4102V23.6719H28.8594H30.125V24.4102ZM22.8477 27.082V27.9258H21.6172H20.3867L20.3656 27.0609L20.3445 26.2031L21.5961 26.2172L22.8477 26.2383V27.082ZM26.5391 27.082V27.9609H25.2383H23.9375V27.082V26.2031H25.2383H26.5391V27.082ZM30.1109 27.0398C30.125 27.6375 30.1039 27.8625 30.0406 27.9047C29.9914 27.9328 29.4219 27.9609 28.775 27.9609H27.5938V27.1313C27.5938 26.6742 27.6148 26.2734 27.643 26.2453C27.6711 26.2242 28.2336 26.2102 28.8875 26.2172L30.0898 26.2383L30.1109 27.0398Z" fill="#54B0B2"/>
<path d="M33.8517 19.7344C33.6759 19.9102 33.6689 20.2336 33.8447 20.4445L33.9783 20.6133H35.8134C37.6064 20.6133 37.6486 20.6133 37.7962 20.4586C37.9861 20.2688 38.0002 19.9313 37.8244 19.7344C37.7048 19.6008 37.6134 19.5938 35.8416 19.5938C34.0837 19.5938 33.9853 19.6008 33.8517 19.7344Z" fill="#54B0B2"/>
<path d="M33.8518 21.9844C33.5495 22.2867 33.7534 22.7789 34.2174 22.8633C34.344 22.8844 35.1666 22.8984 36.0456 22.8844C37.5854 22.8633 37.6487 22.8563 37.7963 22.7086C37.9862 22.5188 38.0002 22.1813 37.8245 21.9844C37.7049 21.8508 37.6135 21.8438 35.8416 21.8438C34.0838 21.8438 33.9854 21.8508 33.8518 21.9844Z" fill="#54B0B2"/>
<path d="M33.2187 24.6703C32.7125 25.0219 32.6914 25.0781 32.6703 26.6109C32.6492 27.9398 32.6562 28.0102 32.8109 28.3125C32.9305 28.5445 33.057 28.6711 33.2891 28.7906C33.5984 28.9453 33.6336 28.9523 35.8273 28.9312L38.0492 28.9102L38.3094 28.7062C38.7312 28.3828 38.7734 28.2141 38.7734 26.7164C38.7734 25.1906 38.7031 24.9445 38.218 24.6703C37.9508 24.5227 37.8805 24.5156 35.7008 24.5156C33.4859 24.5156 33.4437 24.5156 33.2187 24.6703ZM37.7187 26.7305V27.8906L35.7359 27.8766L33.7461 27.8555L33.725 26.7094L33.7109 25.5703H35.7148H37.7187V26.7305Z" fill="#54B0B2"/>
<path d="M41.0939 40.1742C40.6579 40.3289 40.0954 40.9125 39.9478 41.3484C39.6735 42.15 39.8493 42.9727 40.4189 43.5422C41.2345 44.3508 42.5071 44.3508 43.3157 43.5352C43.7657 43.0852 43.9345 42.6352 43.8923 41.9672C43.8501 41.1867 43.4704 40.6102 42.7814 40.2516C42.3735 40.0406 41.5579 40.0055 41.0939 40.1742ZM42.3876 41.243C43.0134 41.6578 43.0064 42.6352 42.3665 42.9727C42.0993 43.1063 41.6353 43.1063 41.3681 42.9727C40.7423 42.6422 40.7142 41.6156 41.3259 41.25C41.6212 41.0672 42.1204 41.0672 42.3876 41.243Z" fill="#54B0B2"/>
<path d="M16.8361 41.7422C16.6603 41.918 16.6533 42.2414 16.8291 42.4523L16.9627 42.6211H26.6798H36.397L36.5306 42.4523C36.7064 42.2414 36.6994 41.918 36.5236 41.7422C36.383 41.6016 36.2916 41.6016 26.6798 41.6016C17.0681 41.6016 16.9767 41.6016 16.8361 41.7422Z" fill="#54B0B2"/>
</g>
</g>
<rect x="0.905273" y="1.44543" width="56.094" height="56.094" rx="9.5" stroke="#D6D6D6"/>
<defs>
<filter id="filter0_b_3025_15488" x="-70.9622" y="-70.4221" width="199.829" height="199.829" filterUnits="userSpaceOnUse" color-interpolation-filters="sRGB">
<feFlood flood-opacity="0" result="BackgroundImageFix"/>
<feGaussianBlur in="BackgroundImageFix" stdDeviation="35.6838"/>
<feComposite in2="SourceAlpha" operator="in" result="effect1_backgroundBlur_3025_15488"/>
<feBlend mode="normal" in="SourceGraphic" in2="effect1_backgroundBlur_3025_15488" result="shape"/>
</filter>
<clipPath id="clip0_3025_15488">
<rect x="0.405273" y="0.945435" width="57.094" height="57.094" rx="10" fill="white"/>
</clipPath>
<clipPath id="clip1_3025_15488">
<rect width="36" height="36" fill="white" transform="translate(11 12)"/>
</clipPath>
</defs>
</svg>
